<svg xmlns="http://www.w3.org/2000/svg"><defs><font id="SFUIText-Medium" horiz-adv-x="1800"><font-face font-family="SF UI Text" font-weight="500" units-per-em="2048" panose-1="0 0 6 0 0 0 0 0 0 0" ascent="1638" descent="-410" x-height="1089" cap-height="1443" bbox="-620 -572 2731 2212" underline-thickness="154" underline-position="-681" unicode-range="U+0020-1F189"/><glyph glyph-name="uni2460" unicode="1○" d="M1012 385H856v545h-7L686 819v143l170 116h156V385zM900 99q128 0 243.5 49T1341 280.5t130 198 48 241.5-48 241.5-130 198-197.5 132.5-243.5 49-243.5-49T459 1159.5t-130-198T281 720t48-241.5 130-198T656.5 148 900 99zm0-151Q743-52 600 9T353.5 173.5 189 420t-61 301q0 157 61 300.5t164.5 247T600 1433t300 61 300-61 246.5-164.5 164.5-247 61-300.5q0-158-61-301t-164.5-246.5T1200 9 900-52z"/><glyph glyph-name="uni2461" unicode="2○" d="M794 864H648v4q0 94 66.5 158t186.5 64q112 0 180.5-56t68.5-143q0-41-19.5-80.5t-42-66T1022 674L868 520v-7h295V385H655v99l262 260q27 28 40.5 43.5t26.5 41 13 49.5q0 38-28.5 62T897 964q-48 0-75.5-27.5T794 868v-4zM900 99q128 0 243.5 49T1341 280.5t130 198 48 241.5-48 241.5-130 198-197.5 132.5-243.5 49-243.5-49T459 1159.5t-130-198T281 720t48-241.5 130-198T656.5 148 900 99zm0-151Q743-52 600 9T353.5 173.5 189 420t-61 301q0 157 61 300.5t164.5 247T600 1433t300 61 300-61 246.5-164.5 164.5-247 61-300.5q0-158-61-301t-164.5-246.5T1200 9 900-52z"/><glyph glyph-name="uni2462" unicode="3○" d="M822 680v120h74q46 0 76 25t30 63q-1 37-30.5 60T896 971q-47 0-77-24t-32-59H643q3 91 70 146t186 56q114 0 183-50.5t71-131.5q1-62-42-104.5t-92-50.5v-8q59-6 106.5-49t48.5-116q1-95-77.5-151T896 373q-120 0-191.5 57T631 576h142q4-36 38-59t85-23q56 0 90.5 26t34.5 68q-1 41-34 66.5T899 680h-77zm78-581q128 0 243.5 49T1341 280.5t130 198 48 241.5-48 241.5-130 198-197.5 132.5-243.5 49-243.5-49T459 1159.5t-130-198T281 720t48-241.5 130-198T656.5 148 900 99zm0-151Q743-52 600 9T353.5 173.5 189 420t-61 301q0 157 61 300.5t164.5 247T600 1433t300 61 300-61 246.5-164.5 164.5-247 61-300.5q0-158-61-301t-164.5-246.5T1200 9 900-52z"/><glyph glyph-name="uni2463" unicode="4○" d="M856 1078h219V633h92V509h-92V385H936v124H586v126q29 52 66 114t63 103.5 73 117 68 108.5zM725 633h211v329h-9Q789 749 725 636v-3zM900 99q128 0 243.5 49T1341 280.5t130 198 48 241.5-48 241.5-130 198-197.5 132.5-243.5 49-243.5-49T459 1159.5t-130-198T281 720t48-241.5 130-198T656.5 148 900 99zm0-151Q743-52 600 9T353.5 173.5 189 420t-61 301q0 157 61 300.5t164.5 247T600 1433t300 61 300-61 246.5-164.5 164.5-247 61-300.5q0-158-61-301t-164.5-246.5T1200 9 900-52z"/><glyph glyph-name="uni2464" unicode="5○" d="M644 575h144q8-37 42-57t79-20q50 0 86.5 33t36.5 88q0 50-36 81.5T908 732q-41 0-70-17.5T796 673H659l30 408h451V959H811l-16-174h8q14 24 53.5 43t94.5 19q99 0 165-60.5t66-163.5q0-112-76-180t-201-68q-113 0-185 56.5T644 575zM900 99q128 0 243.5 49T1341 280.5t130 198 48 241.5-48 241.5-130 198-197.5 132.5-243.5 49-243.5-49T459 1159.5t-130-198T281 720t48-241.5 130-198T656.5 148 900 99zm0-151Q743-52 600 9T353.5 173.5 189 420t-61 301q0 157 61 300.5t164.5 247T600 1433t300 61 300-61 246.5-164.5 164.5-247 61-300.5q0-158-61-301t-164.5-246.5T1200 9 900-52z"/><glyph glyph-name="uni2465" unicode="6○" d="M1170 623q0-112-74.5-181T901 373q-121 0-197 70.5T628 628q0 123 98 261 9 15 65 88.5t78 100.5h179q-29-34-101-124.5T861 842q-13-17-26-39l9-2q42 39 115 39 91 0 151-61.5t60-155.5zm-390-8q0-49 34-82t86-33 86 33 34 82q0 50-34 83t-86 33-86-33-34-83zM900 99q128 0 243.5 49T1341 280.5t130 198 48 241.5-48 241.5-130 198-197.5 132.5-243.5 49-243.5-49T459 1159.5t-130-198T281 720t48-241.5 130-198T656.5 148 900 99zm0-151Q743-52 600 9T353.5 173.5 189 420t-61 301q0 157 61 300.5t164.5 247T600 1433t300 61 300-61 246.5-164.5 164.5-247 61-300.5q0-158-61-301t-164.5-246.5T1200 9 900-52z"/><glyph glyph-name="uni2466" unicode="7○" d="M660 1071h509V941L881 378H717l295 558v6H660v129zM900 99q128 0 243.5 49T1341 280.5t130 198 48 241.5-48 241.5-130 198-197.5 132.5-243.5 49-243.5-49T459 1159.5t-130-198T281 720t48-241.5 130-198T656.5 148 900 99zm0-151Q743-52 600 9T353.5 173.5 189 420t-61 301q0 157 61 300.5t164.5 247T600 1433t300 61 300-61 246.5-164.5 164.5-247 61-300.5q0-158-61-301t-164.5-246.5T1200 9 900-52z"/><glyph glyph-name="uni2467" unicode="8○" d="M900 484q56 0 92.5 29.5T1029 589t-36 75.5-93 29.5-93.5-30-36.5-75q0-46 36.5-75.5T900 484zm0 313q47 0 77.5 26t30.5 66q0 39-30.5 64.5T900 979t-77.5-25.5T792 889q0-40 30.5-66t77.5-26zm-2-424q-129 0-206.5 56T614 578q0 64 42 110.5T767 748v6q-59 18-91.5 57.5T643 906q0 82 71.5 133t185.5 51 185.5-51 71.5-133q0-55-32.5-95t-91.5-57v-6q69-13 111-59.5t42-110.5q0-93-79.5-149T898 373zm2-274q128 0 243.5 49T1341 280.5t130 198 48 241.5-48 241.5-130 198-197.5 132.5-243.5 49-243.5-49T459 1159.5t-130-198T281 720t48-241.5 130-198T656.5 148 900 99zm0-151Q743-52 600 9T353.5 173.5 189 420t-61 301q0 157 61 300.5t164.5 247T600 1433t300 61 300-61 246.5-164.5 164.5-247 61-300.5q0-158-61-301t-164.5-246.5T1200 9 900-52z"/><glyph glyph-name="uni2468" unicode="9○" d="M629 841q0 111 74.5 180t194.5 69q121 0 196.5-70.5T1170 835q0-123-97-261-9-15-66.5-90.5T930 386H751q27 32 100 123t87 112q11 14 26 40l-9 1q-44-39-116-39-91 0-150.5 62T629 841zm390 7q0 50-34 82.5T899 963t-86.5-32.5T778 848t34.5-82.5T899 733t86 32.5 34 82.5zM900 99q128 0 243.5 49T1341 280.5t130 198 48 241.5-48 241.5-130 198-197.5 132.5-243.5 49-243.5-49T459 1159.5t-130-198T281 720t48-241.5 130-198T656.5 148 900 99zm0-151Q743-52 600 9T353.5 173.5 189 420t-61 301q0 157 61 300.5t164.5 247T600 1433t300 61 300-61 246.5-164.5 164.5-247 61-300.5q0-158-61-301t-164.5-246.5T1200 9 900-52z"/><glyph glyph-name="uni24B6" unicode="A○" d="M808 688h184l-86 266h-12zm-83-280H569l240 693h182l240-693h-156l-53 163H778zM900 99q128 0 243.5 49T1341 280.5t130 198 48 241.5-48 241.5-130 198-197.5 132.5-243.5 49-243.5-49T459 1159.5t-130-198T281 720t48-241.5 130-198T656.5 148 900 99zm0-151Q743-52 600 9T353.5 173.5 189 420t-61 301q0 157 61 300.5t164.5 247T600 1433t300 61 300-61 246.5-164.5 164.5-247 61-300.5q0-158-61-301t-164.5-246.5T1200 9 900-52z"/><glyph glyph-name="uni24B7" unicode="B○" d="M651 385v693h312q98 0 155.5-46t57.5-125q0-59-34.5-98.5T1050 756v-6q73-9 117.5-53.5T1212 579q0-89-68.5-141.5T964 385H651zm150 582V793h91q135 0 135 89 0 39-27.5 62T924 967H801zm0-274V500h102q81 0 117.5 23t36.5 71q0 46-33 72.5T932 693H801zm99-594q128 0 243.5 49T1341 280.5t130 198 48 241.5-48 241.5-130 198-197.5 132.5-243.5 49-243.5-49T459 1159.5t-130-198T281 720t48-241.5 130-198T656.5 148 900 99zm0-151Q743-52 600 9T353.5 173.5 189 420t-61 301q0 157 61 300.5t164.5 247T600 1433t300 61 300-61 246.5-164.5 164.5-247 61-300.5q0-158-61-301t-164.5-246.5T1200 9 900-52z"/><glyph glyph-name="uni24B8" unicode="C○" d="M1054 619h152q-14-111-97.5-178.5T899 373q-147 0-238 98t-91 260 91 260.5 238 98.5q129 0 212.5-69.5T1207 837h-149q-7 53-51 87.5T901 959q-80 0-128-62t-48-166 48-165.5T901 504q60 0 103 32.5t50 82.5zM900 99q128 0 243.5 49T1341 280.5t130 198 48 241.5-48 241.5-130 198-197.5 132.5-243.5 49-243.5-49T459 1159.5t-130-198T281 720t48-241.5 130-198T656.5 148 900 99zm0-151Q743-52 600 9T353.5 173.5 189 420t-61 301q0 157 61 300.5t164.5 247T600 1433t300 61 300-61 246.5-164.5 164.5-247 61-300.5q0-158-61-301t-164.5-246.5T1200 9 900-52z"/><glyph glyph-name="uni24B9" unicode="D○" d="M646 1078h272q160 0 241.5-88.5T1241 733t-81.5-258T918 385H646v693zm153-126V512h97q96 0 141.5 54t45.5 165q0 112-46 166.5T896 952h-97zM900 99q128 0 243.5 49T1341 280.5t130 198 48 241.5-48 241.5-130 198-197.5 132.5-243.5 49-243.5-49T459 1159.5t-130-198T281 720t48-241.5 130-198T656.5 148 900 99zm0-151Q743-52 600 9T353.5 173.5 189 420t-61 301q0 157 61 300.5t164.5 247T600 1433t300 61 300-61 246.5-164.5 164.5-247 61-300.5q0-158-61-301t-164.5-246.5T1200 9 900-52z"/><glyph glyph-name="uni24BA" unicode="E○" d="M1143 511V385H671v693h472V953H822V792h302V678H822V511h321zM900 99q128 0 243.5 49T1341 280.5t130 198 48 241.5-48 241.5-130 198-197.5 132.5-243.5 49-243.5-49T459 1159.5t-130-198T281 720t48-241.5 130-198T656.5 148 900 99zm0-151Q743-52 600 9T353.5 173.5 189 420t-61 301q0 157 61 300.5t164.5 247T600 1433t300 61 300-61 246.5-164.5 164.5-247 61-300.5q0-158-61-301t-164.5-246.5T1200 9 900-52z"/><glyph glyph-name="uni24BB" unicode="F○" d="M852 385H697v693h468V951H852V778h286V652H852V385zm48-286q128 0 243.5 49T1341 280.5t130 198 48 241.5-48 241.5-130 198-197.5 132.5-243.5 49-243.5-49T459 1159.5t-130-198T281 720t48-241.5 130-198T656.5 148 900 99zm0-151Q743-52 600 9T353.5 173.5 189 420t-61 301q0 157 61 300.5t164.5 247T600 1433t300 61 300-61 246.5-164.5 164.5-247 61-300.5q0-158-61-301t-164.5-246.5T1200 9 900-52z"/><glyph glyph-name="uni24BC" unicode="G○" d="M1057 608v44H909v108h293V639q0-119-79.5-192.5T900 373q-148 0-239 99t-91 259q0 161 91 260t239 99q124 0 208.5-65t97.5-172h-151q-7 49-50 80t-102 31q-81 0-129.5-63.5T725 731t48.5-170T903 497q73 0 113.5 30.5T1057 608zM900 99q128 0 243.5 49T1341 280.5t130 198 48 241.5-48 241.5-130 198-197.5 132.5-243.5 49-243.5-49T459 1159.5t-130-198T281 720t48-241.5 130-198T656.5 148 900 99zm0-151Q743-52 600 9T353.5 173.5 189 420t-61 301q0 157 61 300.5t164.5 247T600 1433t300 61 300-61 246.5-164.5 164.5-247 61-300.5q0-158-61-301t-164.5-246.5T1200 9 900-52z"/><glyph glyph-name="uni24BD" unicode="H○" d="M1198 385h-151v287H754V385H603v693h151V802h293v276h151V385zM900 99q128 0 243.5 49T1341 280.5t130 198 48 241.5-48 241.5-130 198-197.5 132.5-243.5 49-243.5-49T459 1159.5t-130-198T281 720t48-241.5 130-198T656.5 148 900 99zm0-151Q743-52 600 9T353.5 173.5 189 420t-61 301q0 157 61 300.5t164.5 247T600 1433t300 61 300-61 246.5-164.5 164.5-247 61-300.5q0-158-61-301t-164.5-246.5T1200 9 900-52z"/><glyph glyph-name="uni24BE" unicode="I○" d="M981 385H819v693h162V385zM900 99q128 0 243.5 49T1341 280.5t130 198 48 241.5-48 241.5-130 198-197.5 132.5-243.5 49-243.5-49T459 1159.5t-130-198T281 720t48-241.5 130-198T656.5 148 900 99zm0-151Q743-52 600 9T353.5 173.5 189 420t-61 301q0 157 61 300.5t164.5 247T600 1433t300 61 300-61 246.5-164.5 164.5-247 61-300.5q0-158-61-301t-164.5-246.5T1200 9 900-52z"/><glyph glyph-name="uni24BF" unicode="J○" d="M624 596h150q1-40 25.5-63.5T865 509q95 0 95 104v460h155V614q0-117-66-181.5T867 368q-114 0-178.5 63.5T624 596zM900 99q128 0 243.5 49T1341 280.5t130 198 48 241.5-48 241.5-130 198-197.5 132.5-243.5 49-243.5-49T459 1159.5t-130-198T281 720t48-241.5 130-198T656.5 148 900 99zm0-151Q743-52 600 9T353.5 173.5 189 420t-61 301q0 157 61 300.5t164.5 247T600 1433t300 61 300-61 246.5-164.5 164.5-247 61-300.5q0-158-61-301t-164.5-246.5T1200 9 900-52z"/><glyph glyph-name="uni24C0" unicode="K○" d="M1222 1078 971 773l260-388h-182L856 672l-73-80V385H635v693h148V780h8l261 298h170zM900 99q128 0 243.5 49T1341 280.5t130 198 48 241.5-48 241.5-130 198-197.5 132.5-243.5 49-243.5-49T459 1159.5t-130-198T281 720t48-241.5 130-198T656.5 148 900 99zm0-151Q743-52 600 9T353.5 173.5 189 420t-61 301q0 157 61 300.5t164.5 247T600 1433t300 61 300-61 246.5-164.5 164.5-247 61-300.5q0-158-61-301t-164.5-246.5T1200 9 900-52z"/><glyph glyph-name="uni24C1" unicode="L○" d="M1173 525V390H712v693h157V525h304zM900 99q128 0 243.5 49T1341 280.5t130 198 48 241.5-48 241.5-130 198-197.5 132.5-243.5 49-243.5-49T459 1159.5t-130-198T281 720t48-241.5 130-198T656.5 148 900 99zm0-151Q743-52 600 9T353.5 173.5 189 420t-61 301q0 157 61 300.5t164.5 247T600 1433t300 61 300-61 246.5-164.5 164.5-247 61-300.5q0-158-61-301t-164.5-246.5T1200 9 900-52z"/><glyph glyph-name="uni24C2" unicode="M○" d="M679 385H549v693h153l197-496h4l197 496h151V385h-129v450h-10L947 414h-93L688 835h-9V385zM900 99q128 0 243.5 49T1341 280.5t130 198 48 241.5-48 241.5-130 198-197.5 132.5-243.5 49-243.5-49T459 1159.5t-130-198T281 720t48-241.5 130-198T656.5 148 900 99zm0-151Q743-52 600 9T353.5 173.5 189 420t-61 301q0 157 61 300.5t164.5 247T600 1433t300 61 300-61 246.5-164.5 164.5-247 61-300.5q0-158-61-301t-164.5-246.5T1200 9 900-52z"/><glyph glyph-name="uni24C3" unicode="N○" d="M749 385H608v693h123l311-437h9v437h141V385h-123L757 826h-8V385zM900 99q128 0 243.5 49T1341 280.5t130 198 48 241.5-48 241.5-130 198-197.5 132.5-243.5 49-243.5-49T459 1159.5t-130-198T281 720t48-241.5 130-198T656.5 148 900 99zm0-151Q743-52 600 9T353.5 173.5 189 420t-61 301q0 157 61 300.5t164.5 247T600 1433t300 61 300-61 246.5-164.5 164.5-247 61-300.5q0-158-61-301t-164.5-246.5T1200 9 900-52z"/><glyph glyph-name="uni24C4" unicode="O○" d="M900 504q76 0 125.5 59.5T1075 731t-49.5 168T900 959t-125.5-60T725 731t49.5-167.5T900 504zm0-131q-143 0-237 95.5T569 731t94 263 237 96 237-96 94-263-94-262.5T900 373zm0-274q128 0 243.5 49T1341 280.5t130 198 48 241.5-48 241.5-130 198-197.5 132.5-243.5 49-243.5-49T459 1159.5t-130-198T281 720t48-241.5 130-198T656.5 148 900 99zm0-151Q743-52 600 9T353.5 173.5 189 420t-61 301q0 157 61 300.5t164.5 247T600 1433t300 61 300-61 246.5-164.5 164.5-247 61-300.5q0-158-61-301t-164.5-246.5T1200 9 900-52z"/><glyph glyph-name="uni24C5" unicode="P○" d="M966 1078q114 0 180.5-66t66.5-172-67-171-182-65H826V385H671v693h295zm92-238q0 55-31 84.5T939 954H822V726h117q57 0 88 29.5t31 84.5zM900 99q128 0 243.5 49T1341 280.5t130 198 48 241.5-48 241.5-130 198-197.5 132.5-243.5 49-243.5-49T459 1159.5t-130-198T281 720t48-241.5 130-198T656.5 148 900 99zm0-151Q743-52 600 9T353.5 173.5 189 420t-61 301q0 157 61 300.5t164.5 247T600 1433t300 61 300-61 246.5-164.5 164.5-247 61-300.5q0-158-61-301t-164.5-246.5T1200 9 900-52z"/><glyph glyph-name="uni24C6" unicode="Q○" d="M1207 320h-150l-49 69q-54-16-108-16-143 0-237 95.5T569 731t94 263 237 96 237-96 94-263q0-181-117-282zM900 504q22 0 42 6l-73 106h120l36-45q50 60 50 160 0 108-49.5 168T900 959t-125.5-60T725 731t49.5-167.5T900 504zm0-405q128 0 243.5 49T1341 280.5t130 198 48 241.5-48 241.5-130 198-197.5 132.5-243.5 49-243.5-49T459 1159.5t-130-198T281 720t48-241.5 130-198T656.5 148 900 99zm0-151Q743-52 600 9T353.5 173.5 189 420t-61 301q0 157 61 300.5t164.5 247T600 1433t300 61 300-61 246.5-164.5 164.5-247 61-300.5q0-158-61-301t-164.5-246.5T1200 9 900-52z"/><glyph glyph-name="uni24C7" unicode="R○" d="M935 1078q121 0 189.5-59t68.5-161q0-70-37.5-121t-96.5-72l147-280h-168L914 638H790V385H642v693h293zM790 750h122q58 0 91 26t33 75q0 51-32.5 78.5T915 957H790V750zM900 99q128 0 243.5 49T1341 280.5t130 198 48 241.5-48 241.5-130 198-197.5 132.5-243.5 49-243.5-49T459 1159.5t-130-198T281 720t48-241.5 130-198T656.5 148 900 99zm0-151Q743-52 600 9T353.5 173.5 189 420t-61 301q0 157 61 300.5t164.5 247T600 1433t300 61 300-61 246.5-164.5 164.5-247 61-300.5q0-158-61-301t-164.5-246.5T1200 9 900-52z"/><glyph glyph-name="uni24C8" unicode="S○" d="M613 583h150q5-41 43.5-65.5T905 493t96 23.5 36 63.5q0 32-26 51t-87 32l-107 21q-91 19-139 68t-48 125q0 97 75.5 155.5T904 1091q118 0 193-56.5t79-149.5h-146q-4 40-38.5 63.5T903 972t-87-23-33-61q0-57 99-76l110-22q100-20 147.5-68t47.5-128q0-102-78-161.5T897 373q-128 0-204.5 56.5T613 583zM900 99q128 0 243.5 49T1341 280.5t130 198 48 241.5-48 241.5-130 198-197.5 132.5-243.5 49-243.5-49T459 1159.5t-130-198T281 720t48-241.5 130-198T656.5 148 900 99zm0-151Q743-52 600 9T353.5 173.5 189 420t-61 301q0 157 61 300.5t164.5 247T600 1433t300 61 300-61 246.5-164.5 164.5-247 61-300.5q0-158-61-301t-164.5-246.5T1200 9 900-52z"/><glyph glyph-name="uni24C9" unicode="T○" d="M979 364H821v561H616v132h568V925H979V364zM900 99q128 0 243.5 49T1341 280.5t130 198 48 241.5-48 241.5-130 198-197.5 132.5-243.5 49-243.5-49T459 1159.5t-130-198T281 720t48-241.5 130-198T656.5 148 900 99zm0-151Q743-52 600 9T353.5 173.5 189 420t-61 301q0 157 61 300.5t164.5 247T600 1433t300 61 300-61 246.5-164.5 164.5-247 61-300.5q0-158-61-301t-164.5-246.5T1200 9 900-52z"/><glyph glyph-name="uni24CA" unicode="U○" d="M900 484q65 0 103 35t38 98v440h154V603q0-112-81-181.5T900 352t-214 69.5T605 603v454h154V617q0-63 38-98t103-35zm0-385q128 0 243.5 49T1341 280.5t130 198 48 241.5-48 241.5-130 198-197.5 132.5-243.5 49-243.5-49T459 1159.5t-130-198T281 720t48-241.5 130-198T656.5 148 900 99zm0-151Q743-52 600 9T353.5 173.5 189 420t-61 301q0 157 61 300.5t164.5 247T600 1433t300 61 300-61 246.5-164.5 164.5-247 61-300.5q0-158-61-301t-164.5-246.5T1200 9 900-52z"/><glyph glyph-name="uni24CB" unicode="V○" d="m802 362-236 693h176l154-530h8l154 530h176L998 362H802zm98-263q128 0 243.5 49T1341 280.5t130 198 48 241.5-48 241.5-130 198-197.5 132.5-243.5 49-243.5-49T459 1159.5t-130-198T281 720t48-241.5 130-198T656.5 148 900 99zm0-151Q743-52 600 9T353.5 173.5 189 420t-61 301q0 157 61 300.5t164.5 247T600 1433t300 61 300-61 246.5-164.5 164.5-247 61-300.5q0-158-61-301t-164.5-246.5T1200 9 900-52z"/><glyph glyph-name="uni24CC" unicode="W○" d="M898 831 770 364H634l-184 693h156l104-494h7l122 494h122l122-494h7l104 494h156l-183-693h-137L902 831h-4zm2-732q128 0 243.5 49T1341 280.5t130 198 48 241.5-48 241.5-130 198-197.5 132.5-243.5 49-243.5-49T459 1159.5t-130-198T281 720t48-241.5 130-198T656.5 148 900 99zm0-151Q743-52 600 9T353.5 173.5 189 420t-61 301q0 157 61 300.5t164.5 247T600 1433t300 61 300-61 246.5-164.5 164.5-247 61-300.5q0-158-61-301t-164.5-246.5T1200 9 900-52z"/><glyph glyph-name="uni24CD" unicode="X○" d="M1221 1078 994 731l225-346h-174L899 625h-7L744 385H575l225 349-223 344h179l144-241h7l144 241h170zM900 99q128 0 243.5 49T1341 280.5t130 198 48 241.5-48 241.5-130 198-197.5 132.5-243.5 49-243.5-49T459 1159.5t-130-198T281 720t48-241.5 130-198T656.5 148 900 99zm0-151Q743-52 600 9T353.5 173.5 189 420t-61 301q0 157 61 300.5t164.5 247T600 1433t300 61 300-61 246.5-164.5 164.5-247 61-300.5q0-158-61-301t-164.5-246.5T1200 9 900-52z"/><glyph glyph-name="uni24CE" unicode="Y○" d="M980 376H821v251l-241 441h172l146-287h6l147 287h169L980 629V376zM900 99q128 0 243.5 49T1341 280.5t130 198 48 241.5-48 241.5-130 198-197.5 132.5-243.5 49-243.5-49T459 1159.5t-130-198T281 720t48-241.5 130-198T656.5 148 900 99zm0-151Q743-52 600 9T353.5 173.5 189 420t-61 301q0 157 61 300.5t164.5 247T600 1433t300 61 300-61 246.5-164.5 164.5-247 61-300.5q0-158-61-301t-164.5-246.5T1200 9 900-52z"/><glyph glyph-name="uni24CF" unicode="Z○" d="M632 385v104l338 452v8H639v129h521V974L822 523v-9h348V385H632zM900 99q128 0 243.5 49T1341 280.5t130 198 48 241.5-48 241.5-130 198-197.5 132.5-243.5 49-243.5-49T459 1159.5t-130-198T281 720t48-241.5 130-198T656.5 148 900 99zm0-151Q743-52 600 9T353.5 173.5 189 420t-61 301q0 157 61 300.5t164.5 247T600 1433t300 61 300-61 246.5-164.5 164.5-247 61-300.5q0-158-61-301t-164.5-246.5T1200 9 900-52z"/><glyph glyph-name="uni24EA" unicode="0○" d="M900 505q60 0 94.5 58t34.5 168q0 111-34.5 169T900 958t-94.5-58T771 731q0-110 34.5-168t94.5-58zm-1-132q-124 0-200 95.5T623 731t76 262.5 200 95.5q125 0 201.5-95.5T1177 731t-76.5-262.5T899 373zm1-274q128 0 243.5 49T1341 280.5t130 198 48 241.5-48 241.5-130 198-197.5 132.5-243.5 49-243.5-49T459 1159.5t-130-198T281 720t48-241.5 130-198T656.5 148 900 99zm0-151Q743-52 600 9T353.5 173.5 189 420t-61 301q0 157 61 300.5t164.5 247T600 1433t300 61 300-61 246.5-164.5 164.5-247 61-300.5q0-158-61-301t-164.5-246.5T1200 9 900-52z"/><glyph glyph-name="uni1F130" unicode="A□" d="M808 673h184l-86 266h-12zm-83-280H569l240 692h182l240-692h-156l-53 163H778zM415 1467h970q108 0 183.5-74.5T1644 1212V232q0-106-75.5-180.5T1385-23H415q-107 0-183 74.5T156 232v980q0 106 76 180.5t183 74.5zm1082-274q0 55-41 94.5t-99 39.5H443q-57 0-98.5-39.5T303 1193V251q0-55 41.5-94.5T443 117h914q57 0 98.5 39.5T1497 251v942z"/><glyph glyph-name="uni1F131" unicode="B□" d="M651 385v693h312q98 0 155.5-46t57.5-125q0-59-34.5-98.5T1050 756v-6q73-9 117.5-53.5T1212 579q0-89-68.5-141.5T964 385H651zm150 582V793h91q135 0 135 89 0 39-27.5 62T924 967H801zm0-274V500h102q81 0 117.5 23t36.5 71q0 46-33 72.5T932 693H801zm-386 774h970q108 0 183.5-74.5T1644 1212V232q0-106-75.5-180.5T1385-23H415q-107 0-183 74.5T156 232v980q0 106 76 180.5t183 74.5zm1082-274q0 55-41 94.5t-99 39.5H443q-57 0-98.5-39.5T303 1193V251q0-55 41.5-94.5T443 117h914q57 0 98.5 39.5T1497 251v942z"/><glyph glyph-name="uni1F132" unicode="C□" d="M1054 619h152q-14-111-97.5-178.5T899 373q-147 0-238 98t-91 260 91 260.5 238 98.5q129 0 212.5-69.5T1207 837h-149q-7 53-51 87.5T901 959q-80 0-128-62t-48-166 48-165.5T901 504q60 0 103 32.5t50 82.5zm-639 848h970q108 0 183.5-74.5T1644 1212V232q0-106-75.5-180.5T1385-23H415q-107 0-183 74.5T156 232v980q0 106 76 180.5t183 74.5zm1082-274q0 55-41 94.5t-99 39.5H443q-57 0-98.5-39.5T303 1193V251q0-55 41.5-94.5T443 117h914q57 0 98.5 39.5T1497 251v942z"/><glyph glyph-name="uni1F133" unicode="D□" d="M628 1078h271q160 0 241.5-88.5T1222 733t-81.5-258T899 385H628v693zm152-126V512h97q96 0 141.5 54t45.5 165q0 112-46 166.5T877 952h-97zm-365 515h970q108 0 183.5-74.5T1644 1212V232q0-106-75.5-180.5T1385-23H415q-107 0-183 74.5T156 232v980q0 106 76 180.5t183 74.5zm1082-274q0 55-41 94.5t-99 39.5H443q-57 0-98.5-39.5T303 1193V251q0-55 41.5-94.5T443 117h914q57 0 98.5 39.5T1497 251v942z"/><glyph glyph-name="uni1F134" unicode="E□" d="M1143 511V385H671v693h472V953H822V792h302V678H822V511h321zm-728 956h970q108 0 183.5-74.5T1644 1212V232q0-106-75.5-180.5T1385-23H415q-107 0-183 74.5T156 232v980q0 106 76 180.5t183 74.5zm1082-274q0 55-41 94.5t-99 39.5H443q-57 0-98.5-39.5T303 1193V251q0-55 41.5-94.5T443 117h914q57 0 98.5 39.5T1497 251v942z"/><glyph glyph-name="uni1F135" unicode="F□" d="M852 385H697v693h468V951H852V778h286V652H852V385zM415 1467h970q108 0 183.5-74.5T1644 1212V232q0-106-75.5-180.5T1385-23H415q-107 0-183 74.5T156 232v980q0 106 76 180.5t183 74.5zm1082-274q0 55-41 94.5t-99 39.5H443q-57 0-98.5-39.5T303 1193V251q0-55 41.5-94.5T443 117h914q57 0 98.5 39.5T1497 251v942z"/><glyph glyph-name="uni1F136" unicode="G□" d="M1057 608v44H909v108h293V639q0-119-79.5-192.5T900 373q-148 0-239 99t-91 259q0 161 91 260t239 99q124 0 208.5-65t97.5-172h-151q-7 49-50 80t-102 31q-81 0-129.5-63.5T725 731t48.5-170T903 497q73 0 113.5 30.5T1057 608zm-642 859h970q108 0 183.5-74.5T1644 1212V232q0-106-75.5-180.5T1385-23H415q-107 0-183 74.5T156 232v980q0 106 76 180.5t183 74.5zm1082-274q0 55-41 94.5t-99 39.5H443q-57 0-98.5-39.5T303 1193V251q0-55 41.5-94.5T443 117h914q57 0 98.5 39.5T1497 251v942z"/><glyph glyph-name="uni1F137" unicode="H□" d="M1198 385h-151v287H754V385H603v693h151V802h293v276h151V385zM415 1467h970q108 0 183.5-74.5T1644 1212V232q0-106-75.5-180.5T1385-23H415q-107 0-183 74.5T156 232v980q0 106 76 180.5t183 74.5zm1082-274q0 55-41 94.5t-99 39.5H443q-57 0-98.5-39.5T303 1193V251q0-55 41.5-94.5T443 117h914q57 0 98.5 39.5T1497 251v942z"/><glyph glyph-name="uni1F138" unicode="I□" d="M981 385H819v693h162V385zM415 1467h970q108 0 183.5-74.5T1644 1212V232q0-106-75.5-180.5T1385-23H415q-107 0-183 74.5T156 232v980q0 106 76 180.5t183 74.5zm1082-274q0 55-41 94.5t-99 39.5H443q-57 0-98.5-39.5T303 1193V251q0-55 41.5-94.5T443 117h914q57 0 98.5 39.5T1497 251v942z"/><glyph glyph-name="uni1F139" unicode="J□" d="M624 596h150q1-40 25.5-63.5T865 509q95 0 95 104v460h155V614q0-117-66-181.5T867 368q-114 0-178.5 63.5T624 596zm-209 871h970q108 0 183.5-74.5T1644 1212V232q0-106-75.5-180.5T1385-23H415q-107 0-183 74.5T156 232v980q0 106 76 180.5t183 74.5zm1082-274q0 55-41 94.5t-99 39.5H443q-57 0-98.5-39.5T303 1193V251q0-55 41.5-94.5T443 117h914q57 0 98.5 39.5T1497 251v942z"/><glyph glyph-name="uni1F13A" unicode="K□" d="M1222 1078 971 773l260-388h-182L856 672l-73-80V385H635v693h148V780h8l261 298h170zm-807 389h970q108 0 183.5-74.5T1644 1212V232q0-106-75.5-180.5T1385-23H415q-107 0-183 74.5T156 232v980q0 106 76 180.5t183 74.5zm1082-274q0 55-41 94.5t-99 39.5H443q-57 0-98.5-39.5T303 1193V251q0-55 41.5-94.5T443 117h914q57 0 98.5 39.5T1497 251v942z"/><glyph glyph-name="uni1F13B" unicode="L□" d="M1181 525V390H720v693h157V525h304zm-766 942h970q108 0 183.5-74.5T1644 1212V232q0-106-75.5-180.5T1385-23H415q-107 0-183 74.5T156 232v980q0 106 76 180.5t183 74.5zm1082-274q0 55-41 94.5t-99 39.5H443q-57 0-98.5-39.5T303 1193V251q0-55 41.5-94.5T443 117h914q57 0 98.5 39.5T1497 251v942z"/><glyph glyph-name="uni1F13C" unicode="M□" d="M679 385H549v693h153l197-496h4l197 496h151V385h-129v450h-10L947 414h-93L688 835h-9V385zM415 1467h970q108 0 183.5-74.5T1644 1212V232q0-106-75.5-180.5T1385-23H415q-107 0-183 74.5T156 232v980q0 106 76 180.5t183 74.5zm1082-274q0 55-41 94.5t-99 39.5H443q-57 0-98.5-39.5T303 1193V251q0-55 41.5-94.5T443 117h914q57 0 98.5 39.5T1497 251v942z"/><glyph glyph-name="uni1F13D" unicode="N□" d="M749 385H608v693h123l311-437h9v437h141V385h-123L757 826h-8V385zM415 1467h970q108 0 183.5-74.5T1644 1212V232q0-106-75.5-180.5T1385-23H415q-107 0-183 74.5T156 232v980q0 106 76 180.5t183 74.5zm1082-274q0 55-41 94.5t-99 39.5H443q-57 0-98.5-39.5T303 1193V251q0-55 41.5-94.5T443 117h914q57 0 98.5 39.5T1497 251v942z"/><glyph glyph-name="uni1F13E" unicode="O□" d="M900 504q76 0 125.5 59.5T1075 731t-49.5 168T900 959t-125.5-60T725 731t49.5-167.5T900 504zm0-131q-143 0-237 95.5T569 731t94 263 237 96 237-96 94-263-94-262.5T900 373zM415 1467h970q108 0 183.5-74.5T1644 1212V232q0-106-75.5-180.5T1385-23H415q-107 0-183 74.5T156 232v980q0 106 76 180.5t183 74.5zm1082-274q0 55-41 94.5t-99 39.5H443q-57 0-98.5-39.5T303 1193V251q0-55 41.5-94.5T443 117h914q57 0 98.5 39.5T1497 251v942z"/><glyph glyph-name="uni1F13F" unicode="P□" d="M966 1078q114 0 180.5-66t66.5-172-67-171-182-65H826V385H671v693h295zm92-238q0 55-31 84.5T939 954H822V726h117q57 0 88 29.5t31 84.5zm-643 627h970q108 0 183.5-74.5T1644 1212V232q0-106-75.5-180.5T1385-23H415q-107 0-183 74.5T156 232v980q0 106 76 180.5t183 74.5zm1082-274q0 55-41 94.5t-99 39.5H443q-57 0-98.5-39.5T303 1193V251q0-55 41.5-94.5T443 117h914q57 0 98.5 39.5T1497 251v942z"/><glyph glyph-name="uni1F140" unicode="Q□" d="M1207 320h-150l-49 69q-54-16-108-16-143 0-237 95.5T569 731t94 263 237 96 237-96 94-263q0-181-117-282zM900 504q22 0 42 6l-73 106h120l36-45q50 60 50 160 0 108-49.5 168T900 959t-125.5-60T725 731t49.5-167.5T900 504zm-485 963h970q108 0 183.5-74.5T1644 1212V232q0-106-75.5-180.5T1385-23H415q-107 0-183 74.5T156 232v980q0 106 76 180.5t183 74.5zm1082-274q0 55-41 94.5t-99 39.5H443q-57 0-98.5-39.5T303 1193V251q0-55 41.5-94.5T443 117h914q57 0 98.5 39.5T1497 251v942z"/><glyph glyph-name="uni1F141" unicode="R□" d="M935 1078q121 0 189.5-59t68.5-161q0-70-37.5-121t-96.5-72l147-280h-168L914 638H790V385H642v693h293zM790 750h122q58 0 91 26t33 75q0 51-32.5 78.5T915 957H790V750zm-375 717h970q108 0 183.5-74.5T1644 1212V232q0-106-75.5-180.5T1385-23H415q-107 0-183 74.5T156 232v980q0 106 76 180.5t183 74.5zm1082-274q0 55-41 94.5t-99 39.5H443q-57 0-98.5-39.5T303 1193V251q0-55 41.5-94.5T443 117h914q57 0 98.5 39.5T1497 251v942z"/><glyph glyph-name="uni1F142" unicode="S□" d="M613 583h150q5-41 43.5-65.5T905 493t96 23.5 36 63.5q0 32-26 51t-87 32l-107 21q-91 19-139 68t-48 125q0 97 75.5 155.5T904 1091q118 0 193-56.5t79-149.5h-146q-4 40-38.5 63.5T903 972t-87-23-33-61q0-57 99-76l110-22q100-20 147.5-68t47.5-128q0-102-78-161.5T897 373q-128 0-204.5 56.5T613 583zm-198 884h970q108 0 183.5-74.5T1644 1212V232q0-106-75.5-180.5T1385-23H415q-107 0-183 74.5T156 232v980q0 106 76 180.5t183 74.5zm1082-274q0 55-41 94.5t-99 39.5H443q-57 0-98.5-39.5T303 1193V251q0-55 41.5-94.5T443 117h914q57 0 98.5 39.5T1497 251v942z"/><glyph glyph-name="uni1F143" unicode="T□" d="M979 379H821v561H616v132h568V940H979V379zM415 1467h970q108 0 183.5-74.5T1644 1212V232q0-106-75.5-180.5T1385-23H415q-107 0-183 74.5T156 232v980q0 106 76 180.5t183 74.5zm1082-274q0 55-41 94.5t-99 39.5H443q-57 0-98.5-39.5T303 1193V251q0-55 41.5-94.5T443 117h914q57 0 98.5 39.5T1497 251v942z"/><glyph glyph-name="uni1F144" unicode="U□" d="M900 499q64 0 102.5 35.5T1041 632v440h154V618q0-112-81-181.5T900 367t-214 69.5T605 618v454h154V632q0-62 38.5-97.5T900 499zm-485 968h970q108 0 183.5-74.5T1644 1212V232q0-106-75.5-180.5T1385-23H415q-107 0-183 74.5T156 232v980q0 106 76 180.5t183 74.5zm1082-274q0 55-41 94.5t-99 39.5H443q-57 0-98.5-39.5T303 1193V251q0-55 41.5-94.5T443 117h914q57 0 98.5 39.5T1497 251v942z"/><glyph glyph-name="uni1F145" unicode="V□" d="m802 377-236 693h176l154-530h8l154 530h176L998 377H802zM415 1467h970q108 0 183.5-74.5T1644 1212V232q0-106-75.5-180.5T1385-23H415q-107 0-183 74.5T156 232v980q0 106 76 180.5t183 74.5zm1082-274q0 55-41 94.5t-99 39.5H443q-57 0-98.5-39.5T303 1193V251q0-55 41.5-94.5T443 117h914q57 0 98.5 39.5T1497 251v942z"/><glyph glyph-name="uni1F146" unicode="W□" d="M898 847 770 379H634l-184 693h156l104-493h7l122 493h122l122-493h7l104 493h156l-183-693h-137L902 847h-4zm-483 620h970q108 0 183.5-74.5T1644 1212V232q0-106-75.5-180.5T1385-23H415q-107 0-183 74.5T156 232v980q0 106 76 180.5t183 74.5zm1082-274q0 55-41 94.5t-99 39.5H443q-57 0-98.5-39.5T303 1193V251q0-55 41.5-94.5T443 117h914q57 0 98.5 39.5T1497 251v942z"/><glyph glyph-name="uni1F147" unicode="X□" d="M1221 1078 994 731l225-346h-174L899 625h-7L744 385H575l225 349-223 344h179l144-241h7l144 241h170zm-806 389h970q108 0 183.5-74.5T1644 1212V232q0-106-75.5-180.5T1385-23H415q-107 0-183 74.5T156 232v980q0 106 76 180.5t183 74.5zm1082-274q0 55-41 94.5t-99 39.5H443q-57 0-98.5-39.5T303 1193V251q0-55 41.5-94.5T443 117h914q57 0 98.5 39.5T1497 251v942z"/><glyph glyph-name="uni1F148" unicode="Y□" d="M980 379H821v252l-241 441h172l146-287h6l147 287h169L980 633V379zM415 1467h970q108 0 183.5-74.5T1644 1212V232q0-106-75.5-180.5T1385-23H415q-107 0-183 74.5T156 232v980q0 106 76 180.5t183 74.5zm1082-274q0 55-41 94.5t-99 39.5H443q-57 0-98.5-39.5T303 1193V251q0-55 41.5-94.5T443 117h914q57 0 98.5 39.5T1497 251v942z"/><glyph glyph-name="uni1F149" unicode="Z□" d="M632 385v104l338 452v8H639v129h521V974L822 523v-9h348V385H632zM415 1467h970q108 0 183.5-74.5T1644 1212V232q0-106-75.5-180.5T1385-23H415q-107 0-183 74.5T156 232v980q0 106 76 180.5t183 74.5zm1082-274q0 55-41 94.5t-99 39.5H443q-57 0-98.5-39.5T303 1193V251q0-55 41.5-94.5T443 117h914q57 0 98.5 39.5T1497 251v942z"/><glyph glyph-name="plus.uc.whitecircle" unicode="+○" d="M966 664V450H834v214H625v132h209v208h132V796h209V664H966zM900 99q128 0 243.5 49T1341 280.5t130 198 48 241.5-48 241.5-130 198-197.5 132.5-243.5 49-243.5-49T459 1159.5t-130-198T281 720t48-241.5 130-198T656.5 148 900 99zm0-151Q743-52 600 9T353.5 173.5 189 420t-61 301q0 157 61 300.5t164.5 247T600 1433t300 61 300-61 246.5-164.5 164.5-247 61-300.5q0-158-61-301t-164.5-246.5T1200 9 900-52z"/><glyph glyph-name="minus.uc.whitecircle" unicode="−○" d="M1159 659H641v136h518V659zM900 99q128 0 243.5 49T1341 280.5t130 198 48 241.5-48 241.5-130 198-197.5 132.5-243.5 49-243.5-49T459 1159.5t-130-198T281 720t48-241.5 130-198T656.5 148 900 99zm0-151Q743-52 600 9T353.5 173.5 189 420t-61 301q0 157 61 300.5t164.5 247T600 1433t300 61 300-61 246.5-164.5 164.5-247 61-300.5q0-158-61-301t-164.5-246.5T1200 9 900-52z"/><glyph glyph-name="multiply.uc.whitecircle" unicode="×○" d="m900 823 161 156 94-96-161-156 161-156-94-95-161 156-162-156-93 95 162 156-162 156 93 96zm0-724q128 0 243.5 49T1341 280.5t130 198 48 241.5-48 241.5-130 198-197.5 132.5-243.5 49-243.5-49T459 1159.5t-130-198T281 720t48-241.5 130-198T656.5 148 900 99zm0-151Q743-52 600 9T353.5 173.5 189 420t-61 301q0 157 61 300.5t164.5 247T600 1433t300 61 300-61 246.5-164.5 164.5-247 61-300.5q0-158-61-301t-164.5-246.5T1200 9 900-52z"/><glyph glyph-name="divide.uc.whitecircle" unicode="÷○" d="M1159 671H641v112h518V671zM814 941q0 36 24.5 58.5T899 1022q38 0 63-22.5t25-58.5q0-34-25-57t-63-23q-36 0-60.5 23T814 941zm0-425q0 36 24.5 59t61.5 23q38 0 62.5-23t24.5-59q0-34-24.5-56.5T900 437q-37 0-61.5 22.5T814 516zm86-417q128 0 243.5 49T1341 280.5t130 198 48 241.5-48 241.5-130 198-197.5 132.5-243.5 49-243.5-49T459 1159.5t-130-198T281 720t48-241.5 130-198T656.5 148 900 99zm0-151Q743-52 600 9T353.5 173.5 189 420t-61 301q0 157 61 300.5t164.5 247T600 1433t300 61 300-61 246.5-164.5 164.5-247 61-300.5q0-158-61-301t-164.5-246.5T1200 9 900-52z"/><glyph glyph-name="equal.uc.whitecircle" unicode="=○" d="M1152 544H648v121h504V544zm0 244H648v122h504V788zM900 99q128 0 243.5 49T1341 280.5t130 198 48 241.5-48 241.5-130 198-197.5 132.5-243.5 49-243.5-49T459 1159.5t-130-198T281 720t48-241.5 130-198T656.5 148 900 99zm0-151Q743-52 600 9T353.5 173.5 189 420t-61 301q0 157 61 300.5t164.5 247T600 1433t300 61 300-61 246.5-164.5 164.5-247 61-300.5q0-158-61-301t-164.5-246.5T1200 9 900-52z"/><glyph glyph-name="greater.uc.whitecircle" unicode="&gt;○" d="M1174 770v-96L677 425v151l318 146v6L677 876v154zM900 99q128 0 243.5 49T1341 280.5t130 198 48 241.5-48 241.5-130 198-197.5 132.5-243.5 49-243.5-49T459 1159.5t-130-198T281 720t48-241.5 130-198T656.5 148 900 99zm0-151Q743-52 600 9T353.5 173.5 189 420t-61 301q0 157 61 300.5t164.5 247T600 1433t300 61 300-61 246.5-164.5 164.5-247 61-300.5q0-158-61-301t-164.5-246.5T1200 9 900-52z"/><glyph glyph-name="less.uc.whitecircle" unicode="&lt;○" d="M627 674v96l496 260V876L804 728v-6l319-146V425zM900 99q128 0 243.5 49T1341 280.5t130 198 48 241.5-48 241.5-130 198-197.5 132.5-243.5 49-243.5-49T459 1159.5t-130-198T281 720t48-241.5 130-198T656.5 148 900 99zm0-151Q743-52 600 9T353.5 173.5 189 420t-61 301q0 157 61 300.5t164.5 247T600 1433t300 61 300-61 246.5-164.5 164.5-247 61-300.5q0-158-61-301t-164.5-246.5T1200 9 900-52z"/><glyph glyph-name="numbersign.whitecircle" unicode="#○" d="M1190 791h-108l-26-119h104l-22-109h-104l-38-181H883l39 181H804l-38-181H654l38 181H590l21 109h102l27 119H640l21 109h101l36 174h112l-36-174h116l37 174h112l-36-174h107zm-344 7-31-140h135l30 140H846zm54-699q128 0 243.5 49T1341 280.5t130 198 48 241.5-48 241.5-130 198-197.5 132.5-243.5 49-243.5-49T459 1159.5t-130-198T281 720t48-241.5 130-198T656.5 148 900 99zm0-151Q743-52 600 9T353.5 173.5 189 420t-61 301q0 157 61 300.5t164.5 247T600 1433t300 61 300-61 246.5-164.5 164.5-247 61-300.5q0-158-61-301t-164.5-246.5T1200 9 900-52z"/><glyph glyph-name="uni25BC.whitecircle" unicode="▼○" d="M1219 946 900 391 582 946h637zM900 99q128 0 243.5 49T1341 280.5t130 198 48 241.5-48 241.5-130 198-197.5 132.5-243.5 49-243.5-49T459 1159.5t-130-198T281 720t48-241.5 130-198T656.5 148 900 99zm0-151Q743-52 600 9T353.5 173.5 189 420t-61 301q0 157 61 300.5t164.5 247T600 1433t300 61 300-61 246.5-164.5 164.5-247 61-300.5q0-158-61-301t-164.5-246.5T1200 9 900-52z"/><glyph glyph-name="uni25B2.whitecircle" unicode="▲○" d="M1219 509H582l318 555zM900 99q128 0 243.5 49T1341 280.5t130 198 48 241.5-48 241.5-130 198-197.5 132.5-243.5 49-243.5-49T459 1159.5t-130-198T281 720t48-241.5 130-198T656.5 148 900 99zm0-151Q743-52 600 9T353.5 173.5 189 420t-61 301q0 157 61 300.5t164.5 247T600 1433t300 61 300-61 246.5-164.5 164.5-247 61-300.5q0-158-61-301t-164.5-246.5T1200 9 900-52z"/><glyph glyph-name="uni25C0.whitecircle" unicode="◀○" d="M1117 408 565 729l552 319V408zM900 99q128 0 243.5 49T1341 280.5t130 198 48 241.5-48 241.5-130 198-197.5 132.5-243.5 49-243.5-49T459 1159.5t-130-198T281 720t48-241.5 130-198T656.5 148 900 99zm0-151Q743-52 600 9T353.5 173.5 189 420t-61 301q0 157 61 300.5t164.5 247T600 1433t300 61 300-61 246.5-164.5 164.5-247 61-300.5q0-158-61-301t-164.5-246.5T1200 9 900-52z"/><glyph glyph-name="uni25B6.whitecircle" unicode="▶○" d="M683 408v640l552-319zM900 99q128 0 243.5 49T1341 280.5t130 198 48 241.5-48 241.5-130 198-197.5 132.5-243.5 49-243.5-49T459 1159.5t-130-198T281 720t48-241.5 130-198T656.5 148 900 99zm0-151Q743-52 600 9T353.5 173.5 189 420t-61 301q0 157 61 300.5t164.5 247T600 1433t300 61 300-61 246.5-164.5 164.5-247 61-300.5q0-158-61-301t-164.5-246.5T1200 9 900-52z"/><glyph glyph-name="question.whitecircle" unicode="?○" d="M790 457q0 38 27 60.5t71 22.5q45 0 72-22.5t27-60.5q0-36-27-59t-72-23q-43 0-70.5 23T790 457zm25 149q0 1-.5 15.5T814 638q-4 91 93 156 46 32 64 51.5t18 49.5q0 37-26.5 56.5T897 971q-45 0-70.5-25.5T801 881H662q-2 105 68 157t176 52q102 0 169-50t67-139q0-57-26.5-93t-76.5-70q-56-39-72.5-58T950 626v-20H815zm85-507q128 0 243.5 49T1341 280.5t130 198 48 241.5-48 241.5-130 198-197.5 132.5-243.5 49-243.5-49T459 1159.5t-130-198T281 720t48-241.5 130-198T656.5 148 900 99zm0-151Q743-52 600 9T353.5 173.5 189 420t-61 301q0 157 61 300.5t164.5 247T600 1433t300 61 300-61 246.5-164.5 164.5-247 61-300.5q0-158-61-301t-164.5-246.5T1200 9 900-52z"/><glyph glyph-name="exclam.whitecircle" unicode="!○" d="M803 457q0 38 27 61t71 23q45 0 71.5-23t26.5-61q0-36-26.5-59T901 375q-44 0-71 23t-27 59zm15 621h167l-18-455H836zm82-979q128 0 243.5 49T1341 280.5t130 198 48 241.5-48 241.5-130 198-197.5 132.5-243.5 49-243.5-49T459 1159.5t-130-198T281 720t48-241.5 130-198T656.5 148 900 99zm0-151Q743-52 600 9T353.5 173.5 189 420t-61 301q0 157 61 300.5t164.5 247T600 1433t300 61 300-61 246.5-164.5 164.5-247 61-300.5q0-158-61-301t-164.5-246.5T1200 9 900-52z"/><glyph glyph-name="uni2717.whitecircle" unicode="✗○" d="m904 824 247 242 95-99-246-243 246-243-95-101-247 242-247-242-96 100 246 244-247 243 95 100zm-4-725q128 0 243.5 49T1341 280.5t130 198 48 241.5-48 241.5-130 198-197.5 132.5-243.5 49-243.5-49T459 1159.5t-130-198T281 720t48-241.5 130-198T656.5 148 900 99zm0-151Q743-52 600 9T353.5 173.5 189 420t-61 301q0 157 61 300.5t164.5 247T600 1433t300 61 300-61 246.5-164.5 164.5-247 61-300.5q0-158-61-301t-164.5-246.5T1200 9 900-52z"/><glyph glyph-name="uni2713.whitecircle" unicode="✓○" d="M1325 931 780 392 484 687l101 104 195-193 445 440zM900 99q128 0 243.5 49T1341 280.5t130 198 48 241.5-48 241.5-130 198-197.5 132.5-243.5 49-243.5-49T459 1159.5t-130-198T281 720t48-241.5 130-198T656.5 148 900 99zm0-151Q743-52 600 9T353.5 173.5 189 420t-61 301q0 157 61 300.5t164.5 247T600 1433t300 61 300-61 246.5-164.5 164.5-247 61-300.5q0-158-61-301t-164.5-246.5T1200 9 900-52z"/><glyph glyph-name="zero.whitesquare" unicode="0□" d="M900 505q60 0 94.5 58t34.5 168q0 111-34.5 169T900 958t-94.5-58T771 731q0-110 34.5-168t94.5-58zm-1-132q-124 0-200 95.5T623 731t76 262.5 200 95.5q125 0 201.5-95.5T1177 731t-76.5-262.5T899 373zM415 1467h970q108 0 183.5-74.5T1644 1212V232q0-106-75.5-180.5T1385-23H415q-107 0-183 74.5T156 232v980q0 106 76 180.5t183 74.5zm1082-274q0 55-41 94.5t-99 39.5H443q-57 0-98.5-39.5T303 1193V251q0-55 41.5-94.5T443 117h914q57 0 98.5 39.5T1497 251v942z"/><glyph glyph-name="one.whitesquare" unicode="1□" d="M1020 385H865v545h-8L694 819v143l171 116h155V385zM415 1467h970q108 0 183.5-74.5T1644 1212V232q0-106-75.5-180.5T1385-23H415q-107 0-183 74.5T156 232v980q0 106 76 180.5t183 74.5zm1082-274q0 55-41 94.5t-99 39.5H443q-57 0-98.5-39.5T303 1193V251q0-55 41.5-94.5T443 117h914q57 0 98.5 39.5T1497 251v942z"/><glyph glyph-name="two.whitesquare" unicode="2□" d="M794 864H648v4q0 94 66.5 158t186.5 64q112 0 180.5-56t68.5-143q0-41-19.5-80.5t-42-66T1022 674L868 520v-7h295V385H655v99l262 260q27 28 40.5 43.5t26.5 41 13 49.5q0 38-28.5 62T897 964q-48 0-75.5-27.5T794 868v-4zm-379 603h970q108 0 183.5-74.5T1644 1212V232q0-106-75.5-180.5T1385-23H415q-107 0-183 74.5T156 232v980q0 106 76 180.5t183 74.5zm1082-274q0 55-41 94.5t-99 39.5H443q-57 0-98.5-39.5T303 1193V251q0-55 41.5-94.5T443 117h914q57 0 98.5 39.5T1497 251v942z"/><glyph glyph-name="three.whitesquare" unicode="3□" d="M822 680v120h74q46 0 76 25t30 63q-1 37-30.5 60T896 971q-47 0-77-24t-32-59H643q3 91 70 146t186 56q114 0 183-50.5t71-131.5q1-62-42-104.5t-92-50.5v-8q59-6 106.5-49t48.5-116q1-95-77.5-151T896 373q-120 0-191.5 57T631 576h142q4-36 38-59t85-23q56 0 90.5 26t34.5 68q-1 41-34 66.5T899 680h-77zm-407 787h970q108 0 183.5-74.5T1644 1212V232q0-106-75.5-180.5T1385-23H415q-107 0-183 74.5T156 232v980q0 106 76 180.5t183 74.5zm1082-274q0 55-41 94.5t-99 39.5H443q-57 0-98.5-39.5T303 1193V251q0-55 41.5-94.5T443 117h914q57 0 98.5 39.5T1497 251v942z"/><glyph glyph-name="four.whitesquare" unicode="4□" d="M873 1078h218V633h93V509h-93V385H952v124H603v126q29 52 65.5 113.5T732 853t72.5 116 68.5 109zM742 633h210v329h-9Q792 725 742 636v-3zm-327 834h970q108 0 183.5-74.5T1644 1212V232q0-106-75.5-180.5T1385-23H415q-107 0-183 74.5T156 232v980q0 106 76 180.5t183 74.5zm1082-274q0 55-41 94.5t-99 39.5H443q-57 0-98.5-39.5T303 1193V251q0-55 41.5-94.5T443 117h914q57 0 98.5 39.5T1497 251v942z"/><glyph glyph-name="five.whitesquare" unicode="5□" d="M644 575h144q8-37 42-57t79-20q50 0 86.5 33t36.5 88q0 50-36 81.5T908 732q-41 0-70-17.5T796 673H659l30 408h451V959H811l-16-174h8q14 24 53.5 43t94.5 19q99 0 165-60.5t66-163.5q0-112-76-180t-201-68q-113 0-185 56.5T644 575zm-229 892h970q108 0 183.5-74.5T1644 1212V232q0-106-75.5-180.5T1385-23H415q-107 0-183 74.5T156 232v980q0 106 76 180.5t183 74.5zm1082-274q0 55-41 94.5t-99 39.5H443q-57 0-98.5-39.5T303 1193V251q0-55 41.5-94.5T443 117h914q57 0 98.5 39.5T1497 251v942z"/><glyph glyph-name="six.whitesquare" unicode="6□" d="M1170 623q0-112-74.5-181T901 373q-121 0-197 70.5T628 628q0 123 97 259 9 15 65.5 89t78.5 102h179Q879 870 860 841q-10-15-25-38l9-2q42 39 115 39 91 0 151-61.5t60-155.5zm-390-8q0-49 34-82t86-33 86 33 34 82q0 50-34 83t-86 33-86-33-34-83zm-365 852h970q108 0 183.5-74.5T1644 1212V232q0-106-75.5-180.5T1385-23H415q-107 0-183 74.5T156 232v980q0 106 76 180.5t183 74.5zm1082-274q0 55-41 94.5t-99 39.5H443q-57 0-98.5-39.5T303 1193V251q0-55 41.5-94.5T443 117h914q57 0 98.5 39.5T1497 251v942z"/><glyph glyph-name="seven.whitesquare" unicode="7□" d="M652 1078h509V948L873 385H709l295 558v7H652v128zm-237 389h970q108 0 183.5-74.5T1644 1212V232q0-106-75.5-180.5T1385-23H415q-107 0-183 74.5T156 232v980q0 106 76 180.5t183 74.5zm1082-274q0 55-41 94.5t-99 39.5H443q-57 0-98.5-39.5T303 1193V251q0-55 41.5-94.5T443 117h914q57 0 98.5 39.5T1497 251v942z"/><glyph glyph-name="eight.whitesquare" unicode="8□" d="M900 484q56 0 92.5 29.5T1029 589t-36 75.5-93 29.5-93.5-30-36.5-75q0-46 36.5-75.5T900 484zm0 313q47 0 77.5 26t30.5 66q0 39-30.5 64.5T900 979t-77.5-25.5T792 889q0-40 30.5-66t77.5-26zm-2-424q-129 0-206.5 56T614 578q0 64 42 110.5T767 748v6q-59 18-91.5 57.5T643 906q0 82 71.5 133t185.5 51 185.5-51 71.5-133q0-55-32.5-95t-91.5-57v-6q69-13 111-59.5t42-110.5q0-93-79.5-149T898 373zM415 1467h970q108 0 183.5-74.5T1644 1212V232q0-106-75.5-180.5T1385-23H415q-107 0-183 74.5T156 232v980q0 106 76 180.5t183 74.5zm1082-274q0 55-41 94.5t-99 39.5H443q-57 0-98.5-39.5T303 1193V251q0-55 41.5-94.5T443 117h914q57 0 98.5 39.5T1497 251v942z"/><glyph glyph-name="nine.whitesquare" unicode="9□" d="M629 841q0 111 74.5 180t194.5 69q121 0 196.5-70.5T1170 835q0-123-98-262-8-14-65.5-89.5T930 386H751q152 183 187 234 18 26 26 41l-9 1q-44-39-116-39-91 0-150.5 62T629 841zm390 7q0 50-34 82.5T899 963t-86.5-32.5T778 848t34.5-82.5T899 733t86 32.5 34 82.5zm-604 619h970q108 0 183.5-74.5T1644 1212V232q0-106-75.5-180.5T1385-23H415q-107 0-183 74.5T156 232v980q0 106 76 180.5t183 74.5zm1082-274q0 55-41 94.5t-99 39.5H443q-57 0-98.5-39.5T303 1193V251q0-55 41.5-94.5T443 117h914q57 0 98.5 39.5T1497 251v942z"/><glyph glyph-name="plus.uc.whitesquare" unicode="+□" d="M966 664V450H834v214H625v132h209v208h132V796h209V664H966zm-551 803h970q108 0 183.5-74.5T1644 1212V232q0-106-75.5-180.5T1385-23H415q-107 0-183 74.5T156 232v980q0 106 76 180.5t183 74.5zm1082-274q0 55-41 94.5t-99 39.5H443q-57 0-98.5-39.5T303 1193V251q0-55 41.5-94.5T443 117h914q57 0 98.5 39.5T1497 251v942z"/><glyph glyph-name="minus.uc.whitesquare" unicode="−□" d="M1159 659H641v136h518V659zm-744 808h970q108 0 183.5-74.5T1644 1212V232q0-106-75.5-180.5T1385-23H415q-107 0-183 74.5T156 232v980q0 106 76 180.5t183 74.5zm1082-274q0 55-41 94.5t-99 39.5H443q-57 0-98.5-39.5T303 1193V251q0-55 41.5-94.5T443 117h914q57 0 98.5 39.5T1497 251v942z"/><glyph glyph-name="multiply.uc.whitesquare" unicode="×□" d="m900 823 162 156 93-95-162-156 162-156-93-96-162 156-162-156-93 96 161 156-161 156 93 95zm-485 644h970q108 0 183.5-74.5T1644 1212V232q0-106-75.5-180.5T1385-23H415q-107 0-183 74.5T156 232v980q0 106 76 180.5t183 74.5zm1082-274q0 55-41 94.5t-99 39.5H443q-57 0-98.5-39.5T303 1193V251q0-55 41.5-94.5T443 117h914q57 0 98.5 39.5T1497 251v942z"/><glyph glyph-name="divide.uc.whitesquare" unicode="÷□" d="M1159 671H641v112h518V671zM814 941q0 36 24.5 58.5T899 1022q38 0 63-22.5t25-58.5q0-34-25-57t-63-23q-36 0-60.5 23T814 941zm0-425q0 36 24.5 59t61.5 23q38 0 62.5-23t24.5-59q0-34-24.5-56.5T900 437q-37 0-61.5 22.5T814 516zm-399 951h970q108 0 183.5-74.5T1644 1212V232q0-106-75.5-180.5T1385-23H415q-107 0-183 74.5T156 232v980q0 106 76 180.5t183 74.5zm1082-274q0 55-41 94.5t-99 39.5H443q-57 0-98.5-39.5T303 1193V251q0-55 41.5-94.5T443 117h914q57 0 98.5 39.5T1497 251v942z"/><glyph glyph-name="equal.uc.whitesquare" unicode="=□" d="M1152 544H648v121h504V544zm0 244H648v122h504V788zm-737 679h970q108 0 183.5-74.5T1644 1212V232q0-106-75.5-180.5T1385-23H415q-107 0-183 74.5T156 232v980q0 106 76 180.5t183 74.5zm1082-274q0 55-41 94.5t-99 39.5H443q-57 0-98.5-39.5T303 1193V251q0-55 41.5-94.5T443 117h914q57 0 98.5 39.5T1497 251v942z"/><glyph glyph-name="greater.uc.whitesquare" unicode="&gt;□" d="M1174 770v-96L677 425v151l318 146v6L677 876v154zm-759 697h970q108 0 183.5-74.5T1644 1212V232q0-106-75.5-180.5T1385-23H415q-107 0-183 74.5T156 232v980q0 106 76 180.5t183 74.5zm1082-274q0 55-41 94.5t-99 39.5H443q-57 0-98.5-39.5T303 1193V251q0-55 41.5-94.5T443 117h914q57 0 98.5 39.5T1497 251v942z"/><glyph glyph-name="less.uc.whitesquare" unicode="&lt;□" d="M627 674v96l496 260V876L804 728v-6l319-146V425zm-212 793h970q108 0 183.5-74.5T1644 1212V232q0-106-75.5-180.5T1385-23H415q-107 0-183 74.5T156 232v980q0 106 76 180.5t183 74.5zm1082-274q0 55-41 94.5t-99 39.5H443q-57 0-98.5-39.5T303 1193V251q0-55 41.5-94.5T443 117h914q57 0 98.5 39.5T1497 251v942z"/><glyph glyph-name="numbersign.whitesquare" unicode="#□" d="M1190 791h-108l-26-119h104l-22-109h-104l-38-181H883l39 181H804l-38-181H654l38 181H590l21 109h102l27 119H640l21 109h101l36 174h112l-36-174h116l37 174h112l-36-174h107zm-344 7-31-140h135l30 140H846zm-431 669h970q108 0 183.5-74.5T1644 1212V232q0-106-75.5-180.5T1385-23H415q-107 0-183 74.5T156 232v980q0 106 76 180.5t183 74.5zm1082-274q0 55-41 94.5t-99 39.5H443q-57 0-98.5-39.5T303 1193V251q0-55 41.5-94.5T443 117h914q57 0 98.5 39.5T1497 251v942z"/><glyph glyph-name="uni25BC.whitesquare" unicode="▼□" d="M1220 946 901 391 582 946h638zm-805 521h970q108 0 183.5-74.5T1644 1212V232q0-106-75.5-180.5T1385-23H415q-107 0-183 74.5T156 232v980q0 106 76 180.5t183 74.5zm1082-274q0 55-41 94.5t-99 39.5H443q-57 0-98.5-39.5T303 1193V251q0-55 41.5-94.5T443 117h914q57 0 98.5 39.5T1497 251v942z"/><glyph glyph-name="uni25B2.whitesquare" unicode="▲□" d="M1219 509H582l318 555zm-804 958h970q108 0 183.5-74.5T1644 1212V232q0-106-75.5-180.5T1385-23H415q-107 0-183 74.5T156 232v980q0 106 76 180.5t183 74.5zm1082-274q0 55-41 94.5t-99 39.5H443q-57 0-98.5-39.5T303 1193V251q0-55 41.5-94.5T443 117h914q57 0 98.5 39.5T1497 251v942z"/><glyph glyph-name="uni25C0.whitesquare" unicode="◀□" d="M1117 408 565 729l552 319V408zM415 1467h970q108 0 183.5-74.5T1644 1212V232q0-106-75.5-180.5T1385-23H415q-107 0-183 74.5T156 232v980q0 106 76 180.5t183 74.5zm1082-274q0 55-41 94.5t-99 39.5H443q-57 0-98.5-39.5T303 1193V251q0-55 41.5-94.5T443 117h914q57 0 98.5 39.5T1497 251v942z"/><glyph glyph-name="uni25B6.whitesquare" unicode="▶□" d="M683 408v640l552-319zM415 1467h970q108 0 183.5-74.5T1644 1212V232q0-106-75.5-180.5T1385-23H415q-107 0-183 74.5T156 232v980q0 106 76 180.5t183 74.5zm1082-274q0 55-41 94.5t-99 39.5H443q-57 0-98.5-39.5T303 1193V251q0-55 41.5-94.5T443 117h914q57 0 98.5 39.5T1497 251v942z"/><glyph glyph-name="question.whitesquare" unicode="?□" d="M790 457q0 38 27 60.5t71 22.5q45 0 72-22.5t27-60.5q0-36-27-59t-72-23q-43 0-70.5 23T790 457zM662 881q-2 105 68 157t176 52q102 0 169-50t67-139q0-57-26.5-93t-76.5-70q-56-39-72.5-58T950 626v-20H815q0 1-.5 15.5T814 638q-4 91 93 156 46 32 64 51.5t18 49.5q0 37-26.5 56.5T897 971q-45 0-70.5-25.5T801 881H662zm-247 586h970q108 0 183.5-74.5T1644 1212V232q0-106-75.5-180.5T1385-23H415q-107 0-183 74.5T156 232v980q0 106 76 180.5t183 74.5zm1082-274q0 55-41 94.5t-99 39.5H443q-57 0-98.5-39.5T303 1193V251q0-55 41.5-94.5T443 117h914q57 0 98.5 39.5T1497 251v942z"/><glyph glyph-name="exclam.whitesquare" unicode="!□" d="M803 457q0 38 27 61t71 23q45 0 71.5-23t26.5-61q0-36-26.5-59T901 375q-44 0-71 23t-27 59zm15 621h167l-18-455H836zm-403 389h970q108 0 183.5-74.5T1644 1212V232q0-106-75.5-180.5T1385-23H415q-107 0-183 74.5T156 232v980q0 106 76 180.5t183 74.5zm1082-274q0 55-41 94.5t-99 39.5H443q-57 0-98.5-39.5T303 1193V251q0-55 41.5-94.5T443 117h914q57 0 98.5 39.5T1497 251v942z"/><glyph glyph-name="uni2717.whitesquare" unicode="✗□" d="m904 824 247 242 95-99-246-243 246-243-95-101-247 242-247-242-96 100 246 244-247 243 95 100zm-489 643h970q108 0 183.5-74.5T1644 1212V232q0-106-75.5-180.5T1385-23H415q-107 0-183 74.5T156 232v980q0 106 76 180.5t183 74.5zm1082-274q0 55-41 94.5t-99 39.5H443q-57 0-98.5-39.5T303 1193V251q0-55 41.5-94.5T443 117h914q57 0 98.5 39.5T1497 251v942z"/><glyph glyph-name="uni2713.whitesquare" unicode="✓□" d="M1325 931 780 392 484 687l101 104 195-193 445 440zm-910 536h970q108 0 183.5-74.5T1644 1212V232q0-106-75.5-180.5T1385-23H415q-107 0-183 74.5T156 232v980q0 106 76 180.5t183 74.5zm1082-274q0 55-41 94.5t-99 39.5H443q-57 0-98.5-39.5T303 1193V251q0-55 41.5-94.5T443 117h914q57 0 98.5 39.5T1497 251v942z"/><glyph glyph-name=".notdef" horiz-adv-x="2048" d="M100-494v247h1848v-247H100zm0 439v247h1848V-55H100zm0 440v247h1848V385H100zm0 439v247h1848V824H100zm0 440v247h1848v-247H100zm0 439v247h1848v-247H100z"/><glyph glyph-name=".null" horiz-adv-x="0"/><glyph glyph-name="nonmarkingreturn" horiz-adv-x="0"/><glyph glyph-name="space" horiz-adv-x="560"/><glyph glyph-name="exclam" unicode="!" horiz-adv-x="670" d="M213 1444h243l-20-966H234zM336-23q-70 0-112.5 42T181 129q0 70 42.5 112T336 283q69 0 111-42t42-112q0-68-42-110T336-23z"/><glyph glyph-name="quotedbl" unicode="&quot;" horiz-adv-x="938" d="M362 872H169v571h193V872zm407 0H577v571h192V872z"/><glyph glyph-name="numbersign" unicode="#" horiz-adv-x="1319" d="M1216 882h-214l-64-304h213l-33-178H904L822 0H650l83 400H452L370 0H199l82 400H68l35 178h213l63 304H167l34 177h212l79 384h171l-78-384h280l79 384h172l-80-384h214zm-671 9-66-324h292l67 324H545z"/><glyph glyph-name="dollar" unicode="$" horiz-adv-x="1359" d="M751-136H614V-6Q399 8 273.5 118T147 402h212q8-89 75.5-147.5T614 183v456l-89 23q-168 43-256.5 141.5T180 1048q0 173 115.5 281.5T614 1457v138h137v-138q194-17 312-127t123-277H977q-3 83-65 141.5T751 1265V834l93-21q188-46 278.5-143t90.5-252q0-183-121-293.5T751-5v-131zm249 531q0 86-60.5 139T751 613V181q119 7 184 63t65 151zm-606 671q0-77 56-129t164-74v403q-96-5-158-61.5T394 1066z"/><glyph glyph-name="percent" unicode="%" horiz-adv-x="1643" d="M711 1116q0-158-88.5-257T393 760q-140 0-229 99.5T75 1116q0 158 88.5 257t229.5 99 229.5-99 88.5-257zM393 916q62 0 99 55t37 146q0 93-36.5 146t-99.5 53q-62 0-99-54t-37-145 37-146 99-55zM420 0H201l549 754 480 689h218L890 679zm1148 328q0-158-88.5-257.5T1250-29t-230 99.5T931 328q0 157 89 256t230 99 229.5-99 88.5-256zm-318-201q61 0 98 54.5t37 146.5q0 93-36.5 146t-98.5 53-99-54-37-145 37-146 99-55z"/><glyph glyph-name="ampersand" unicode="&amp;" horiz-adv-x="1481" d="m1192 0-125 132Q978 57 857.5 15T606-27Q385-27 248.5 86T112 382q0 126 68.5 222T392 776q4 2 28 15.5t31 16.5q-99 103-140 179t-41 155q0 142 109.5 236t274.5 94q166 0 273.5-92t107.5-236q0-112-72.5-201T729 769l331-344q62 116 62 333v46h195v-54q0-302-120-475L1454 0h-262zM516 654q-190-99-190-255 0-110 83-177.5T627 154q92 0 178 32t139 86L563 676q-24-10-47-22zm102 234q120 60 170.5 115.5T839 1131q0 77-51 125t-133 48q-80 0-132-49t-52-125q0-55 33-109t114-133z"/><glyph glyph-name="quotesingle" unicode="'" horiz-adv-x="531" d="M362 872H169v571h193V872z"/><glyph glyph-name="parenleft" unicode="(" horiz-adv-x="755" d="M638-277H442Q313-116 242.5 113.5T172 600q0 256 66 454.5T452 1442h189q-109-127-178.5-363T393 600q0-234 58.5-443.5T638-277z"/><glyph glyph-name="parenright" unicode=")" horiz-adv-x="755" d="M116-277Q244-53 302.5 156.5T361 600q0 244-69.5 480T113 1442h191q148-189 213.5-387T583 600q0-256-70.5-485T313-277H116z"/><glyph glyph-name="asterisk" unicode="*" horiz-adv-x="1032" d="M806 808 572 967l21-279H439l21 280-234-160-76 138 258 117-258 121 76 140 235-168-22 287h154l-22-287 235 168 76-140-257-121 257-117z"/><glyph glyph-name="plus" unicode="+" horiz-adv-x="1359" d="M773 484V60H586v424H160v196h426v423h187V680h427V484H773z"/><glyph glyph-name="comma" unicode="," horiz-adv-x="645" d="M321-376H141l89 598h233z"/><glyph glyph-name="hyphen" unicode="‑" horiz-adv-x="975" d="M816 476H160v211h656V476z"/><glyph glyph-name="hyphen" unicode="-" horiz-adv-x="975" d="M816 476H160v211h656V476z"/><glyph glyph-name="period" unicode="." horiz-adv-x="645" d="M323-17q-63 0-105 43t-42 106 42 106 105 43 105-43 42-106-42-106-105-43z"/><glyph glyph-name="slash" unicode="/" horiz-adv-x="733" d="M246-309H54l430 1752h196z"/><glyph glyph-name="zero" unicode="0" horiz-adv-x="1330" d="M666-35q-253 0-393.5 199T132 723q0 357 141 556t393 199q250 0 391-199.5T1198 721q0-359-140-557.5T666-35zm0 196q148 0 227 144.5T972 723q0 270-80 414.5T666 1282t-227-145-81-414q0-272 80-417t228-145z"/><glyph glyph-name="one" unicode="1" horiz-adv-x="989" d="M502 0v1202h-17L123 946v229l380 268h223V0H502z"/><glyph glyph-name="two" unicode="2" horiz-adv-x="1266" d="M144 1026q0 199 136 325.5T629 1478q206 0 341-117t135-295q0-115-67.5-227.5T789 543L468 218v-17h660V0H156v162l488 508q144 150 192 226.5t48 156.5q0 99-75 165t-187 66q-119 0-192.5-71T356 1026v-3H144v3z"/><glyph glyph-name="three" unicode="3" horiz-adv-x="1315" d="M471 648v185h175q116 0 189 64t73 166q0 101-71 161.5T648 1285t-190.5-61-81.5-168H163q11 196 143 309t349 113q201 0 337.5-109.5T1129 1096q0-127-69.5-217T871 762v-17q147-17 232-111.5t85-239.5q0-121-69-219T928.5 21 659-35Q432-35 288.5 82T135 392h215q11-105 94.5-167T659 163q132 0 216 68t84 175q0 112-82 177t-224 65H471z"/><glyph glyph-name="four" unicode="4" horiz-adv-x="1351" d="M820 0v279H116v208q168 307 601 956h319V479h199V279h-199V0H820zM331 488v-14h492v772h-13Q556 878 331 488z"/><glyph glyph-name="five" unicode="5" horiz-adv-x="1300" d="M656-35Q441-35 302 85T153 395h213q13-105 93-169t199-64q135 0 218 82t83 217-83 219.5T661 765q-92 0-165-39T381 617H176l76 826h842v-200H427l-38-423h17q102 131 305 131 206 0 336.5-135.5T1178 467q0-224-144.5-363T656-35z"/><glyph glyph-name="six" unicode="6" horiz-adv-x="1339" d="M689-35q-160 0-281.5 77T215 264q-88 173-88 439 0 367 150.5 571T699 1478q191 0 325-105.5t167-282.5H966q-27 88-99 139t-170 51q-166 0-258.5-143.5T342 732h17q52 104 151.5 161T738 950q206 0 340-136t134-345q0-221-147-362.5T689-35zm-2 197q129 0 216 86t87 214q0 131-84.5 215T688 761q-132 0-218-83.5T384 466q0-129 87-216.5T687 162z"/><glyph glyph-name="seven" unicode="7" horiz-adv-x="1193" d="m217 0 636 1228v16H97v199h983v-203L452 0H217z"/><glyph glyph-name="eight" unicode="8" horiz-adv-x="1349" d="M674-35Q433-35 282.5 82T132 386q0 138 83.5 239T438 754v17q-113 29-180.5 115.5T190 1089q0 171 136 280t348 109 348-109 136-280q0-117-67-203T910 771v-17q139-26 223-126.5t84-240.5q0-187-151-304.5T674-35zm0 186q139 0 226 70.5T987 405t-87 184-226 71-226-71-87-184 87-183.5T674 151zm0 692q118 0 191 62t73 162q0 101-73 164t-191 63-190.5-63-72.5-164q0-100 72.5-162T674 843z"/><glyph glyph-name="nine" unicode="9" horiz-adv-x="1339" d="M641-35Q449-35 315 71T148 354h226q26-88 98-139t171-51q166 0 258.5 143.5T997 712h-17q-52-104-151-161.5T602 493q-206 0-340.5 136T127 974q0 221 146.5 362.5T650 1478q160 0 282-76.5t192-221.5q89-175 89-439 0-367-150.5-571.5T641-35zm10 718q132 0 218 83t86 211q0 130-87 217t-215 87q-129 0-216-86t-87-213q0-131 84-215t217-84z"/><glyph glyph-name="colon" unicode=":" horiz-adv-x="645" d="M323-17q-63 0-105 43t-42 106 42 106 105 43 105-43 42-106-42-106-105-43zm0 755q-63 0-105 43t-42 106q0 64 42 106.5t105 42.5q64 0 105.5-42.5T470 887q0-63-42-106t-105-43z"/><glyph glyph-name="semicolon" unicode=";" horiz-adv-x="645" d="M323 738q-63 0-105 43t-42 106q0 64 42 106.5t105 42.5q64 0 105.5-42.5T470 887q0-63-42-106t-105-43zM300-376H120l90 598h233z"/><glyph glyph-name="less" unicode="&lt;" horiz-adv-x="1359" d="M1133 953 443 603v-17l690-350V0L227 503v183l906 503V953z"/><glyph glyph-name="equal" unicode="=" horiz-adv-x="1359" d="M1195 270H164v197h1031V270zm0 428H164v197h1031V698z"/><glyph glyph-name="greater" unicode="&gt;" horiz-adv-x="1359" d="M227 953v236l906-503V503L227 0v236l689 350v17z"/><glyph glyph-name="question" unicode="?" horiz-adv-x="1083" d="M79 1053q7 179 125 290.5T533 1455q197 0 319.5-105T975 1081q0-216-210-342-96-57-131-105.5T599 509v-60H392l-1 76q-4 106 42 179.5T584 841q92 55 128 105.5t36 125.5q0 83-62 136.5T522 1262q-103 0-166-56.5T286 1053H79zM508-23q-69 0-112 42t-43 110q0 69 43 111.5T508 283t111.5-42T662 129q0-68-42.5-110T508-23z"/><glyph glyph-name="at" unicode="@" horiz-adv-x="1887" d="M936 858q-93 0-145-67.5T739 602t52-189.5T934 344q95 0 151 69.5t56 188.5q0 118-55.5 187T936 858zm34 584q235 0 418-93t284.5-262T1774 702q0-241-103-383t-279-142q-90 0-152.5 44.5T1165 339h-17q-31-76-94.5-116T902 183q-156 0-251.5 116.5T555 606q0 182 95.5 297T899 1018q79 0 141.5-38t91.5-104h17v121h170V435q0-53 27.5-82.5T1425 323q88 0 140.5 101.5T1618 696q0 271-182 437.5T959 1300q-192 0-344-88.5t-237-248T293 602q0-313 190.5-499T994-83q94 0 180.5 11.5T1306-41v-142q-135-44-319-44-388 0-619 227T137 607q0 183 61 338.5t170 265T632 1381t338 61z"/><glyph glyph-name="A" unicode="A" horiz-adv-x="1423" d="M1115 0 983 383H433L300 0H70l521 1443h241L1353 0h-238zM700 1181 490 571h436l-209 610h-17z"/><glyph glyph-name="B" unicode="B" horiz-adv-x="1373" d="M774 0H181v1443h580q203 0 318.5-96.5T1195 1083q0-113-73-202.5T942 773v-17q146-15 235.5-110.5T1267 409q0-191-131-300T774 0zM405 1253V832h266q148 0 224.5 53.5T972 1042q0 100-69.5 155.5T709 1253H405zm0-1063h324q151 0 230 60t79 175q0 113-82 171.5T716 655H405V190z"/><glyph glyph-name="C" unicode="C" horiz-adv-x="1485" d="M773-35q-301 0-476 203T122 721q0 351 174.5 554T772 1478q238 0 405.5-139.5T1372 978h-223q-32 133-133.5 212T772 1269q-194 0-307.5-147.5T351 721q0-252 113.5-399.5T773 174q143 0 244.5 72T1149 440h223q-30-214-194-344.5T773-35z"/><glyph glyph-name="D" unicode="D" horiz-adv-x="1502" d="M181 1443h521q321 0 500-188.5T1381 726q0-346-178-536T702 0H181v1443zm224-204V204h272q227 0 351.5 135.5T1153 723q0 244-125.5 380T677 1239H405z"/><glyph glyph-name="E" unicode="E" horiz-adv-x="1239" d="M1097 204V0H181v1443h916v-204H405V831h655V637H405V204h692z"/><glyph glyph-name="F" unicode="F" horiz-adv-x="1191" d="M405 0H181v1443h901v-204H405V796h620V598H405V0z"/><glyph glyph-name="G" unicode="G" horiz-adv-x="1539" d="M1412 571q0-277-169.5-441.5T789-35q-307 0-487 204T122 722q0 345 181 550.5T787 1478q246 0 412-129.5t203-348.5h-225q-42 131-142 200t-248 69q-200 0-318-147.5T351 724q0-255 118.5-402.5T792 174q177 0 288 99t112 259v31H820v188h592V571z"/><glyph glyph-name="H" unicode="H" horiz-adv-x="1550" d="M1369 0h-223v633H405V0H181v1443h224V837h741v606h223V0z"/><glyph glyph-name="I" unicode="I" horiz-adv-x="585" d="M405 0H181v1443h224V0z"/><glyph glyph-name="J" unicode="J" horiz-adv-x="1148" d="M82 375h220q2-89 62-144t156-55q108 0 166 63.5T744 423v1020h224V422q0-217-118.5-337T522-35Q325-35 203.5 77.5T82 375z"/><glyph glyph-name="K" unicode="K" horiz-adv-x="1386" d="M405 0H181v1443h224V767h16l597 676h265L725 816 1331 0h-280L567 655 405 474V0z"/><glyph glyph-name="L" unicode="L" horiz-adv-x="1183" d="M1081 206V0H181v1443h224V206h676z"/><glyph glyph-name="M" unicode="M" horiz-adv-x="1822" d="M1641 0h-208v1042h-14L996 42H826L403 1042h-14V0H181v1443h262L902 347h17l460 1096h262V0z"/><glyph glyph-name="N" unicode="N" horiz-adv-x="1539" d="M399 0H181v1443h202l741-1025h16v1025h218V0h-202L415 1025h-16V0z"/><glyph glyph-name="O" unicode="O" horiz-adv-x="1590" d="M796 1478q312 0 492-203.5T1468 722t-180-553T796-35q-313 0-493.5 203.5T122 722q0 349 181.5 552.5T796 1478zm0-209q-204 0-324.5-148T351 722t119-399.5T796 174q205 0 324 148.5T1239 722q0 252-119 399.5T796 1269z"/><glyph glyph-name="P" unicode="P" horiz-adv-x="1329" d="M181 1443h565q212 0 344-133.5T1222 962q0-211-135-343.5T739 486H405V0H181v1443zm224-198V683h282q145 0 225.5 72.5T993 962q0 137-79 210t-227 73H405z"/><glyph glyph-name="Q" unicode="Q" horiz-adv-x="1590" d="M796-35q-312 0-493 202.5T122 721q0 350 181.5 553.5T796 1478q310 0 491-203.5T1468 721q0-206-63.5-363.5T1223 109l181-262h-234L1052 6Q937-35 796-35zm1 209q70 0 136 18L752 443h229l108-134q72 62 111 168t39 244q0 252-120 400t-323 148q-204 0-324-147.5T352 721t119.5-400T797 174z"/><glyph glyph-name="R" unicode="R" horiz-adv-x="1368" d="M405 1246V741h322q130 0 201.5 66t71.5 187q0 118-74.5 185T721 1246H405zm0-696V0H181v1443h571q218 0 348-120.5T1230 999q0-146-74.5-256.5T950 587L1274 0h-259L721 550H405z"/><glyph glyph-name="S" unicode="S" horiz-adv-x="1333" d="M113 388h222q14-103 107.5-163.5T681 164q135 0 223.5 62.5T993 385q0 82-65.5 134.5T718 606l-186 45q-196 46-288 143t-92 256q0 193 144.5 310.5T677 1478q220 0 365-116t155-298H979q-16 100-97.5 158T674 1280q-133 0-214-59t-81-156q0-77 61.5-125T643 859l159-39q222-52 320-147.5t98-258.5q0-207-150-328T664-35Q424-35 274.5 80T113 388z"/><glyph glyph-name="T" unicode="T" horiz-adv-x="1317" d="M771 0H547v1239H93v204h1131v-204H771V0z"/><glyph glyph-name="U" unicode="U" horiz-adv-x="1538" d="M409 1443V517q0-154 95.5-248T769 175q170 0 265.5 94t95.5 248v926h224V497q0-238-158.5-385T769-35 343 112 185 497v946h224z"/><glyph glyph-name="V" unicode="V" horiz-adv-x="1415" d="M832 0H586L70 1443h244L703 280h17l387 1163h238z"/><glyph glyph-name="W" unicode="W" horiz-adv-x="2013" d="M999 1059 690 0H478L89 1443h233L587 338h14l301 1105h208l303-1105h14l264 1105h233L1534 0h-211l-310 1059h-14z"/><glyph glyph-name="X" unicode="X" horiz-adv-x="1427" d="m89 0 482 726-477 717h267l351-544h17l357 544h252L848 720 1329 0h-262L713 534h-17L337 0H89z"/><glyph glyph-name="Y" unicode="Y" horiz-adv-x="1383" d="M803 0H579v582L71 1443h249l363-625h17l363 625h249L803 582V0z"/><glyph glyph-name="Z" unicode="Z" horiz-adv-x="1365" d="M141 0v161l784 1061v17H165v204h1041v-161L426 221v-17h799V0H141z"/><glyph glyph-name="bracketleft" unicode="[" horiz-adv-x="790" d="M172 1444h496v-174H380V-67h300v-173H172v1684z"/><glyph glyph-name="backslash" unicode="\" horiz-adv-x="733" d="M487-309 54 1443h195L680-309H487z"/><glyph glyph-name="bracketright" unicode="]" horiz-adv-x="790" d="M618 1444V-240H110v173h300v1337H123v174h495z"/><glyph glyph-name="asciicircum" unicode="^" horiz-adv-x="1014" d="M498 1237 292 776H95l304 638h215l304-638H722l-207 461h-17z"/><glyph glyph-name="underscore" unicode="_" horiz-adv-x="926" d="M934-278H-7v171h941v-171z"/><glyph glyph-name="grave" unicode="`" horiz-adv-x="1095" d="M798 1271H577l-282 344h252z"/><glyph glyph-name="a" unicode="a" horiz-adv-x="1158" d="M512 163q121 0 201.5 68T794 401v91l-266-17q-112-7-165-46t-53-111 56-113.5T512 163zM457-18q-160 0-261.5 89.5T94 308q0 146 105 229.5T499 633l295 17v94q0 87-57 133.5T571 924q-90 0-149.5-31.5T344 803H136q16 140 137.5 223.5T581 1110q204 0 315.5-96.5T1008 744V0H801v153h-17Q735 71 649.5 26.5T457-18z"/><glyph glyph-name="b" unicode="b" horiz-adv-x="1285" d="M733-18q-114 0-204.5 50T389 172h-16V0H166v1514h215V916h17q43 89 133 140t202 51q207 0 328.5-151.5T1183 545t-122-411T733-18zm-62 932q-135 0-214-99.5T377 544q1-171 79.5-270T671 175t213.5 98.5T962 545q0 172-77.5 270.5T671 914z"/><glyph glyph-name="c" unicode="c" horiz-adv-x="1167" d="M1078 733H869q-20 83-86.5 134T612 918q-135 0-212.5-98T322 548q0-176 77.5-276.5T612 171q103 0 169.5 46T869 350h209q-21-168-144-269.5T613-21q-238 0-374.5 151.5T102 548q0 262 136 412t374 150q199 0 321.5-104T1078 733z"/><glyph glyph-name="d" unicode="d" horiz-adv-x="1285" d="M554-18q-208 0-330 152T102 545q0 258 122.5 410T554 1107q112 0 201-50.5T888 916h16v598h215V0H913v172h-17Q847 83 756.5 32.5T554-18zm61 932q-136 0-213.5-98.5T324 545q0-173 77.5-271.5T615 175t214.5 99T908 544q0 170-79 270T615 914z"/><glyph glyph-name="e" unicode="e" horiz-adv-x="1192" d="M603 927q-119 0-196-77t-86-205h550q-4 129-76.5 205.5T603 927zm267-633h207q-37-147-161.5-231T605-21q-234 0-368.5 150.5T102 541t136 415 366 154q227 0 356.5-146T1090 561v-75H321v-12q5-144 83-228t207-84q197 0 259 132z"/><glyph glyph-name="f" unicode="f" horiz-adv-x="775" d="M233 0v903H54v181h179v106q0 163 87 238.5t261 75.5q56 0 116-10v-172q-42 8-95 8-157 0-157-154v-92h243V903H448V0H233z"/><glyph glyph-name="g" unicode="g" horiz-adv-x="1274" d="M612 202q137 0 216 96t79 260q0 163-79 259.5T612 914t-213-95.5T323 558t76-260.5T612 202zm3-618q-202 0-328 83.5T144-109h220q14-60 80.5-95T618-239q134 0 209.5 60.5T903-10v209h-16q-49-88-136-135.5T551 16q-207 0-328.5 147.5T101 557q0 250 122 400t330 150q112 0 204-51.5T895 915h17v174h206V-9q0-187-136-297T615-416z"/><glyph glyph-name="h" unicode="h" horiz-adv-x="1249" d="M166 0v1514h213V914h17q40 93 125.5 144t206.5 51q175 0 275-106.5T1103 703V0H888v650q0 130-59 196t-174 66q-130 0-202-75t-72-201V0H166z"/><glyph glyph-name="i" unicode="i" horiz-adv-x="534" d="M160 0v1089h214V0H160zm107 1280q-60 0-99.5 37.5T128 1411t39.5 94 99.5 38 99.5-38 39.5-94-39.5-93.5T267 1280z"/><glyph glyph-name="j" unicode="j" horiz-adv-x="534" d="M374 1089V-45q0-167-86.5-247T23-372q-43 0-48 1v180H5q85 0 120 34t35 114v1132h214zm-107 191q-60 0-99.5 37.5T128 1411t39.5 94 99.5 38 99.5-38 39.5-94-39.5-93.5T267 1280z"/><glyph glyph-name="k" unicode="k" horiz-adv-x="1155" d="m398 635 432 454h254L636 622 1114 0H850L476 480l-95-90V0H166v1514h215V635h17z"/><glyph glyph-name="l" unicode="l" horiz-adv-x="547" d="M166 0v1514h215V0H166z"/><glyph glyph-name="m" unicode="m" horiz-adv-x="1824" d="M156 0v1089h207V914h16q36 93 115.5 144.5T682 1110q109 0 186-52t114-144h17q42 90 130.5 143t200.5 53q165 0 256.5-95t91.5-265V0h-215v694q0 219-211 219-103 0-166.5-65T1022 685V0H811v715q0 92-57 145t-153 53q-98 0-164-71t-66-176V0H156z"/><glyph glyph-name="n" unicode="n" horiz-adv-x="1227" d="M156 0v1089h207V916h16q85 194 325 194 182 0 279.5-105t97.5-300V0H866v651q0 262-235 262-119 0-189.5-74.5T371 637V0H156z"/><glyph glyph-name="o" unicode="o" horiz-adv-x="1231" d="M616-21q-240 0-377 151T102 545q0 263 137.5 414T616 1110q238 0 375.5-151T1129 545q0-264-137-415T616-21zm0 191q139 0 215.5 98.5T908 545q0 177-76.5 275.5T616 919q-140 0-216-98t-76-276q0-179 76-277t216-98z"/><glyph glyph-name="p" unicode="p" horiz-adv-x="1275" d="M721 1107q208 0 330-151.5T1173 545t-121.5-411T723-18q-116 0-204 48.5T388 165h-17v-527H156v1451h207V909h16q49 93 140 145.5t202 52.5zm-61-932q137 0 214.5 98.5T952 545t-77.5 271T661 914t-215-99.5T367 544q0-170 79-269.5T660 175z"/><glyph glyph-name="q" unicode="q" horiz-adv-x="1275" d="M553 1107q111 0 202.5-53.5T894 909h17v180h208V-362H903v527h-17Q784-18 551-18q-207 0-328 151.5T102 545q0 257 122.5 409.5T553 1107zm59-932q137 0 216 99t79 270q0 170-79 270T613 914t-212.5-98T324 545q0-174 76-272t212-98z"/><glyph glyph-name="r" unicode="r" horiz-adv-x="820" d="M156 0v1089h207V922h16q23 81 105.5 133t188.5 52q61 0 96-9V886q-39 13-120 13-123 0-200.5-71T371 643V0H156z"/><glyph glyph-name="s" unicode="s" horiz-adv-x="1104" d="M131 781q0 144 119 236.5t304 92.5q184 0 297-81t129-225H774q-15 61-72.5 96T554 935q-91 0-151-39.5T343 793q0-49 42-81t131-52l181-42q157-36 230.5-107t73.5-190q0-152-127-247T550-21q-194 0-313.5 82.5T103 289h215q21-64 81-100t156-36q101 0 165 41t64 106q0 95-160 133l-190 44q-156 37-229.5 110T131 781z"/><glyph glyph-name="t" unicode="t" horiz-adv-x="780" d="M232 1360h215v-276h236V903H447V343q0-85 37-124.5T601 179q32 0 82 5V5Q619-6 566-6 387-6 309.5 62T232 288v615H59v181h173v276z"/><glyph glyph-name="u" unicode="u" horiz-adv-x="1230" d="M1074 1089V0H867v173h-17Q767-21 521-21 341-21 243.5 84T146 382v707h215V438q0-133 55.5-196.5T590 178q129 0 199 72.5T859 452v637h215z"/><glyph glyph-name="v" unicode="v" horiz-adv-x="1140" d="M1078 1089 686 0H455L62 1089h230l271-859h17l270 859h228z"/><glyph glyph-name="w" unicode="w" horiz-adv-x="1640" d="M1574 1089 1275 0h-223L827 802h-17L586 0H365L65 1089h218l195-831h16l224 831h206l224-831h17l194 831h215z"/><glyph glyph-name="x" unicode="x" horiz-adv-x="1117" d="M563 386h-16L309 0H73l361 542-364 547h251l234-384h17l232 384h239L684 551 1047 0H800z"/><glyph glyph-name="y" unicode="y" horiz-adv-x="1152" d="M264-395q-56 0-89 5v185q23-4 70-4 77 0 123 35t74 117l16 53L64 1089h234l273-865h17l272 865h228L682-45q-70-198-160.5-274T264-395z"/><glyph glyph-name="z" unicode="z" horiz-adv-x="1124" d="M131 0v146l599 744v17H135v182h852V932L401 199v-17h592V0H131z"/><glyph glyph-name="braceleft" unicode="{" horiz-adv-x="861" d="M317 604q94-9 142-72t48-176V55q0-118 51.5-167T733-161h45v-175h-76q-207 0-304 89T301 31v258q0 118-38 163.5T127 498v229q98 0 136 46.5T301 938v224q0 186 97 272t304 86h76v-175h-45q-124 0-175-48.5T507 1128V858q0-219-190-237v-17z"/><glyph glyph-name="bar" unicode="|" horiz-adv-x="702" d="M447-310H256v1753h191V-310z"/><glyph glyph-name="braceright" unicode="}" horiz-adv-x="861" d="M544 604v17q-190 18-190 237v270q0 120-51 168.5T128 1345H83v175h76q207 0 304-86t97-272V938q0-118 38-164.5T734 727V498q-98 0-136-45.5T560 289V31q0-189-97-278t-304-89H83v175h45q123 0 174.5 49T354 55v301q0 113 48 176t142 72z"/><glyph glyph-name="asciitilde" unicode="~" horiz-adv-x="1210" d="M560 630q-52 52-85 72t-67 20q-124 0-133-178H91q-1 183 78.5 282.5T402 926q65 0 124-30t126-98q50-50 84-70.5t66-20.5q125 0 134 179h183q1-186-77-284t-228-98q-68 0-127.5 29.5T560 630z"/><glyph glyph-name="nonbreakingspace" horiz-adv-x="560"/><glyph glyph-name="exclamdown" unicode="¡" horiz-adv-x="670" d="m213-333 21 966h202l20-966H213zM336 828q-70 0-112.5 42T181 981t42.5 111 112.5 42q69 0 111-42t42-111-42-111-111-42z"/><glyph glyph-name="cent" unicode="¢" horiz-adv-x="1359" d="M1198 517q-20-149-129-245.5T794 153V-23H597v179q-197 34-317 182.5T160 714q0 223 120.5 371T597 1267v178h197v-175q163-25 273.5-124T1198 900H989q-28 86-104 135.5T702 1085q-139 0-230.5-101.5T380 714q0-171 91.5-273.5T702 338q116 0 190 47t97 132h209z"/><glyph glyph-name="sterling" unicode="£" horiz-adv-x="1359" d="M457 199h760V0H133v190q133 26 219.5 121T439 528q0 53-15 116H134v174h231q-61 158-61 254 0 191 140.5 298.5T836 1478q89 0 174-14.5t137-36.5v-197q-42 22-125 37.5T855 1283q-152 0-238-61t-86-169q0-87 54-235h451V644H641q13-55 13-103 0-109-56-196T457 215v-16z"/><glyph glyph-name="currency" unicode="¤" horiz-adv-x="1359" d="M427 653q0-103 74.5-177T680 402t179 74 75 177q0 102-75 176t-179 74q-103 0-178-74t-75-176zm763 380-159-160q62-102 62-220 0-119-62-221l159-161-128-135-161 163q-101-66-221-66t-221 66L297 136 170 271l160 162q-62 102-62 220t62 220l-160 160 127 135 162-162q101 66 221 66t222-66l160 162z"/><glyph glyph-name="yen" unicode="¥" horiz-adv-x="1359" d="M1066 242H792V0H568v242H293v150h275v152H293v150h213L59 1443h249l363-625h17l363 625h249L854 694h212V544H792V392h274V242z"/><glyph glyph-name="brokenbar" unicode="¦" horiz-adv-x="702" d="M447 774H256v669h191V774zm0-1084H256v669h191v-669z"/><glyph glyph-name="section" unicode="§" horiz-adv-x="1032" d="m456 424 92-27q80 4 135 52.5T738 565q0 56-41.5 96T578 719l-92 27q-79-4-135-53t-56-115q0-55 42.5-95.5T456 424zm63-694q-177 0-293.5 87.5T100 45h204q9-63 70.5-102T526-96q93 0 151 40t58 105q0 50-42.5 84T555 193l-154 47q-162 48-236.5 118T90 534q0 95 58.5 165T311 799v17Q96 906 96 1089q0 145 114.5 234.5T511 1413q172 0 283-83.5T920 1106H719q-9 60-66.5 96.5T508 1239q-92 0-148.5-39.5T303 1095q0-50 41.5-84T480 950l152-47q162-49 236-117.5T942 615q0-100-68-177.5T696 334v-17q243-70 243-261 0-145-117-235.5T519-270z"/><glyph glyph-name="dieresis" unicode="¨" horiz-adv-x="1122" d="M348 1265q-57 0-95.5 38.5T214 1399t38.5 96 95.5 39q56 0 94.5-39t38.5-96-38.5-95.5T348 1265zm427 0q-56 0-95 38.5t-39 95.5 39 96 95 39 94.5-39 38.5-96-38.5-95.5T775 1265z"/><glyph glyph-name="copyright" unicode="©" horiz-adv-x="1742" d="M871-154q-164 0-311 61.5t-252 167T141.5 327 80 638t61.5 311T308 1201t252 166.5 311 61.5q220 0 401.5-104t285.5-285.5T1662 638t-104-401.5-285.5-286T871-154zm0 151q134 0 253 49.5t204.5 135 135 204.5 49.5 252-49.5 252-135 204-204.5 134.5-253 49.5q-179 0-326.5-84.5T313 962t-84-324q0-178 84.5-325t232-231.5T871-3zm374 767h-157q-16 65-70 104t-130 39q-105 0-166-72t-61-196q0-126 61-198.5T888 368q80 0 132 36t68 101h157q-17-128-113.5-203T888 227q-180 0-285.5 111T497 639q0 187 105.5 298T887 1048q144 0 242-77.5T1245 764z"/><glyph glyph-name="ordfeminine" unicode="ª" horiz-adv-x="974" d="M457 670q93 0 154.5 54T673 860v85l-206-15q-173-12-173-130 0-60 44-95t119-35zm-66-163q-136 0-218 77T91 789q0 125 89.5 196.5T439 1067l231 14v77q1 64-46.5 100T491 1294q-69 0-114-26t-55-72H126q10 124 110.5 196t261.5 72q174 0 272.5-82.5T869 1153V529H677v117h-17q-37-66-108-102.5T391 507z"/><glyph glyph-name="guillemotleft" unicode="«" horiz-adv-x="1411" d="M399 573v-14l350-411H519L171 561v8l350 414h228zm491 0v-14l350-411h-231L661 561v8l351 414h228z"/><glyph glyph-name="logicalnot" unicode="¬" horiz-adv-x="1359" d="M1171 680V97H985v387H188v196h983z"/><glyph glyph-name="registered" unicode="®" horiz-adv-x="1260" d="M630 444q-144 0-264.5 70T175 705t-70 265 70 265 190.5 191 264.5 70 265-70 190.5-191 69.5-265q0-219-153-372.5T630 444zm0 118q172 0 291 119t119 289q0 171-119 289.5T630 1378q-171 0-290.5-118.5T220 970q0-170 119.5-289T630 562zm-96 171H426v494h251q77 0 127-43.5t50-111.5q0-119-112-149l134-190H746L623 908h-89V733zm0 398V998h115q87 0 87 68 0 65-85 65H534z"/><glyph glyph-name="macron" unicode="¯" horiz-adv-x="1048" d="M872 1454v-155H176v155h696z"/><glyph glyph-name="degree" unicode="°" horiz-adv-x="909" d="M454 782q-144 0-240.5 98.5T117 1122q0 144 96.5 242.5T454 1463q145 0 241.5-98.5T792 1122q0-143-96.5-241.5T454 782zm0 149q86 0 139.5 55t53.5 136q0 82-53.5 136.5T454 1313q-85 0-138-54.5T263 1122q0-81 52.5-136T454 931z"/><glyph glyph-name="plusminus" unicode="±" horiz-adv-x="1359" d="M1185 94H174v182h1011V94zM772 657V390H587v267H174v174h413v266h185V831h413V657H772z"/><glyph glyph-name="two.sups" unicode="²" horiz-adv-x="857" d="M90 1535q0 134 92.5 217t242.5 83q145 0 235.5-74.5T751 1566q0-79-46.5-152.5T535 1231l-160-147v-17h390V898H102v144l292 279q96 91 128.5 137t32.5 92q0 53-38.5 87t-99.5 34q-63 0-102.5-37.5T275 1535v-4H90v4z"/><glyph glyph-name="three.sups" unicode="³" horiz-adv-x="888" d="M326 1290v146h111q63 0 102 33t39 86q0 52-39 83.5T436 1670t-104-33.5-45-90.5H103q4 131 95.5 209t242.5 78q143 0 235-69.5t92-178.5q0-78-47-134.5T598 1380v-17q94-8 149.5-66.5T803 1148q0-121-101.5-198.5T442 872q-157 0-253.5 80T88 1165h188q5-56 49.5-90t116.5-34q71 0 115 35t44 90q0 58-43 91t-119 33H326z"/><glyph glyph-name="acute" unicode="´" horiz-adv-x="1095" d="M498 1271H276l251 344h252z"/><glyph glyph-name="mugreek" unicode="μ" horiz-adv-x="1296" d="M156-362v1451h215V439q0-261 228-261 118 0 189 74t71 199v638h215V301q0-71 21.5-98t74.5-27q23 0 50 5V3q-43-13-99-13-113 0-168 40t-74 136l-3 13h-17Q824 79 759 29T590-21Q443-21 388 86h-17v-448H156z"/><glyph glyph-name="mugreek" unicode="µ" horiz-adv-x="1296" d="M156-362v1451h215V439q0-261 228-261 118 0 189 74t71 199v638h215V301q0-71 21.5-98t74.5-27q23 0 50 5V3q-43-13-99-13-113 0-168 40t-74 136l-3 13h-17Q824 79 759 29T590-21Q443-21 388 86h-17v-448H156z"/><glyph glyph-name="paragraph" unicode="¶" horiz-adv-x="1414" d="M882-237H666v754h-20q-210 0-351 131T154 975q0 203 140 335.5T647 1443h235V-237zm154 0v1680h216V-237h-216z"/><glyph glyph-name="periodcentered" unicode="·" horiz-adv-x="663" d="M332 584q-64 0-107 44t-43 108q0 65 43 108.5T332 888t107-43.5T482 736q0-64-43-108t-107-44z"/><glyph glyph-name="cedilla" unicode="¸" horiz-adv-x="1095" d="M398-235v97l68 162h136V0l-48-122q99-2 153.5-46T762-291q0-89-67-142t-185-53q-85 0-147 17v120q46-14 120-14 116 0 116 67 0 32-33 46.5T457-235h-59z"/><glyph glyph-name="one.sups" unicode="¹" horiz-adv-x="699" d="M321 898v715h-17q-11-7-113.5-78T86 1462v188q89 67 234 162h197V898H321z"/><glyph glyph-name="ordmasculine" unicode="º" horiz-adv-x="1054" d="M527 507q-204 0-320.5 127.5T90 985q0 221 117.5 349.5T527 1463q203 0 319.5-127.5T963 985q0-224-116-351T527 507zm0 174q108 0 167.5 79.5T754 985t-59.5 224.5T527 1289t-167.5-80T300 985q0-145 59-224.5T527 681z"/><glyph glyph-name="guillemotright" unicode="»" horiz-adv-x="1411" d="M521 573 171 983h228l351-414v-8L402 148H171l350 411v14zm491 0L662 983h228l350-414v-8L892 148H662l350 411v14z"/><glyph glyph-name="onequarter" unicode="¼" horiz-adv-x="2051" d="M1663 0v154h-463v173q48 93 125.5 216T1571 914h280V319h117V158h-120V0h-185zm-284 320v-6h285v441h-8q-210-314-277-435zM321 529v715h-17q-11-7-113.5-78T86 1093v188q89 67 234 162h197V529H321zM733 0H528l356 754 303 689h205l-347-730z"/><glyph glyph-name="onehalf" unicode="½" horiz-adv-x="2055" d="M1288 637q0 134 92.5 217t242.5 83q145 0 235.5-74.5T1949 668q0-79-46.5-152.5T1733 333l-160-147v-17h390V0h-663v144l292 279q96 91 128.5 137t32.5 92q0 53-38.5 87t-99.5 34q-63 0-102.5-37.5T1473 637v-4h-185v4zM321 529v715h-17q-11-7-113.5-78T86 1093v188q89 67 234 162h197V529H321zM733 0H528l356 754 303 689h205l-347-730z"/><glyph glyph-name="threequarters" unicode="¾" horiz-adv-x="2230" d="M326 921v146h111q63 0 102 33t39 86q0 52-39 83.5T436 1301t-104-33.5-45-90.5H103q4 131 95.5 209t242.5 78q143 0 235-69.5t92-178.5q0-78-46.5-134.5T598 1011v-17q94-8 149.5-66.5T803 779q0-121-101.5-198.5T442 503q-157 0-253.5 80T88 796h188q5-56 49.5-90T442 672q71 0 115 35t44 90q0 58-43 91t-119 33H326zM1843 0v154h-463v173q48 93 125.5 216T1751 914h280V319h117V158h-120V0h-185zm-284 320v-6h285v441h-8q-210-314-277-435zM912 0H707l356 754 303 689h205l-347-730z"/><glyph glyph-name="questiondown" unicode="¿" horiz-adv-x="1083" d="M1004 58q-7-180-125-292T551-346q-198 0-321 105.5T107 30q0 214 211 340 96 58 130.5 106T483 601v59h207l1-75q4-107-41.5-180T499 269q-91-56-127.5-106.5T335 39q0-85 62-138.5T561-153q103 0 165.5 56.5T796 58h208zM576 827q-69 0-112 42t-43 111q0 68 43 110.5t112 42.5 111-42.5T729 980q0-69-42-111t-111-42z"/><glyph glyph-name="Agrave" unicode="À" horiz-adv-x="1423" d="M1115 0 983 383H433L300 0H70l521 1443h241L1353 0h-238zM700 1181 490 571h436l-209 610h-17zm-101 401-326 306h258l298-306H599z"/><glyph glyph-name="Aacute" unicode="Á" horiz-adv-x="1423" d="M1115 0 983 383H433L300 0H70l521 1443h241L1353 0h-238zM700 1181 490 571h436l-209 610h-17zm124 401H594l297 306h258z"/><glyph glyph-name="Acircumflex" unicode="Â" horiz-adv-x="1423" d="M1115 0 983 383H433L300 0H70l521 1443h241L1353 0h-238zM700 1181 490 571h436l-209 610h-17zm-89 715h202l295-314H883l-163 181h-16l-163-181H316z"/><glyph glyph-name="Atilde" unicode="Ã" horiz-adv-x="1423" d="M1115 0 983 383H433L300 0H70l521 1443h241L1353 0h-238zM700 1181 490 571h436l-209 610h-17zm158 396q-44 0-81.5 15.5T713 1630t-48 44.5-45 38-44 15.5q-49 0-71.5-36T482 1578H324q0 140 65 222t177 82q44 0 81.5-15.5t63.5-38 48-44.5 45-37.5 44-15.5q49 0 71.5 35t22.5 113h158q0-140-65-221t-177-81z"/><glyph glyph-name="Adieresis" unicode="Ä" horiz-adv-x="1423" d="M1115 0 983 383H433L300 0H70l521 1443h241L1353 0h-238zM700 1181 490 571h436l-209 610h-17zm-201 396q-57 0-95.5 38.5T365 1711t38.5 96 95.5 39q56 0 94.5-39t38.5-96-38.5-95.5T499 1577zm427 0q-56 0-95 38.5t-39 95.5 39 96 95 39 94.5-39 38.5-96-38.5-95.5T926 1577z"/><glyph glyph-name="Aring" unicode="Å" horiz-adv-x="1423" d="M1115 0 983 383H433L300 0H70l521 1443h241L1353 0h-238zM700 1181 490 571h436l-209 610h-17zm12 368q-84 0-142.5 57T511 1747t58 141 143 57 143-57 58-141-58-141-143-57zm0 98q44 0 72.5 28.5T813 1747q0 44-28.5 72t-72.5 28-72.5-28-28.5-72q0-43 28.5-71.5T712 1647z"/><glyph glyph-name="AE" unicode="Æ" horiz-adv-x="1999" d="M847 1253 559 606h428v647H847zM987 0v417H483L294 0H70l631 1443h1156v-204h-655V824h618V629h-618V204h655V0H987z"/><glyph glyph-name="Ccedilla" unicode="Ç" horiz-adv-x="1485" d="M1372 978h-223q-32 133-133.5 212T772 1269q-194 0-307.5-147.5T351 721q0-252 113.5-399.5T773 174q143 0 244.5 72T1149 440h223q-28-198-172-325.5T841-32l-35-90q99-2 153.5-46t54.5-123q0-89-67-142t-185-53q-85 0-147 17v120q46-14 120-14 116 0 116 67 0 32-33 46.5T709-235h-59v97l45 107Q428-5 275 195T122 721q0 351 174.5 554T772 1478q238 0 405.5-139.5T1372 978z"/><glyph glyph-name="Egrave" unicode="È" horiz-adv-x="1239" d="m526 1582-326 306h258l298-306H526zm571-1378V0H181v1443h916v-204H405V831h655V637H405V204h692z"/><glyph glyph-name="Eacute" unicode="É" horiz-adv-x="1239" d="M751 1582H521l297 306h258zm346-1378V0H181v1443h916v-204H405V831h655V637H405V204h692z"/><glyph glyph-name="Ecircumflex" unicode="Ê" horiz-adv-x="1239" d="M538 1896h202l295-314H810l-163 181h-16l-163-181H243zm559-1692V0H181v1443h916v-204H405V831h655V637H405V204h692z"/><glyph glyph-name="Edieresis" unicode="Ë" horiz-adv-x="1239" d="M426 1577q-57 0-95.5 38.5T292 1711t38.5 96 95.5 39q56 0 94.5-39t38.5-96-38.5-95.5T426 1577zm427 0q-56 0-95 38.5t-39 95.5 39 96 95 39 94.5-39 38.5-96-38.5-95.5T853 1577zm244-1373V0H181v1443h916v-204H405V831h655V637H405V204h692z"/><glyph glyph-name="Igrave" unicode="Ì" horiz-adv-x="585" d="M405 0H181v1443h224V0zM180 1582l-326 306h258l298-306H180z"/><glyph glyph-name="Iacute" unicode="Í" horiz-adv-x="585" d="M405 0H181v1443h224V0zm0 1582H175l297 306h258z"/><glyph glyph-name="Icircumflex" unicode="Î" horiz-adv-x="585" d="M405 0H181v1443h224V0zM192 1896h202l295-314H464l-163 181h-16l-163-181h-225z"/><glyph glyph-name="Idieresis" unicode="Ï" horiz-adv-x="585" d="M405 0H181v1443h224V0zM80 1577q-57 0-95.5 38.5T-54 1711t38.5 96 95.5 39q56 0 94.5-39t38.5-96-38.5-95.5T80 1577zm427 0q-56 0-95 38.5t-39 95.5 39 96 95 39 94.5-39 38.5-96-38.5-95.5T507 1577z"/><glyph glyph-name="Eth" unicode="Ð" horiz-adv-x="1502" d="M405 204h272q227 0 351.5 135.5T1153 723q0 244-125.5 380T677 1239H405V834h240V643H405V204zM181 1443h521q321 0 500-188.5T1381 726q0-346-178-536T702 0H181v643H35v191h146v609z"/><glyph glyph-name="Ntilde" unicode="Ñ" horiz-adv-x="1539" d="M914 1577q-44 0-81.5 15.5T769 1630t-48 44.5-45 38-44 15.5q-49 0-71.5-36T538 1578H380q0 140 65 222t177 82q44 0 81.5-15.5t63.5-38 48-44.5 45-37.5 44-15.5q49 0 71.5 35t22.5 113h158q0-140-65-221t-177-81zM399 0H181v1443h202l741-1025h16v1025h218V0h-202L415 1025h-16V0z"/><glyph glyph-name="Ograve" unicode="Ò" horiz-adv-x="1590" d="m683 1582-326 306h258l298-306H683zm113-104q312 0 492-203.5T1468 722t-180-553T796-35q-313 0-493.5 203.5T122 722q0 349 181.5 552.5T796 1478zm0-209q-204 0-324.5-148T351 722t119-399.5T796 174q205 0 324 148.5T1239 722q0 252-119 399.5T796 1269z"/><glyph glyph-name="Oacute" unicode="Ó" horiz-adv-x="1590" d="M908 1582H678l297 306h258zm-112-104q312 0 492-203.5T1468 722t-180-553T796-35q-313 0-493.5 203.5T122 722q0 349 181.5 552.5T796 1478zm0-209q-204 0-324.5-148T351 722t119-399.5T796 174q205 0 324 148.5T1239 722q0 252-119 399.5T796 1269z"/><glyph glyph-name="Ocircumflex" unicode="Ô" horiz-adv-x="1590" d="M695 1896h202l295-314H967l-163 181h-16l-163-181H400zm101-418q312 0 492-203.5T1468 722t-180-553T796-35q-313 0-493.5 203.5T122 722q0 349 181.5 552.5T796 1478zm0-209q-204 0-324.5-148T351 722t119-399.5T796 174q205 0 324 148.5T1239 722q0 252-119 399.5T796 1269z"/><glyph glyph-name="Otilde" unicode="Õ" horiz-adv-x="1590" d="M796 1478q312 0 492-203.5T1468 722t-180-553T796-35q-313 0-493.5 203.5T122 722q0 349 181.5 552.5T796 1478zm0-209q-204 0-324.5-148T351 722t119-399.5T796 174q205 0 324 148.5T1239 722q0 252-119 399.5T796 1269zm146 308q-44 0-81.5 15.5T797 1630t-48 44.5-45 38-44 15.5q-49 0-71.5-36T566 1578H408q0 140 65 222t177 82q44 0 81.5-15.5t63.5-38 48-44.5 45-37.5 44-15.5q49 0 71.5 35t22.5 113h158q0-140-65-221t-177-81z"/><glyph glyph-name="Odieresis" unicode="Ö" horiz-adv-x="1590" d="M583 1577q-57 0-95.5 38.5T449 1711t38.5 96 95.5 39q56 0 94.5-39t38.5-96-38.5-95.5T583 1577zm427 0q-56 0-95 38.5t-39 95.5 39 96 95 39 94.5-39 38.5-96-38.5-95.5-94.5-38.5zm-214-99q312 0 492-203.5T1468 722t-180-553T796-35q-313 0-493.5 203.5T122 722q0 349 181.5 552.5T796 1478zm0-209q-204 0-324.5-148T351 722t119-399.5T796 174q205 0 324 148.5T1239 722q0 252-119 399.5T796 1269z"/><glyph glyph-name="multiply" unicode="×" horiz-adv-x="1359" d="M680 443 373 138 243 276l306 306-306 306 130 138 307-305 306 305 130-138-306-306 306-306-130-138z"/><glyph glyph-name="Oslash" unicode="Ø" horiz-adv-x="1566" d="M1133 1105 524 267q110-93 272-93 205 0 324 148.5T1239 722q0 236-106 383zM442 362l605 830q-105 77-251 77-204 0-324.5-148T351 722q0-217 91-360zm928 1070-100-138q198-204 198-572 0-349-180-553T796-35Q560-35 392 86L289-56 188 15l113 155Q122 372 122 722q0 349 181.5 552.5T796 1478q223 0 382-107l91 125z"/><glyph glyph-name="Ugrave" unicode="Ù" horiz-adv-x="1539" d="m656 1582-326 306h258l298-306H656zm-247-139V517q0-154 95.5-248T769 175q170 0 265.5 94t95.5 248v926h224V497q0-238-158.5-385T769-35 343 112 185 497v946h224z"/><glyph glyph-name="Uacute" unicode="Ú" horiz-adv-x="1539" d="M881 1582H651l297 306h258zm-472-139V517q0-154 95.5-248T769 175q170 0 265.5 94t95.5 248v926h224V497q0-238-158.5-385T769-35 343 112 185 497v946h224z"/><glyph glyph-name="Ucircumflex" unicode="Û" horiz-adv-x="1539" d="M668 1896h202l295-314H940l-163 181h-16l-163-181H373zm-259-453V517q0-154 95.5-248T769 175q170 0 265.5 94t95.5 248v926h224V497q0-238-158.5-385T769-35 343 112 185 497v946h224z"/><glyph glyph-name="Udieresis" unicode="Ü" horiz-adv-x="1539" d="M556 1577q-57 0-95.5 38.5T422 1711t38.5 96 95.5 39q56 0 94.5-39t38.5-96-38.5-95.5T556 1577zm427 0q-56 0-95 38.5t-39 95.5 39 96 95 39 94.5-39 38.5-96-38.5-95.5T983 1577zm-574-134V517q0-154 95.5-248T769 175q170 0 265.5 94t95.5 248v926h224V497q0-238-158.5-385T769-35 343 112 185 497v946h224z"/><glyph glyph-name="Yacute" unicode="Ý" horiz-adv-x="1383" d="M803 0H579v582L71 1443h249l363-625h17l363 625h249L803 582V0zm0 1582H573l297 306h258z"/><glyph glyph-name="Thorn" unicode="Þ" horiz-adv-x="1315" d="M181 1443h224v-251h350q186 0 313.5-118.5T1196 756q0-132-62-233T971 371t-223-51H405V0H181v1443zm224-450V517h287q125 0 200 61.5T967 756t-75 176.5T692 993H405z"/><glyph glyph-name="germandbls" unicode="ß" horiz-adv-x="1320" d="M427 0H213v1091q0 184 122.5 291.5T661 1490q196 0 320-105t124-271q0-120-63.5-210T880 785v-19q154-13 244.5-108t90.5-254q0-184-128-301T750-14q-99 0-158 14v191q60-15 131-15 131 0 203.5 65T999 414q0 110-83.5 173.5T683 651h-65v202h50q104 0 165.5 61t61.5 172q0 92-62 151.5T665 1297q-113 0-175.5-63T427 1055V0z"/><glyph glyph-name="agrave" unicode="à" horiz-adv-x="1158" d="M512 163q121 0 201.5 68T794 401v91l-266-17q-112-7-165-46t-53-111 56-113.5T512 163zM457-18q-160 0-261.5 89.5T94 308q0 146 105 229.5T499 633l295 17v94q0 87-57 133.5T571 924q-90 0-149.5-31.5T344 803H136q16 140 137.5 223.5T581 1110q204 0 315.5-96.5T1008 744V0H801v153h-17Q735 71 649.5 26.5T457-18zm259 1289H495l-282 344h252z"/><glyph glyph-name="aacute" unicode="á" horiz-adv-x="1158" d="M512 163q121 0 201.5 68T794 401v91l-266-17q-112-7-165-46t-53-111 56-113.5T512 163zM457-18q-160 0-261.5 89.5T94 308q0 146 105 229.5T499 633l295 17v94q0 87-57 133.5T571 924q-90 0-149.5-31.5T344 803H136q16 140 137.5 223.5T581 1110q204 0 315.5-96.5T1008 744V0H801v153h-17Q735 71 649.5 26.5T457-18zm217 1289H452l251 344h252z"/><glyph glyph-name="acircumflex" unicode="â" horiz-adv-x="1158" d="M512 163q121 0 201.5 68T794 401v91l-266-17q-112-7-165-46t-53-111 56-113.5T512 163zM457-18q-160 0-261.5 89.5T94 308q0 146 105 229.5T499 633l295 17v94q0 87-57 133.5T571 924q-90 0-149.5-31.5T344 803H136q16 140 137.5 223.5T581 1110q204 0 315.5-96.5T1008 744V0H801v153h-17Q735 71 649.5 26.5T457-18zm241 1602 279-346H756l-167 219h-16l-167-219H184l280 346h234z"/><glyph glyph-name="atilde" unicode="ã" horiz-adv-x="1158" d="M512 163q121 0 201.5 68T794 401v91l-266-17q-112-7-165-46t-53-111 56-113.5T512 163zM457-18q-160 0-261.5 89.5T94 308q0 146 105 229.5T499 633l295 17v94q0 87-57 133.5T571 924q-90 0-149.5-31.5T344 803H136q16 140 137.5 223.5T581 1110q204 0 315.5-96.5T1008 744V0H801v153h-17Q735 71 649.5 26.5T457-18zm272 1259q-44 0-81.5 15.5T584 1294t-48 44.5-45 38-44 15.5q-49 0-71.5-36T353 1242H195q0 140 65 222t177 82q44 0 81.5-15.5t63.5-38 48-44.5 45-37.5 44-15.5q49 0 71.5 35t22.5 113h158q0-140-65-221t-177-81z"/><glyph glyph-name="adieresis" unicode="ä" horiz-adv-x="1158" d="M512 163q121 0 201.5 68T794 401v91l-266-17q-112-7-165-46t-53-111 56-113.5T512 163zM457-18q-160 0-261.5 89.5T94 308q0 146 105 229.5T499 633l295 17v94q0 87-57 133.5T571 924q-90 0-149.5-31.5T344 803H136q16 140 137.5 223.5T581 1110q204 0 315.5-96.5T1008 744V0H801v153h-17Q735 71 649.5 26.5T457-18zm-89 1256q-57 0-95.5 38.5T234 1372t38.5 96 95.5 39q56 0 94.5-39t38.5-96-38.5-95.5T368 1238zm427 0q-56 0-95 38.5t-39 95.5 39 96 95 39 94.5-39 38.5-96-38.5-95.5T795 1238z"/><glyph glyph-name="aring" unicode="å" horiz-adv-x="1158" d="M512 163q121 0 201.5 68T794 401v91l-266-17q-112-7-165-46t-53-111 56-113.5T512 163zM457-18q-160 0-261.5 89.5T94 308q0 146 105 229.5T499 633l295 17v94q0 87-57 133.5T571 924q-90 0-149.5-31.5T344 803H136q16 140 137.5 223.5T581 1110q204 0 315.5-96.5T1008 744V0H801v153h-17Q735 71 649.5 26.5T457-18zm124 1256q-99 0-168 67.5T344 1472t68.5 166 168.5 67 168.5-67 68.5-166-69-166.5-168-67.5zm0 119q50 0 83 32.5t33 82.5q0 49-33 81.5t-83 32.5-83-32.5-33-81.5q0-50 33-82.5t83-32.5z"/><glyph glyph-name="ae" unicode="æ" horiz-adv-x="1865" d="M1297-21q-129 0-235.5 59.5T909 195h-17Q836 94 730.5 36.5T486-21q-177 0-284.5 90T94 308q0 146 105 229.5T499 633l295 17v87q0 91-57.5 139T571 924q-91 0-150-31.5T344 803H136q16 137 136 222t298 85q126 0 215.5-47T921 937h17q52 77 147.5 125t208.5 48q219 0 344-143.5T1763 572v-79h-760v-21q5-141 85.5-225t210.5-84q180 0 245 131h207q-38-149-157.5-232T1297-21zm-15 949q-120 0-195.5-75T1003 652h542q-4 122-77 199t-186 77zM520 161q119 0 196.5 71T794 404v88l-266-17q-112-7-165-46t-53-112 57.5-114.5T520 161z"/><glyph glyph-name="ccedilla" unicode="ç" horiz-adv-x="1167" d="M1078 733H869q-20 83-86.5 134T612 918q-135 0-212.5-98T322 548q0-176 77.5-276.5T612 171q103 0 169.5 46T869 350h209q-19-151-121.5-249.5T688-17l-41-105q99-2 153.5-46T855-291q0-89-67-142t-185-53q-85 0-147 17v120q46-14 120-14 116 0 116 67 0 32-33 46.5T550-235h-59v97l51 121Q335 6 218.5 154.5T102 548q0 262 136 412t374 150q199 0 321.5-104T1078 733z"/><glyph glyph-name="egrave" unicode="è" horiz-adv-x="1192" d="M739 1271H518l-282 344h252zM603 927q-119 0-196-77t-86-205h550q-4 129-76.5 205.5T603 927zm267-633h207q-37-147-161.5-231T605-21q-234 0-368.5 150.5T102 541t136 415 366 154q227 0 356.5-146T1090 561v-75H321v-12q5-144 83-228t207-84q197 0 259 132z"/><glyph glyph-name="eacute" unicode="é" horiz-adv-x="1192" d="M697 1271H475l251 344h252zm-94-344q-119 0-196-77t-86-205h550q-4 129-76.5 205.5T603 927zm267-633h207q-37-147-161.5-231T605-21q-234 0-368.5 150.5T102 541t136 415 366 154q227 0 356.5-146T1090 561v-75H321v-12q5-144 83-228t207-84q197 0 259 132z"/><glyph glyph-name="ecircumflex" unicode="ê" horiz-adv-x="1192" d="m721 1584 279-346H779l-167 219h-16l-167-219H207l280 346h234zM603 927q-119 0-196-77t-86-205h550q-4 129-76.5 205.5T603 927zm267-633h207q-37-147-161.5-231T605-21q-234 0-368.5 150.5T102 541t136 415 366 154q227 0 356.5-146T1090 561v-75H321v-12q5-144 83-228t207-84q197 0 259 132z"/><glyph glyph-name="edieresis" unicode="ë" horiz-adv-x="1192" d="M603 927q-119 0-196-77t-86-205h550q-4 129-76.5 205.5T603 927zm267-633h207q-37-147-161.5-231T605-21q-234 0-368.5 150.5T102 541t136 415 366 154q227 0 356.5-146T1090 561v-75H321v-12q5-144 83-228t207-84q197 0 259 132zm-479 944q-57 0-95.5 38.5T257 1372t38.5 96 95.5 39q56 0 94.5-39t38.5-96-38.5-95.5T391 1238zm427 0q-56 0-95 38.5t-39 95.5 39 96 95 39 94.5-39 38.5-96-38.5-95.5T818 1238z"/><glyph glyph-name="igrave" unicode="ì" horiz-adv-x="534" d="M402 1271H181l-282 344h252zM160 0v1089h214V0H160z"/><glyph glyph-name="iacute" unicode="í" horiz-adv-x="534" d="M360 1271H138l251 344h252zM160 0v1089h214V0H160z"/><glyph glyph-name="icircumflex" unicode="î" horiz-adv-x="534" d="m384 1584 279-346H442l-167 219h-16L92 1238h-222l280 346h234zM160 0v1089h214V0H160z"/><glyph glyph-name="idieresis" unicode="ï" horiz-adv-x="534" d="M160 0v1089h214V0H160zM54 1238q-57 0-95.5 38.5T-80 1372t38.5 96 95.5 39q56 0 94.5-39t38.5-96-38.5-95.5T54 1238zm427 0q-56 0-95 38.5t-39 95.5 39 96 95 39 94.5-39 38.5-96-38.5-95.5T481 1238z"/><glyph glyph-name="eth" unicode="ð" horiz-adv-x="1220" d="M614-18q-235 0-372.5 147T104 526q0 237 125.5 383T559 1055q97 0 182.5-42T864 905h16q-44 165-178 321l-281-92-42 125 230 76q-64 67-215 187h263q70-56 135-124l255 85 43-126-207-68q115-148 175.5-328.5T1119 585q0-277-136.5-440T614-18zm3 894q-133 0-212.5-95T325 526t79-255.5T617 175t213.5 95T910 525t-80 255.5T617 876z"/><glyph glyph-name="ntilde" unicode="ñ" horiz-adv-x="1227" d="M770 1241q-44 0-81.5 15.5T625 1294t-48 44.5-45 38-44 15.5q-49 0-71.5-36T394 1242H236q0 140 65 222t177 82q44 0 81.5-15.5t63.5-38 48-44.5 45-37.5 44-15.5q49 0 71.5 35t22.5 113h158q0-140-65-221t-177-81zM156 0v1089h207V916h16q85 194 325 194 182 0 279.5-105t97.5-300V0H866v651q0 262-235 262-119 0-189.5-74.5T371 637V0H156z"/><glyph glyph-name="ograve" unicode="ò" horiz-adv-x="1231" d="M751 1271H530l-282 344h252zM616-21q-240 0-377 151T102 545q0 263 137.5 414T616 1110q238 0 375.5-151T1129 545q0-264-137-415T616-21zm0 191q139 0 215.5 98.5T908 545q0 177-76.5 275.5T616 919q-140 0-216-98t-76-276q0-179 76-277t216-98z"/><glyph glyph-name="oacute" unicode="ó" horiz-adv-x="1231" d="M709 1271H487l251 344h252zM616-21q-240 0-377 151T102 545q0 263 137.5 414T616 1110q238 0 375.5-151T1129 545q0-264-137-415T616-21zm0 191q139 0 215.5 98.5T908 545q0 177-76.5 275.5T616 919q-140 0-216-98t-76-276q0-179 76-277t216-98z"/><glyph glyph-name="ocircumflex" unicode="ô" horiz-adv-x="1231" d="m733 1584 279-346H791l-167 219h-16l-167-219H219l280 346h234zM616-21q-240 0-377 151T102 545q0 263 137.5 414T616 1110q238 0 375.5-151T1129 545q0-264-137-415T616-21zm0 191q139 0 215.5 98.5T908 545q0 177-76.5 275.5T616 919q-140 0-216-98t-76-276q0-179 76-277t216-98z"/><glyph glyph-name="otilde" unicode="õ" horiz-adv-x="1231" d="M764 1241q-44 0-81.5 15.5T619 1294t-48 44.5-45 38-44 15.5q-49 0-71.5-36T388 1242H230q0 140 65 222t177 82q44 0 81.5-15.5t63.5-38 48-44.5 45-37.5 44-15.5q49 0 71.5 35t22.5 113h158q0-140-65-221t-177-81zM616-21q-240 0-377 151T102 545q0 263 137.5 414T616 1110q238 0 375.5-151T1129 545q0-264-137-415T616-21zm0 191q139 0 215.5 98.5T908 545q0 177-76.5 275.5T616 919q-140 0-216-98t-76-276q0-179 76-277t216-98z"/><glyph glyph-name="odieresis" unicode="ö" horiz-adv-x="1231" d="M403 1238q-57 0-95.5 38.5T269 1372t38.5 96 95.5 39q56 0 94.5-39t38.5-96-38.5-95.5T403 1238zm427 0q-56 0-95 38.5t-39 95.5 39 96 95 39 94.5-39 38.5-96-38.5-95.5T830 1238zM616-21q-240 0-377 151T102 545q0 263 137.5 414T616 1110q238 0 375.5-151T1129 545q0-264-137-415T616-21zm0 191q139 0 215.5 98.5T908 545q0 177-76.5 275.5T616 919q-140 0-216-98t-76-276q0-179 76-277t216-98z"/><glyph glyph-name="divide" unicode="÷" horiz-adv-x="1359" d="M680 813q-61 0-100.5 39.5T540 954t39.5 101.5T680 1095q62 0 101-39.5T820 954t-39-101.5T680 813zm0-745q-61 0-100.5 39.5T540 210q0 61 39.5 101T680 351t100.5-39.5T820 210q0-63-39-102.5T680 68zm520 423H160v182h1040V491z"/><glyph glyph-name="oslash" unicode="ø" horiz-adv-x="1231" d="M849 795 466 209q63-39 150-39 139 0 215.5 98.5T908 545q0 156-59 250zM379 300l383 582q-63 37-146 37-140 0-216-98t-76-276q0-152 55-245zm656 780-65-99q159-153 159-436 0-264-137-415T616-21q-147 0-261 60l-60-92-104 67 65 99Q102 264 102 545q0 263 137.5 414T616 1110q147 0 257-59l60 91z"/><glyph glyph-name="ugrave" unicode="ù" horiz-adv-x="1230" d="M745 1271H524l-282 344h252zm329-182V0H867v173h-17Q767-21 521-21 341-21 243.5 84T146 382v707h215V438q0-133 55.5-196.5T590 178q129 0 199 72.5T859 452v637h215z"/><glyph glyph-name="uacute" unicode="ú" horiz-adv-x="1230" d="M703 1271H481l251 344h252zm371-182V0H867v173h-17Q767-21 521-21 341-21 243.5 84T146 382v707h215V438q0-133 55.5-196.5T590 178q129 0 199 72.5T859 452v637h215z"/><glyph glyph-name="ucircumflex" unicode="û" horiz-adv-x="1230" d="m727 1584 279-346H785l-167 219h-16l-167-219H213l280 346h234zm347-495V0H867v173h-17Q767-21 521-21 341-21 243.5 84T146 382v707h215V438q0-133 55.5-196.5T590 178q129 0 199 72.5T859 452v637h215z"/><glyph glyph-name="udieresis" unicode="ü" horiz-adv-x="1230" d="M1074 1089V0H867v173h-17Q767-21 521-21 341-21 243.5 84T146 382v707h215V438q0-133 55.5-196.5T590 178q129 0 199 72.5T859 452v637h215zm-677 149q-57 0-95.5 38.5T263 1372t38.5 96 95.5 39q56 0 94.5-39t38.5-96-38.5-95.5T397 1238zm427 0q-56 0-95 38.5t-39 95.5 39 96 95 39 94.5-39 38.5-96-38.5-95.5T824 1238z"/><glyph glyph-name="yacute" unicode="ý" horiz-adv-x="1152" d="M264-395q-56 0-89 5v185q23-4 70-4 77 0 123 35t74 117l16 53L64 1089h234l273-865h17l272 865h228L682-45q-70-198-160.5-274T264-395zm403 1666H445l251 344h252z"/><glyph glyph-name="thorn" unicode="þ" horiz-adv-x="1287" d="M730 1107q208 0 330-151.5T1182 545t-122-411T731-18q-116 0-204 48.5T396 165h-17v-518H164v1859h209V909h16q50 93 140 145.5t201 52.5zm-62-932q137 0 214.5 98.5T960 545t-77.5 271T669 914t-215-99.5T375 544q0-170 79-269.5T668 175z"/><glyph glyph-name="ydieresis" unicode="ÿ" horiz-adv-x="1152" d="M264-395q-56 0-89 5v185q23-4 70-4 77 0 123 35t74 117l16 53L64 1089h234l273-865h17l272 865h228L682-45q-70-198-160.5-274T264-395zm97 1633q-57 0-95.5 38.5T227 1372t38.5 96 95.5 39q56 0 94.5-39t38.5-96-38.5-95.5T361 1238zm427 0q-56 0-95 38.5t-39 95.5 39 96 95 39 94.5-39 38.5-96-38.5-95.5T788 1238z"/><glyph glyph-name="Amacron" unicode="Ā" horiz-adv-x="1423" d="M1115 0 983 383H433L300 0H70l521 1443h241L1353 0h-238zM700 1181 490 571h436l-209 610h-17zm362 600v-156H362v156h700z"/><glyph glyph-name="amacron" unicode="ā" horiz-adv-x="1158" d="M512 163q121 0 201.5 68T794 401v91l-266-17q-112-7-165-46t-53-111 56-113.5T512 163zM457-18q-160 0-261.5 89.5T94 308q0 146 105 229.5T499 633l295 17v94q0 87-57 133.5T571 924q-90 0-149.5-31.5T344 803H136q16 140 137.5 223.5T581 1110q204 0 315.5-96.5T1008 744V0H801v153h-17Q735 71 649.5 26.5T457-18zm472 1472v-155H233v155h696z"/><glyph glyph-name="Abreve" unicode="Ă" horiz-adv-x="1423" d="M1115 0 983 383H433L300 0H70l521 1443h241L1353 0h-238zM700 1181 490 571h436l-209 610h-17zm-365 710h173q1-78 56-123.5t148-45.5 148 45.5 56 123.5h173q0-142-101.5-228T712 1577t-275.5 86T335 1891z"/><glyph glyph-name="abreve" unicode="ă" horiz-adv-x="1158" d="M512 163q121 0 201.5 68T794 401v91l-266-17q-112-7-165-46t-53-111 56-113.5T512 163zM457-18q-160 0-261.5 89.5T94 308q0 146 105 229.5T499 633l295 17v94q0 87-57 133.5T571 924q-90 0-149.5-31.5T344 803H136q16 140 137.5 223.5T581 1110q204 0 315.5-96.5T1008 744V0H801v153h-17Q735 71 649.5 26.5T457-18zM202 1576h173q1-85 55-137.5t149-52.5 149 52.5 55 137.5h173q0-150-102-244t-275-94-275 94-102 244z"/><glyph glyph-name="Aogonek" unicode="Ą" horiz-adv-x="1423" d="M700 1181 490 571h436l-209 610h-17zm617-1609q-49-19-116-19-114 0-184 60.5T947-234q0 70 46.5 133T1114 1L983 383H433L300 0H70l521 1443h241L1353 0l-25-5q-81-29-136.5-76.5T1136-190q0-45 32.5-71t81.5-26q48 0 67 7v-148z"/><glyph glyph-name="aogonek" unicode="ą" horiz-adv-x="1158" d="M512 163q121 0 201.5 68T794 401v91l-266-17q-111-8-164.5-46T310 318q0-70 55.5-112.5T512 163zm478-591q-52-19-117-19-112 0-183 59.5T619-234q0 77 51.5 142T801 4v149h-17Q735 71 649.5 26.5T457-18q-162 0-262.5 90T94 308t104.5 229.5T499 633l295 17v94q0 87-57 133.5T571 924q-91 0-150-31.5T344 803H136q17 140 138 223.5t307 83.5q203 0 315-96t112-270V0l-21-6q-81-28-130-77.5T808-190q0-43 31.5-70t83.5-27q47 0 67 7v-148z"/><glyph glyph-name="Cacute" unicode="Ć" horiz-adv-x="1485" d="M884 1584H654l297 306h258zM773-35q-301 0-476 203T122 721q0 351 174.5 554T772 1478q238 0 405.5-139.5T1372 978h-223q-32 133-133.5 212T772 1269q-194 0-307.5-147.5T351 721q0-252 113.5-399.5T773 174q143 0 244.5 72T1149 440h223q-30-214-194-344.5T773-35z"/><glyph glyph-name="cacute" unicode="ć" horiz-adv-x="1167" d="M1078 733H869q-20 83-86.5 134T612 918q-135 0-212.5-98T322 548q0-176 77.5-276.5T612 171q103 0 169.5 46T869 350h209q-21-168-144-269.5T613-21q-238 0-374.5 151.5T102 548q0 262 136 412t374 150q199 0 321.5-104T1078 733zm-374 538H482l251 344h252z"/><glyph glyph-name="Ccircumflex" unicode="Ĉ" horiz-adv-x="1485" d="M773-35q-301 0-476 203T122 721q0 351 174.5 554T772 1478q238 0 405.5-139.5T1372 978h-223q-32 133-133.5 212T772 1269q-194 0-307.5-147.5T351 721q0-252 113.5-399.5T773 174q143 0 244.5 72T1149 440h223q-30-214-194-344.5T773-35zM671 1898h202l295-314H943l-163 181h-16l-163-181H376z"/><glyph glyph-name="ccircumflex" unicode="ĉ" horiz-adv-x="1167" d="m728 1584 279-346H786l-167 219h-16l-167-219H214l280 346h234zm350-851H869q-20 83-86.5 134T612 918q-135 0-212.5-98T322 548q0-176 77.5-276.5T612 171q103 0 169.5 46T869 350h209q-21-168-144-269.5T613-21q-238 0-374.5 151.5T102 548q0 262 136 412t374 150q199 0 321.5-104T1078 733z"/><glyph glyph-name="Cdotaccent" unicode="Ċ" horiz-adv-x="1485" d="M772 1579q-57 0-95.5 39.5T638 1716t38.5 97.5T772 1853t95.5-39.5T906 1716t-38.5-97.5T772 1579zm1-1614q-301 0-476 203T122 721q0 351 174.5 554T772 1478q238 0 405.5-139.5T1372 978h-223q-32 133-133.5 212T772 1269q-194 0-307.5-147.5T351 721q0-252 113.5-399.5T773 174q143 0 244.5 72T1149 440h223q-30-214-194-344.5T773-35z"/><glyph glyph-name="cdotaccent" unicode="ċ" horiz-adv-x="1167" d="M1078 733H869q-20 83-86.5 134T612 918q-135 0-212.5-98T322 548q0-176 77.5-276.5T612 171q103 0 169.5 46T869 350h209q-21-168-144-269.5T613-21q-238 0-374.5 151.5T102 548q0 262 136 412t374 150q199 0 321.5-104T1078 733zm-467 550q-59 0-99.5 41.5T471 1425t40.5 100.5T611 1567q58 0 99-41.5t41-100.5-41-100.5-99-41.5z"/><glyph glyph-name="Ccaron" unicode="Č" horiz-adv-x="1485" d="M773-35q-301 0-476 203T122 721q0 351 174.5 554T772 1478q238 0 405.5-139.5T1372 978h-223q-32 133-133.5 212T772 1269q-194 0-307.5-147.5T351 721q0-252 113.5-399.5T773 174q143 0 244.5 72T1149 440h223q-30-214-194-344.5T773-35zm-99 1619-293 306h220l162-175h18l162 175h220l-293-306H674z"/><glyph glyph-name="ccaron" unicode="č" horiz-adv-x="1167" d="M728 1238H494l-280 346h222l167-219h16l167 219h221zm350-505H869q-20 83-86.5 134T612 918q-135 0-212.5-98T322 548q0-176 77.5-276.5T612 171q103 0 169.5 46T869 350h209q-21-168-144-269.5T613-21q-238 0-374.5 151.5T102 548q0 262 136 412t374 150q199 0 321.5-104T1078 733z"/><glyph glyph-name="Dcaron" unicode="Ď" horiz-adv-x="1502" d="m512 1582-293 306h220l162-175h18l162 175h220l-293-306H512zm-331-139h521q321 0 500-188.5T1381 726q0-346-178-536T702 0H181v1443zm224-204V204h272q227 0 351.5 135.5T1153 723q0 244-125.5 380T677 1239H405z"/><glyph glyph-name="dcaron" unicode="ď" horiz-adv-x="1440" d="M1265 1514h199l-50-496h-149v496zM554-18q-208 0-330 152T102 545q0 258 122.5 410T554 1107q112 0 201-50.5T888 916h16v598h215V0H913v172h-17Q847 83 756.5 32.5T554-18zm61 932q-136 0-213.5-98.5T324 545q0-173 77.5-271.5T615 175t214.5 99T908 544q0 170-79 270T615 914z"/><glyph glyph-name="Dcroat" unicode="Đ" horiz-adv-x="1507" d="M409 204h272q227 0 351.5 135.5T1157 723q0 244-125.5 380T681 1239H409V834h236V643H409V204zM185 1443h521q321 0 500-188.5T1385 726q0-346-178-536T706 0H185v643H35v191h150v609z"/><glyph glyph-name="dcroat" unicode="đ" horiz-adv-x="1290" d="M619 175q136 0 214.5 99T912 544t-78.5 270.5T619 914t-213.5-98.5T328 545q0-173 77.5-271.5T619 175zm648 1229v-137h-144V0H917v172h-17Q851 83 760.5 32.5T558-18q-208 0-330 152T106 545q0 258 122.5 410T558 1107q113 0 201.5-50.5T893 916h16v351H658v137h251v110h214v-110h144z"/><glyph glyph-name="Emacron" unicode="Ē" horiz-adv-x="1239" d="M1097 204V0H181v1443h916v-204H405V831h655V637H405V204h692zM989 1781v-156H289v156h700z"/><glyph glyph-name="emacron" unicode="ē" horiz-adv-x="1192" d="M603 927q-119 0-196-77t-86-205h550q-4 129-76.5 205.5T603 927zm267-633h207q-37-147-161.5-231T605-21q-234 0-368.5 150.5T102 541t136 415 366 154q227 0 356.5-146T1090 561v-75H321v-12q5-144 83-228t207-84q197 0 259 132zm82 1160v-155H256v155h696z"/><glyph glyph-name="Ebreve" unicode="Ĕ" horiz-adv-x="1239" d="M1097 204V0H181v1443h916v-204H405V831h655V637H405V204h692zM262 1891h173q1-78 56-123.5t148-45.5 148 45.5 56 123.5h173q0-142-101.5-228T639 1577t-275.5 86T262 1891z"/><glyph glyph-name="ebreve" unicode="ĕ" horiz-adv-x="1192" d="M603 927q-119 0-196-77t-86-205h550q-4 129-76.5 205.5T603 927zm267-633h207q-37-147-161.5-231T605-21q-234 0-368.5 150.5T102 541t136 415 366 154q227 0 356.5-146T1090 561v-75H321v-12q5-144 83-228t207-84q197 0 259 132zM225 1576h173q1-85 55-137.5t149-52.5 149 52.5 55 137.5h173q0-150-102-244t-275-94-275 94-102 244z"/><glyph glyph-name="Edotaccent" unicode="Ė" horiz-adv-x="1239" d="M639 1577q-57 0-95.5 39.5T505 1714t38.5 97.5T639 1851t95.5-39.5T773 1714t-38.5-97.5T639 1577zm458-1373V0H181v1443h916v-204H405V831h655V637H405V204h692z"/><glyph glyph-name="edotaccent" unicode="ė" horiz-adv-x="1192" d="M604 1283q-59 0-99.5 41.5T464 1425t40.5 100.5T604 1567q58 0 99-41.5t41-100.5-41-100.5-99-41.5zm-1-356q-119 0-196-77t-86-205h550q-4 129-76.5 205.5T603 927zm267-633h207q-37-147-161.5-231T605-21q-234 0-368.5 150.5T102 541t136 415 366 154q227 0 356.5-146T1090 561v-75H321v-12q5-144 83-228t207-84q197 0 259 132z"/><glyph glyph-name="Eogonek" unicode="Ę" horiz-adv-x="1239" d="M181 0v1443h916v-204H405V831h655V637H405V204h692V9l-43-14q-78-26-132.5-74.5T867-190q0-45 32.5-71t81.5-26q48 0 67 7v-148q-49-19-116-19-114 0-184.5 60.5T677-234q0 67 39 124.5T819-17V0H181z"/><glyph glyph-name="eogonek" unicode="ę" horiz-adv-x="1192" d="M808-447q-114 0-184 60.5T554-234q0 60 34 114.5T685-26v17q-26-12-80-12-234 0-368.5 150.5T102 541t136 415 366 154q227 0 356.5-146T1090 561v-75H321v-12q5-144 83-228t207-84q197 0 259 132h207q-12-57-58.5-128.5T908 42Q823-27 783-80.5T743-188q0-47 32.5-73t81.5-26q48 0 67 7v-148q-49-19-116-19zM603 927q-119 0-196-77t-86-205h550q-4 129-76.5 205.5T603 927z"/><glyph glyph-name="Ecaron" unicode="Ě" horiz-adv-x="1239" d="m541 1582-293 306h220l162-175h18l162 175h220l-293-306H541zm556-1378V0H181v1443h916v-204H405V831h655V637H405V204h692z"/><glyph glyph-name="ecaron" unicode="ě" horiz-adv-x="1192" d="M721 1238H487l-280 346h222l167-219h16l167 219h221zM603 927q-119 0-196-77t-86-205h550q-4 129-76.5 205.5T603 927zm267-633h207q-37-147-161.5-231T605-21q-234 0-368.5 150.5T102 541t136 415 366 154q227 0 356.5-146T1090 561v-75H321v-12q5-144 83-228t207-84q197 0 259 132z"/><glyph glyph-name="Gcircumflex" unicode="Ĝ" horiz-adv-x="1539" d="M686 1896h202l295-314H958l-163 181h-16l-163-181H391zm726-1325q0-277-169.5-441.5T789-35q-307 0-487 204T122 722q0 345 181 550.5T787 1478q246 0 412-129.5t203-348.5h-225q-42 131-142 200t-248 69q-200 0-318-147.5T351 724q0-255 118.5-402.5T792 174q177 0 288 99t112 259v31H820v188h592V571z"/><glyph glyph-name="gcircumflex" unicode="ĝ" horiz-adv-x="1274" d="m729 1584 279-346H787l-167 219h-16l-167-219H215l280 346h234zM612 202q137 0 216 96t79 260q0 163-79 259.5T612 914t-213-95.5T323 558t76-260.5T612 202zm3-618q-202 0-328 83.5T144-109h220q14-60 80.5-95T618-239q134 0 209.5 60.5T903-10v209h-16q-49-88-136-135.5T551 16q-207 0-328.5 147.5T101 557q0 250 122 400t330 150q112 0 204-51.5T895 915h17v174h206V-9q0-187-136-297T615-416z"/><glyph glyph-name="Gbreve" unicode="Ğ" horiz-adv-x="1539" d="M1412 571q0-277-169.5-441.5T789-35q-307 0-487 204T122 722q0 345 181 550.5T787 1478q246 0 412-129.5t203-348.5h-225q-42 131-142 200t-248 69q-200 0-318-147.5T351 724q0-255 118.5-402.5T792 174q177 0 288 99t112 259v31H820v188h592V571zM410 1891h173q1-78 56-123.5t148-45.5 148 45.5 56 123.5h173q0-142-101.5-228T787 1577t-275.5 86T410 1891z"/><glyph glyph-name="gbreve" unicode="ğ" horiz-adv-x="1274" d="M233 1576h173q1-85 55-137.5t149-52.5 149 52.5 55 137.5h173q0-150-102-244t-275-94-275 94-102 244zM612 202q137 0 216 96t79 260q0 163-79 259.5T612 914t-213-95.5T323 558t76-260.5T612 202zm3-618q-202 0-328 83.5T144-109h220q14-60 80.5-95T618-239q134 0 209.5 60.5T903-10v209h-16q-49-88-136-135.5T551 16q-207 0-328.5 147.5T101 557q0 250 122 400t330 150q112 0 204-51.5T895 915h17v174h206V-9q0-187-136-297T615-416z"/><glyph glyph-name="Gdotaccent" unicode="Ġ" horiz-adv-x="1539" d="M787 1577q-57 0-95.5 39.5T653 1714t38.5 97.5T787 1851t95.5-39.5T921 1714t-38.5-97.5T787 1577zm625-1006q0-277-169.5-441.5T789-35q-307 0-487 204T122 722q0 345 181 550.5T787 1478q246 0 412-129.5t203-348.5h-225q-42 131-142 200t-248 69q-200 0-318-147.5T351 724q0-255 118.5-402.5T792 174q177 0 288 99t112 259v31H820v188h592V571z"/><glyph glyph-name="gdotaccent" unicode="ġ" horiz-adv-x="1274" d="M612 1283q-59 0-99.5 41.5T472 1425t40.5 100.5T612 1567q58 0 99-41.5t41-100.5-41-100.5-99-41.5zm0-1081q137 0 216 96t79 260q0 163-79 259.5T612 914t-213-95.5T323 558t76-260.5T612 202zm3-618q-202 0-328 83.5T144-109h220q14-60 80.5-95T618-239q134 0 209.5 60.5T903-10v209h-16q-49-88-136-135.5T551 16q-207 0-328.5 147.5T101 557q0 250 122 400t330 150q112 0 204-51.5T895 915h17v174h206V-9q0-187-136-297T615-416z"/><glyph glyph-name="Gcommaaccent" unicode="Ģ" horiz-adv-x="1539" d="M793-514H593l113 368h222zm619 1085q0-277-169.5-441.5T789-35q-307 0-487 204T122 722q0 345 181 550.5T787 1478q246 0 412-129.5t203-348.5h-225q-42 131-142 200t-248 69q-200 0-318-147.5T351 724q0-255 118.5-402.5T792 174q177 0 288 99t112 259v31H820v188h592V571z"/><glyph glyph-name="gcommaaccent" unicode="ģ" horiz-adv-x="1274" d="M627 1657h200l-113-368H492zM612 202q137 0 216 96t79 260q0 163-79 259.5T612 914t-213-95.5T323 558t76-260.5T612 202zm3-618q-202 0-328 83.5T144-109h220q14-60 80.5-95T618-239q134 0 209.5 60.5T903-10v209h-16q-49-88-136-135.5T551 16q-207 0-328.5 147.5T101 557q0 250 122 400t330 150q112 0 204-51.5T895 915h17v174h206V-9q0-187-136-297T615-416z"/><glyph glyph-name="Hcircumflex" unicode="Ĥ" horiz-adv-x="1550" d="M1369 0h-223v633H405V0H181v1443h224V837h741v606h223V0zM674 1896h202l295-314H946l-163 181h-16l-163-181H379z"/><glyph glyph-name="hcircumflex" unicode="ĥ" horiz-adv-x="1249" d="M166 0v1514h213V914h17q40 93 125.5 144t206.5 51q175 0 275-106.5T1103 703V0H888v650q0 130-59 196t-174 66q-130 0-202-75t-72-201V0H166zm6 1967h202l295-314H444l-163 181h-16l-163-181h-225z"/><glyph glyph-name="Hbar" unicode="Ħ" horiz-adv-x="1550" d="M1146 837v229H405V837h741zm357 400v-171h-134V0h-223v633H405V0H181v1066H48v171h133v206h224v-206h741v206h223v-206h134z"/><glyph glyph-name="hbar" unicode="ħ" horiz-adv-x="1249" d="M379 914h17q40 93 125.5 144t206.5 51q175 0 275-106.5T1103 703V0H888v650q0 130-59 196t-174 66q-130 0-202-75t-72-201V0H166v1267H22v137h144v110h213v-110h251v-137H379V914z"/><glyph glyph-name="Itilde" unicode="Ĩ" horiz-adv-x="585" d="M405 0H181v1443h224V0zm34 1577q-44 0-81.5 15.5T294 1630t-48 44.5-45 38-44 15.5q-49 0-71.5-36T63 1578H-95q0 140 65 222t177 82q44 0 81.5-15.5t63.5-38 48-44.5 45-37.5 44-15.5q49 0 71.5 35t22.5 113h158q0-140-65-221t-177-81z"/><glyph glyph-name="itilde" unicode="ĩ" horiz-adv-x="534" d="M160 0v1089h214V0H160zm255 1241q-44 0-81.5 15.5T270 1294t-48 44.5-45 38-44 15.5q-49 0-71.5-36T39 1242h-158q0 140 65 222t177 82q44 0 81.5-15.5t63.5-38 48-44.5 45-37.5 44-15.5q49 0 71.5 35t22.5 113h158q0-140-65-221t-177-81z"/><glyph glyph-name="Imacron" unicode="Ī" horiz-adv-x="585" d="M405 0H181v1443h224V0zm238 1781v-156H-57v156h700z"/><glyph glyph-name="imacron" unicode="ī" horiz-adv-x="534" d="M160 0v1089h214V0H160zm455 1454v-155H-81v155h696z"/><glyph glyph-name="Ibreve" unicode="Ĭ" horiz-adv-x="585" d="M405 0H181v1443h224V0zM-84 1891H89q1-78 56-123.5t148-45.5 148 45.5 56 123.5h173q0-142-101.5-228T293 1577t-275.5 86T-84 1891z"/><glyph glyph-name="ibreve" unicode="ĭ" horiz-adv-x="534" d="M160 0v1089h214V0H160zm-272 1576H61q1-85 55-137.5t149-52.5 149 52.5 55 137.5h173q0-150-102-244t-275-94-275 94-102 244z"/><glyph glyph-name="Iogonek" unicode="Į" horiz-adv-x="585" d="M181-14v1457h224V0l-12-4Q238-82 238-188q0-44 32-71.5t84-27.5q45 0 67 7v-148q-49-19-118-19-112 0-183 59.5T49-234q0 67 34.5 124T181-14z"/><glyph glyph-name="iogonek" unicode="į" horiz-adv-x="534" d="M267 1280q-60 0-99.5 37.5T128 1411t39.5 94 99.5 38 99.5-38 39.5-94-39.5-93.5T267 1280zM160-7v1096h214V0l-15-4Q208-79 208-188q0-46 33.5-72.5T324-287q37 0 67 6v-147q-49-19-116-19-116 0-186.5 61T18-232q0 67 36.5 125.5T160-7z"/><glyph glyph-name="Idotaccent" unicode="İ" horiz-adv-x="585" d="M405 0H181v1443h224V0zM293 1577q-57 0-95.5 39.5T159 1714t38.5 97.5T293 1851t95.5-39.5T427 1714t-38.5-97.5T293 1577z"/><glyph glyph-name="dotlessi" unicode="ı" horiz-adv-x="534" d="M160 0v1089h214V0H160z"/><glyph glyph-name="IJ" unicode="Ĳ" horiz-adv-x="1734" d="M405 0H181v1443h224V0zm262 375h220q2-89 62-144t156-55q108 0 166 63.5t58 183.5v1020h224V422q0-217-118.5-337T1107-35Q910-35 788.5 77.5T667 375z"/><glyph glyph-name="ij" unicode="ĳ" horiz-adv-x="1090" d="M160 0v1089h214V0H160zm107 1280q-60 0-99.5 37.5T128 1411t39.5 94 99.5 38 99.5-38 39.5-94-39.5-93.5T267 1280zm652-191V-45q0-167-86.5-247T568-372q-43 0-48 1v180h30q85 0 120 34t35 114v1132h214zm-107 191q-60 0-99.5 37.5T673 1411t39.5 94 99.5 38 99.5-38 39.5-94-39.5-93.5T812 1280z"/><glyph glyph-name="Jcircumflex" unicode="Ĵ" horiz-adv-x="1148" d="M82 375h220q2-89 62-144t156-55q108 0 166 63.5T744 423v1020h224V422q0-217-118.5-337T522-35Q325-35 203.5 77.5T82 375zm673 1521h202l295-314h-225l-163 181h-16l-163-181H460z"/><glyph glyph-name="jcircumflex" unicode="ĵ" horiz-adv-x="534" d="M369 1089V-45q0-167-86.5-247T18-372q-43 0-48 1v180H0q85 0 120 34t35 114v1132h214zm17 495 279-346H444l-167 219h-16L94 1238h-222l280 346h234z"/><glyph glyph-name="Kcommaaccent" unicode="Ķ" horiz-adv-x="1386" d="M405 0H181v1443h224V767h16l597 676h265L725 816 1331 0h-280L567 655 405 474V0zm265-514H470l113 368h222z"/><glyph glyph-name="kcommaaccent" unicode="ķ" horiz-adv-x="1155" d="m398 635 432 454h254L636 622 1114 0H850L476 480l-95-90V0H166v1514h215V635h17zM620-514H420l113 368h222z"/><glyph glyph-name="Lacute" unicode="Ĺ" horiz-adv-x="1183" d="M405 1582H175l297 306h258zm676-1376V0H181v1443h224V206h676z"/><glyph glyph-name="lacute" unicode="ĺ" horiz-adv-x="547" d="M386 1653H156l297 306h258zM166 0v1514h215V0H166z"/><glyph glyph-name="Lcommaaccent" unicode="Ļ" horiz-adv-x="1183" d="M629-514H429l113 368h222zm452 720V0H181v1443h224V206h676z"/><glyph glyph-name="lcommaaccent" unicode="ļ" horiz-adv-x="547" d="M274-514H74l113 368h222zM166 0v1514h215V0H166z"/><glyph glyph-name="Lcaron" unicode="Ľ" horiz-adv-x="1183" d="M620 1443h197l-50-495H620v495zm461-1237V0H181v1443h224V206h676z"/><glyph glyph-name="lcaron" unicode="ľ" horiz-adv-x="702" d="M527 1514h199l-50-496H527v496zM166 0v1514h215V0H166z"/><glyph glyph-name="Lslash" unicode="Ł" horiz-adv-x="1183" d="M405 206h676V0H181v695L20 617v170l161 78v578h224V974l272 132V935L405 803V206z"/><glyph glyph-name="lslash" unicode="ł" horiz-adv-x="547" d="M508 1038V868l-127-65V0H166v692L40 627v170l126 65v652h215V973z"/><glyph glyph-name="Nacute" unicode="Ń" horiz-adv-x="1539" d="M880 1582H650l297 306h258zM399 0H181v1443h202l741-1025h16v1025h218V0h-202L415 1025h-16V0z"/><glyph glyph-name="nacute" unicode="ń" horiz-adv-x="1227" d="M715 1271H493l251 344h252zM156 0v1089h207V916h16q85 194 325 194 182 0 279.5-105t97.5-300V0H866v651q0 262-235 262-119 0-189.5-74.5T371 637V0H156z"/><glyph glyph-name="Ncommaaccent" unicode="Ņ" horiz-adv-x="1539" d="M768-514H568l113 368h222zM399 0H181v1443h202l741-1025h16v1025h218V0h-202L415 1025h-16V0z"/><glyph glyph-name="ncommaaccent" unicode="ņ" horiz-adv-x="1227" d="M622-514H422l113 368h222zM156 0v1089h207V916h16q85 194 325 194 182 0 279.5-105t97.5-300V0H866v651q0 262-235 262-119 0-189.5-74.5T371 637V0H156z"/><glyph glyph-name="Ncaron" unicode="Ň" horiz-adv-x="1539" d="m670 1582-293 306h220l162-175h18l162 175h220l-293-306H670zM399 0H181v1443h202l741-1025h16v1025h218V0h-202L415 1025h-16V0z"/><glyph glyph-name="ncaron" unicode="ň" horiz-adv-x="1227" d="M739 1238H505l-280 346h222l167-219h16l167 219h221zM156 0v1089h207V916h16q85 194 325 194 182 0 279.5-105t97.5-300V0H866v651q0 262-235 262-119 0-189.5-74.5T371 637V0H156z"/><glyph glyph-name="Omacron" unicode="Ō" horiz-adv-x="1590" d="M796 1478q312 0 492-203.5T1468 722t-180-553T796-35q-313 0-493.5 203.5T122 722q0 349 181.5 552.5T796 1478zm0-209q-204 0-324.5-148T351 722t119-399.5T796 174q205 0 324 148.5T1239 722q0 252-119 399.5T796 1269zm350 512v-156H446v156h700z"/><glyph glyph-name="omacron" unicode="ō" horiz-adv-x="1231" d="M964 1454v-155H268v155h696zM616-21q-240 0-377 151T102 545q0 263 137.5 414T616 1110q238 0 375.5-151T1129 545q0-264-137-415T616-21zm0 191q139 0 215.5 98.5T908 545q0 177-76.5 275.5T616 919q-140 0-216-98t-76-276q0-179 76-277t216-98z"/><glyph glyph-name="Obreve" unicode="Ŏ" horiz-adv-x="1590" d="M796 1478q312 0 492-203.5T1468 722t-180-553T796-35q-313 0-493.5 203.5T122 722q0 349 181.5 552.5T796 1478zm0-209q-204 0-324.5-148T351 722t119-399.5T796 174q205 0 324 148.5T1239 722q0 252-119 399.5T796 1269zm-377 622h173q1-78 56-123.5t148-45.5 148 45.5 56 123.5h173q0-142-101.5-228T796 1577t-275.5 86T419 1891z"/><glyph glyph-name="obreve" unicode="ŏ" horiz-adv-x="1231" d="M237 1576h173q1-85 55-137.5t149-52.5 149 52.5 55 137.5h173q0-150-102-244t-275-94-275 94-102 244zM616-21q-240 0-377 151T102 545q0 263 137.5 414T616 1110q238 0 375.5-151T1129 545q0-264-137-415T616-21zm0 191q139 0 215.5 98.5T908 545q0 177-76.5 275.5T616 919q-140 0-216-98t-76-276q0-179 76-277t216-98z"/><glyph glyph-name="Ohungarumlaut" unicode="Ő" horiz-adv-x="1590" d="M1071 1582H853l289 306h242zm-422 0H431l288 306h242zm147-104q312 0 492-203.5T1468 722t-180-553T796-35q-313 0-493.5 203.5T122 722q0 349 181.5 552.5T796 1478zm0-209q-204 0-324.5-148T351 722t119-399.5T796 174q205 0 324 148.5T1239 722q0 252-119 399.5T796 1269z"/><glyph glyph-name="ohungarumlaut" unicode="ő" horiz-adv-x="1231" d="m685 1271 238 344h228l-267-344H685zm-413 0 238 344h228l-267-344H272zM616-21q-240 0-377 151T102 545q0 263 137.5 414T616 1110q238 0 375.5-151T1129 545q0-264-137-415T616-21zm0 191q139 0 215.5 98.5T908 545q0 177-76.5 275.5T616 919q-140 0-216-98t-76-276q0-179 76-277t216-98z"/><glyph glyph-name="OE" unicode="Œ" horiz-adv-x="2306" d="M808 1269q-209 0-331-147T355 722q0-254 121.5-401T808 174q202 0 319 147t117 401-117 400.5T808 1269zM1276 0v241h-16q-62-124-195-200T777-35q-303 0-477.5 202.5T125 722q0 351 175 553.5T777 1478q152 0 287-74.5t196-192.5h16v232h902v-204h-707V831h670V637h-670V204h707V0h-902z"/><glyph glyph-name="oe" unicode="œ" horiz-adv-x="1998" d="M1417-21q-133 0-239 57t-152 153h-17Q962 93 855 36T613-21q-236 0-372.5 151.5T104 544q0 263 136 414.5T613 1110q133 0 237-56t160-158h17q55 101 157.5 157.5T1416 1110q221 0 350.5-147.5T1896 562v-76h-768v-11q5-144 83-228t206-84q198 0 259 131h207q-37-147-161.5-231T1417-21zm260 667q-3 128-76 205t-191 77q-119 0-196-77t-86-205h549zM325 544q0-178 76.5-276T617 170t215.5 98T909 544q0 179-76.5 277T617 919t-215.5-98.5T325 544z"/><glyph glyph-name="Racute" unicode="Ŕ" horiz-adv-x="1368" d="M736 1582H506l297 306h258zm-331-336V741h322q130 0 201.5 66t71.5 187q0 118-74.5 185T721 1246H405zm0-696V0H181v1443h571q218 0 348-120.5T1230 999q0-146-74.5-256.5T950 587L1274 0h-259L721 550H405z"/><glyph glyph-name="racute" unicode="ŕ" horiz-adv-x="820" d="M496 1271H274l251 344h252zM156 0v1089h207V922h16q23 81 105.5 133t188.5 52q61 0 96-9V886q-39 13-120 13-123 0-200.5-71T371 643V0H156z"/><glyph glyph-name="Rcommaaccent" unicode="Ŗ" horiz-adv-x="1368" d="M405 1246V741h322q130 0 201.5 66t71.5 187q0 118-74.5 185T721 1246H405zm0-696V0H181v1443h571q218 0 348-120.5T1230 999q0-146-74.5-256.5T950 587L1274 0h-259L721 550H405zM624-514H424l113 368h222z"/><glyph glyph-name="rcommaaccent" unicode="ŗ" horiz-adv-x="820" d="M156 0v1089h207V922h16q23 81 105.5 133t188.5 52q61 0 96-9V886q-39 13-120 13-123 0-200.5-71T371 643V0H156zm107-514H63l113 368h222z"/><glyph glyph-name="Rcaron" unicode="Ř" horiz-adv-x="1368" d="M405 1246V741h322q130 0 201.5 66t71.5 187q0 118-74.5 185T721 1246H405zm0-696V0H181v1443h571q218 0 348-120.5T1230 999q0-146-74.5-256.5T950 587L1274 0h-259L721 550H405zm121 1032-293 306h220l162-175h18l162 175h220l-293-306H526z"/><glyph glyph-name="rcaron" unicode="ř" horiz-adv-x="820" d="M520 1238H286L6 1584h222l167-219h16l167 219h221zM156 0v1089h207V922h16q23 81 105.5 133t188.5 52q61 0 96-9V886q-39 13-120 13-123 0-200.5-71T371 643V0H156z"/><glyph glyph-name="Sacute" unicode="Ś" horiz-adv-x="1333" d="M789 1582H559l297 306h258zM113 388h222q14-103 107.5-163.5T681 164q135 0 223.5 62.5T993 385q0 82-65.5 134.5T718 606l-186 45q-196 46-288 143t-92 256q0 193 144.5 310.5T677 1478q220 0 365-116t155-298H979q-16 100-97.5 158T674 1280q-133 0-214-59t-81-156q0-77 61.5-125T643 859l159-39q222-52 320-147.5t98-258.5q0-207-150-328T664-35Q424-35 274.5 80T113 388z"/><glyph glyph-name="sacute" unicode="ś" horiz-adv-x="1104" d="M131 781q0 144 119 236.5t304 92.5q184 0 297-81t129-225H774q-15 61-72.5 96T554 935q-91 0-151-39.5T343 793q0-49 42-81t131-52l181-42q157-36 230.5-107t73.5-190q0-152-127-247T550-21q-194 0-313.5 82.5T103 289h215q21-64 81-100t156-36q101 0 165 41t64 106q0 95-160 133l-190 44q-156 37-229.5 110T131 781zm516 490H425l251 344h252z"/><glyph glyph-name="Scircumflex" unicode="Ŝ" horiz-adv-x="1333" d="M113 388h222q14-103 107.5-163.5T681 164q135 0 223.5 62.5T993 385q0 82-65.5 134.5T718 606l-186 45q-196 46-288 143t-92 256q0 193 144.5 310.5T677 1478q220 0 365-116t155-298H979q-16 100-97.5 158T674 1280q-133 0-214-59t-81-156q0-77 61.5-125T643 859l159-39q222-52 320-147.5t98-258.5q0-207-150-328T664-35Q424-35 274.5 80T113 388zm463 1508h202l295-314H848l-163 181h-16l-163-181H281z"/><glyph glyph-name="scircumflex" unicode="ŝ" horiz-adv-x="1104" d="m671 1584 279-346H729l-167 219h-16l-167-219H157l280 346h234zM131 781q0 144 119 236.5t304 92.5q184 0 297-81t129-225H774q-15 61-72.5 96T554 935q-91 0-151-39.5T343 793q0-49 42-81t131-52l181-42q157-36 230.5-107t73.5-190q0-152-127-247T550-21q-194 0-313.5 82.5T103 289h215q21-64 81-100t156-36q101 0 165 41t64 106q0 95-160 133l-190 44q-156 37-229.5 110T131 781z"/><glyph glyph-name="Scedilla" unicode="Ş" horiz-adv-x="1333" d="m643 859 159-39q222-52 320-147.5t98-258.5q0-192-130-311T733-33l-35-89q99-2 153.5-46T906-291q0-89-67-142t-185-53q-85 0-147 17v120q46-14 120-14 116 0 116 67 0 32-33 46.5T601-235h-59v97l45 106Q379-13 251.5 99T113 388h222q14-103 107.5-163.5T681 164q135 0 223.5 62.5T993 385q0 82-65.5 134.5T718 606l-186 45q-196 46-288 143t-92 256q0 193 144.5 310.5T677 1478q220 0 365-116t155-298H979q-16 100-97.5 158T674 1280q-133 0-214-59t-81-156q0-77 61.5-125T643 859z"/><glyph glyph-name="scedilla" unicode="ş" horiz-adv-x="1104" d="m516 660 181-42q157-36 230.5-107t73.5-190q0-137-104-228.5T625-17l-41-105q99-2 153.5-46T792-291q0-89-67-142t-185-53q-85 0-147 17v120q46-14 120-14 116 0 116 67 0 32-33 46.5T487-235h-59v97l50 120Q314-3 215 77.5T103 289h215q21-64 81-100t156-36q101 0 165 41t64 106q0 95-160 133l-190 44q-156 37-229.5 110T131 781q0 144 119 236.5t304 92.5q184 0 297-81t129-225H774q-15 61-72.5 96T554 935q-91 0-151-39.5T343 793q0-49 42-81t131-52z"/><glyph glyph-name="Scaron" unicode="Š" horiz-adv-x="1333" d="M113 388h222q14-103 107.5-163.5T681 164q135 0 223.5 62.5T993 385q0 82-65.5 134.5T718 606l-186 45q-196 46-288 143t-92 256q0 193 144.5 310.5T677 1478q220 0 365-116t155-298H979q-16 100-97.5 158T674 1280q-133 0-214-59t-81-156q0-77 61.5-125T643 859l159-39q222-52 320-147.5t98-258.5q0-207-150-328T664-35Q424-35 274.5 80T113 388zm466 1194-293 306h220l162-175h18l162 175h220l-293-306H579z"/><glyph glyph-name="scaron" unicode="š" horiz-adv-x="1104" d="M671 1238H437l-280 346h222l167-219h16l167 219h221zM131 781q0 144 119 236.5t304 92.5q184 0 297-81t129-225H774q-15 61-72.5 96T554 935q-91 0-151-39.5T343 793q0-49 42-81t131-52l181-42q157-36 230.5-107t73.5-190q0-152-127-247T550-21q-194 0-313.5 82.5T103 289h215q21-64 81-100t156-36q101 0 165 41t64 106q0 95-160 133l-190 44q-156 37-229.5 110T131 781z"/><glyph glyph-name="Tcedilla" unicode="Ţ" horiz-adv-x="1317" d="M771 0h-1l-48-122q99-2 153.5-46T930-291q0-89-67-142t-185-53q-85 0-147 17v120q46-14 120-14 116 0 116 67 0 32-33 46.5T625-235h-59v97L624 0h-77v1239H93v204h1131v-204H771V0z"/><glyph glyph-name="tcedilla" unicode="ţ" horiz-adv-x="780" d="M683 903H447V343q0-85 37-124.5T601 179q32 0 82 5V5Q619-6 566-6q-32 0-47 1l-46-117q99-2 153.5-46T681-291q0-89-67-142t-185-53q-85 0-147 17v120q46-14 120-14 116 0 116 67 0 32-33 46.5T376-235h-59v97l66 158q-79 29-115 93.5T232 288v615H59v181h173v276h215v-276h236V903z"/><glyph glyph-name="Tcaron" unicode="Ť" horiz-adv-x="1317" d="m560 1582-293 306h220l162-175h18l162 175h220l-293-306H560zM771 0H547v1239H93v204h1131v-204H771V0z"/><glyph glyph-name="tcaron" unicode="ť" horiz-adv-x="780" d="M569 1727h199l-50-495H569v495zm-337-367h215v-276h236V903H447V343q0-85 37-124.5T601 179q32 0 82 5V5Q619-6 566-6 387-6 309.5 62T232 288v615H59v181h173v276z"/><glyph glyph-name="Tbar" unicode="Ŧ" horiz-adv-x="1317" d="M1224 1239H771V796h296V621H771V0H547v621H248v175h299v443H93v204h1131v-204z"/><glyph glyph-name="tbar" unicode="ŧ" horiz-adv-x="776" d="M694 494H447V343q0-85 37-124.5T601 179q32 0 82 5V5Q619-6 566-6 387-6 309.5 62T232 288v206H56v151h176v258H59v181h173v276h215v-276h236V903H447V645h247V494z"/><glyph glyph-name="Utilde" unicode="Ũ" horiz-adv-x="1539" d="M409 1443V517q0-154 95.5-248T769 175q170 0 265.5 94t95.5 248v926h224V497q0-238-158.5-385T769-35 343 112 185 497v946h224zm506 134q-44 0-81.5 15.5T770 1630t-48 44.5-45 38-44 15.5q-49 0-71.5-36T539 1578H381q0 140 65 222t177 82q44 0 81.5-15.5t63.5-38 48-44.5 45-37.5 44-15.5q49 0 71.5 35t22.5 113h158q0-140-65-221t-177-81z"/><glyph glyph-name="utilde" unicode="ũ" horiz-adv-x="1230" d="M1074 1089V0H867v173h-17Q767-21 521-21 341-21 243.5 84T146 382v707h215V438q0-133 55.5-196.5T590 178q129 0 199 72.5T859 452v637h215zm-316 152q-44 0-81.5 15.5T613 1294t-48 44.5-45 38-44 15.5q-49 0-71.5-36T382 1242H224q0 140 65 222t177 82q44 0 81.5-15.5t63.5-38 48-44.5 45-37.5 44-15.5q49 0 71.5 35t22.5 113h158q0-140-65-221t-177-81z"/><glyph glyph-name="Umacron" unicode="Ū" horiz-adv-x="1539" d="M409 1443V517q0-154 95.5-248T769 175q170 0 265.5 94t95.5 248v926h224V497q0-238-158.5-385T769-35 343 112 185 497v946h224zm710 338v-156H419v156h700z"/><glyph glyph-name="umacron" unicode="ū" horiz-adv-x="1230" d="M1074 1089V0H867v173h-17Q767-21 521-21 341-21 243.5 84T146 382v707h215V438q0-133 55.5-196.5T590 178q129 0 199 72.5T859 452v637h215zm-116 365v-155H262v155h696z"/><glyph glyph-name="Ubreve" unicode="Ŭ" horiz-adv-x="1539" d="M409 1443V517q0-154 95.5-248T769 175q170 0 265.5 94t95.5 248v926h224V497q0-238-158.5-385T769-35 343 112 185 497v946h224zm-17 448h173q1-78 56-123.5t148-45.5 148 45.5 56 123.5h173q0-142-101.5-228T769 1577t-275.5 86T392 1891z"/><glyph glyph-name="ubreve" unicode="ŭ" horiz-adv-x="1230" d="M1074 1089V0H867v173h-17Q767-21 521-21 341-21 243.5 84T146 382v707h215V438q0-133 55.5-196.5T590 178q129 0 199 72.5T859 452v637h215zm-843 487h173q1-85 55-137.5t149-52.5 149 52.5 55 137.5h173q0-150-102-244t-275-94-275 94-102 244z"/><glyph glyph-name="Uring" unicode="Ů" horiz-adv-x="1539" d="M769 1549q-84 0-142.5 57T568 1747t58 141 143 57 143-57 58-141-58-141-143-57zm0 98q44 0 72.5 28.5T870 1747q0 44-28.5 72t-72.5 28-72.5-28-28.5-72q0-43 28.5-71.5T769 1647zm-360-204V517q0-154 95.5-248T769 175q170 0 265.5 94t95.5 248v926h224V497q0-238-158.5-385T769-35 343 112 185 497v946h224z"/><glyph glyph-name="uring" unicode="ů" horiz-adv-x="1230" d="M1074 1089V0H867v173h-17Q767-21 521-21 341-21 243.5 84T146 382v707h215V438q0-133 55.5-196.5T590 178q129 0 199 72.5T859 452v637h215zm-464 149q-99 0-168 67.5T373 1472t68.5 166 168.5 67 168.5-67 68.5-166-69-166.5-168-67.5zm0 119q50 0 83 32.5t33 82.5q0 49-33 81.5t-83 32.5-83-32.5-33-81.5q0-50 33-82.5t83-32.5z"/><glyph glyph-name="Uhungarumlaut" unicode="Ű" horiz-adv-x="1539" d="M409 1443V517q0-154 95.5-248T769 175q170 0 265.5 94t95.5 248v926h224V497q0-238-158.5-385T769-35 343 112 185 497v946h224zm635 139H826l289 306h242zm-422 0H404l288 306h242z"/><glyph glyph-name="uhungarumlaut" unicode="ű" horiz-adv-x="1230" d="m679 1271 238 344h228l-267-344H679zm-413 0 238 344h228l-267-344H266zm808-182V0H867v173h-17Q767-21 521-21 341-21 243.5 84T146 382v707h215V438q0-133 55.5-196.5T590 178q129 0 199 72.5T859 452v637h215z"/><glyph glyph-name="Uogonek" unicode="Ų" horiz-adv-x="1538" d="M1035-447q-114 0-184.5 59.5T780-237q0 68 37.5 122T912-27v17q-48-25-143-25-264 0-424 145.5T185 497v946h224V517q0-157 97.5-249.5T769 175q166 0 263.5 92.5T1130 517v926h224V497q0-136-59.5-249T1105 22Q970-96 970-188q0-46 33-72.5t81-26.5q46 0 67 7v-148q-49-19-116-19z"/><glyph glyph-name="uogonek" unicode="ų" horiz-adv-x="1230" d="M1056-428q-52-19-117-19-112 0-183 59.5T685-234q0 77 51.5 142T867 4v169h-17Q767-21 521-21 341-21 243.5 84T146 382v707h215V438q0-133 55.5-196.5T590 178q129 0 199 72.5T859 452v637h215V0l-21-6q-81-28-130-77.5T874-190q0-43 31.5-70t82.5-27q48 0 68 7v-148z"/><glyph glyph-name="Wcircumflex" unicode="Ŵ" horiz-adv-x="2013" d="M905 1896h202l295-314h-225l-163 181h-16l-163-181H610zm94-837L690 0H478L89 1443h233L587 338h14l301 1105h208l303-1105h14l264 1105h233L1534 0h-211l-310 1059h-14z"/><glyph glyph-name="wcircumflex" unicode="ŵ" horiz-adv-x="1640" d="m938 1584 279-346H996l-167 219h-16l-167-219H424l280 346h234zm636-495L1275 0h-223L827 802h-17L586 0H365L65 1089h218l195-831h16l224 831h206l224-831h17l194 831h215z"/><glyph glyph-name="Ycircumflex" unicode="Ŷ" horiz-adv-x="1383" d="M803 0H579v582L71 1443h249l363-625h17l363 625h249L803 582V0zM590 1896h202l295-314H862l-163 181h-16l-163-181H295z"/><glyph glyph-name="ycircumflex" unicode="ŷ" horiz-adv-x="1152" d="M264-395q-56 0-89 5v185q23-4 70-4 77 0 123 35t74 117l16 53L64 1089h234l273-865h17l272 865h228L682-45q-70-198-160.5-274T264-395zm427 1979 279-346H749l-167 219h-16l-167-219H177l280 346h234z"/><glyph glyph-name="Ydieresis" unicode="Ÿ" horiz-adv-x="1383" d="M803 0H579v582L71 1443h249l363-625h17l363 625h249L803 582V0zM478 1577q-57 0-95.5 38.5T344 1711t38.5 96 95.5 39q56 0 94.5-39t38.5-96-38.5-95.5T478 1577zm427 0q-56 0-95 38.5t-39 95.5 39 96 95 39 94.5-39 38.5-96-38.5-95.5T905 1577z"/><glyph glyph-name="Zacute" unicode="Ź" horiz-adv-x="1365" d="M795 1582H565l297 306h258zM141 0v161l784 1061v17H165v204h1041v-161L426 221v-17h799V0H141z"/><glyph glyph-name="zacute" unicode="ź" horiz-adv-x="1124" d="M649 1271H427l251 344h252zM131 0v146l599 744v17H135v182h852V932L401 199v-17h592V0H131z"/><glyph glyph-name="Zdotaccent" unicode="Ż" horiz-adv-x="1365" d="M683 1577q-57 0-95.5 39.5T549 1714t38.5 97.5T683 1851t95.5-39.5T817 1714t-38.5-97.5T683 1577zM141 0v161l784 1061v17H165v204h1041v-161L426 221v-17h799V0H141z"/><glyph glyph-name="zdotaccent" unicode="ż" horiz-adv-x="1124" d="M556 1283q-59 0-99.5 41.5T416 1425t40.5 100.5T556 1567q58 0 99-41.5t41-100.5-41-100.5-99-41.5zM131 0v146l599 744v17H135v182h852V932L401 199v-17h592V0H131z"/><glyph glyph-name="Zcaron" unicode="Ž" horiz-adv-x="1365" d="M141 0v161l784 1061v17H165v204h1041v-161L426 221v-17h799V0H141zm444 1582-293 306h220l162-175h18l162 175h220l-293-306H585z"/><glyph glyph-name="zcaron" unicode="ž" horiz-adv-x="1124" d="M673 1238H439l-280 346h222l167-219h16l167 219h221zM131 0v146l599 744v17H135v182h852V932L401 199v-17h592V0H131z"/><glyph glyph-name="florin" unicode="ƒ" horiz-adv-x="1359" d="M1264 1445v-195q-74 20-182 20-217 0-247-207l-28-190h361V697H780l-52-348Q700 156 595.5 66T305-24Q189-24 88 1v202q92-31 193-31 201 0 229 191l50 334H232v176h354l31 210q28 186 139.5 283t298.5 97q133 0 209-18z"/><glyph glyph-name="Ohorn" unicode="Ơ" horiz-adv-x="1625" d="M796-35q-313 0-493.5 203.5T122 722q0 349 181.5 552.5T796 1478q80 0 213-22t209-22q60 0 84.5 21t24.5 70v151h185v-211q0-88-53.5-138t-137.5-50h-60v-13q92-66 149.5-216t57.5-326q0-349-180-553T796-35zm0 209q205 0 324 148.5T1239 722q0 252-119 399.5T796 1269q-204 0-324.5-148T351 722t119-399.5T796 174z"/><glyph glyph-name="ohorn" unicode="ơ" horiz-adv-x="1295" d="M616 170q139 0 215.5 98.5T908 545t-76.5 276T616 919t-215.5-98T324 545q0-179 76.5-277T616 170zm513 375q0-264-137-415T616-21q-240 0-377 151T102 545q0 262 137.5 413.5T616 1110q69 0 149.5-15t130.5-15q62 0 85.5 20t23.5 69v141h185v-204q0-82-45-128t-112-46h-52v-10q66-46 107-147.5t41-229.5z"/><glyph glyph-name="Uhorn" unicode="Ư" horiz-adv-x="1692" d="M769-35q-264 0-424 145.5T185 497v946h224V517q0-157 97.5-249.5T769 175q166 0 263.5 92.5T1130 517v926h229q87 0 87 83v170h185v-213q0-96-57.5-147.5T1420 1284h-66V497q0-241-160.5-386.5T769-35z"/><glyph glyph-name="uhorn" unicode="ư" horiz-adv-x="1385" d="M850 173Q767-21 521-21 341-21 243.5 84.5T146 382v707h215V438q0-132 55.5-196T590 178q129 0 199 72t70 202v637h197q86 0 86 83v155h185v-198q0-96-57.5-147.5T1116 930h-42V0H867v173h-17z"/><glyph glyph-name="uni01C4" unicode="Ǆ" horiz-adv-x="2871" d="M181 1443h521q321 0 500-188.5T1381 726q0-346-178-536T702 0H181v1443zm224-204V204h272q227 0 351.5 135.5T1153 723q0 244-125.5 380T677 1239H405zM1647 0v161l784 1061v17h-760v204h1041v-161L1932 221v-17h799V0H1647zm444 1582-293 306h220l162-175h18l162 175h220l-293-306h-196z"/><glyph glyph-name="uni01C5" unicode="ǅ" horiz-adv-x="2630" d="M181 1443h521q321 0 500-188.5T1381 726q0-346-178-536T702 0H181v1443zm224-204V204h272q227 0 351.5 135.5T1153 723q0 244-125.5 380T677 1239H405zm1774-1h-234l-280 346h222l167-219h16l167 219h221zM1637 0v146l599 744v17h-595v182h852V932l-586-733v-17h592V0h-862z"/><glyph glyph-name="uni01C6" unicode="ǆ" horiz-adv-x="2413" d="M554-18q-208 0-330 152T102 545q0 258 122.5 410T554 1107q112 0 201-50.5T888 916h16v598h215V0H913v172h-17Q847 83 756.5 32.5T554-18zm61 932q-136 0-213.5-98.5T324 545q0-173 77.5-271.5T615 175t214.5 99T908 544q0 170-79 270T615 914zm1347 324h-234l-280 346h222l167-219h16l167 219h221zM1420 0v146l599 744v17h-595v182h852V932l-586-733v-17h592V0h-862z"/><glyph glyph-name="uni01C7" unicode="Ǉ" horiz-adv-x="2329" d="M1263 375h220q2-89 62-144t156-55q108 0 166 63.5t58 183.5v1020h224V422q0-217-118.5-337T1703-35q-197 0-318.5 112.5T1263 375zm-182-169V0H181v1443h224V206h676z"/><glyph glyph-name="uni01C8" unicode="ǈ" horiz-adv-x="1726" d="M1555 1089V-45q0-167-86.5-247T1204-372q-43 0-48 1v180h30q85 0 120 34t35 114v1132h214zm-107 191q-60 0-99.5 37.5T1309 1411t39.5 94 99.5 38 99.5-38 39.5-94-39.5-93.5-99.5-37.5zM1081 206V0H181v1443h224V206h676z"/><glyph glyph-name="uni01C9" unicode="ǉ" horiz-adv-x="1090" d="M919 1089V-45q0-167-86.5-247T568-372q-43 0-48 1v180h30q85 0 120 34t35 114v1132h214zm-107 191q-60 0-99.5 37.5T673 1411t39.5 94 99.5 38 99.5-38 39.5-94-39.5-93.5T812 1280zM166 0v1514h215V0H166z"/><glyph glyph-name="uni01CA" unicode="Ǌ" horiz-adv-x="2688" d="M1621 375h220q2-89 62-144t156-55q108 0 166 63.5t58 183.5v1020h224V422q0-217-118.5-337T2061-35q-197 0-318.5 112.5T1621 375zM399 0H181v1443h202l741-1025h16v1025h218V0h-202L415 1025h-16V0z"/><glyph glyph-name="uni01CB" unicode="ǋ" horiz-adv-x="2084" d="M1913 1089V-45q0-167-86.5-247T1562-372q-43 0-48 1v180h30q85 0 120 34t35 114v1132h214zm-107 191q-60 0-99.5 37.5T1667 1411t39.5 94 99.5 38 99.5-38 39.5-94-39.5-93.5-99.5-37.5zM399 0H181v1443h202l741-1025h16v1025h218V0h-202L415 1025h-16V0z"/><glyph glyph-name="uni01CC" unicode="ǌ" horiz-adv-x="1761" d="M1601 1089V-45q0-167-86.5-247T1250-372q-43 0-48 1v180h30q85 0 120 34t35 114v1132h214zm-107 191q-60 0-99.5 37.5T1355 1411t39.5 94 99.5 38 99.5-38 39.5-94-39.5-93.5-99.5-37.5zM156 0v1089h207V916h16q85 194 325 194 182 0 279.5-105t97.5-300V0H866v651q0 262-235 262-119 0-189.5-74.5T371 637V0H156z"/><glyph glyph-name="Acaron" unicode="Ǎ" horiz-adv-x="1423" d="M1115 0 983 383H433L300 0H70l521 1443h241L1353 0h-238zM700 1181 490 571h436l-209 610h-17zm-86 401-293 306h220l162-175h18l162 175h220l-293-306H614z"/><glyph glyph-name="acaron" unicode="ǎ" horiz-adv-x="1158" d="M512 163q121 0 201.5 68T794 401v91l-266-17q-112-7-165-46t-53-111 56-113.5T512 163zM457-18q-160 0-261.5 89.5T94 308q0 146 105 229.5T499 633l295 17v94q0 87-57 133.5T571 924q-90 0-149.5-31.5T344 803H136q16 140 137.5 223.5T581 1110q204 0 315.5-96.5T1008 744V0H801v153h-17Q735 71 649.5 26.5T457-18zm241 1256H464l-280 346h222l167-219h16l167 219h221z"/><glyph glyph-name="Icaron" unicode="Ǐ" horiz-adv-x="585" d="M405 0H181v1443h224V0zM195 1582l-293 306h220l162-175h18l162 175h220l-293-306H195z"/><glyph glyph-name="icaron" unicode="ǐ" horiz-adv-x="534" d="M384 1238H150l-280 346H92l167-219h16l167 219h221zM160 0v1089h214V0H160z"/><glyph glyph-name="Ocaron" unicode="Ǒ" horiz-adv-x="1590" d="m698 1582-293 306h220l162-175h18l162 175h220l-293-306H698zm98-104q312 0 492-203.5T1468 722t-180-553T796-35q-313 0-493.5 203.5T122 722q0 349 181.5 552.5T796 1478zm0-209q-204 0-324.5-148T351 722t119-399.5T796 174q205 0 324 148.5T1239 722q0 252-119 399.5T796 1269z"/><glyph glyph-name="ocaron" unicode="ǒ" horiz-adv-x="1231" d="M733 1238H499l-280 346h222l167-219h16l167 219h221zM616-21q-240 0-377 151T102 545q0 263 137.5 414T616 1110q238 0 375.5-151T1129 545q0-264-137-415T616-21zm0 191q139 0 215.5 98.5T908 545q0 177-76.5 275.5T616 919q-140 0-216-98t-76-276q0-179 76-277t216-98z"/><glyph glyph-name="Ucaron" unicode="Ǔ" horiz-adv-x="1539" d="m671 1582-293 306h220l162-175h18l162 175h220l-293-306H671zm-262-139V517q0-154 95.5-248T769 175q170 0 265.5 94t95.5 248v926h224V497q0-238-158.5-385T769-35 343 112 185 497v946h224z"/><glyph glyph-name="ucaron" unicode="ǔ" horiz-adv-x="1230" d="M727 1238H493l-280 346h222l167-219h16l167 219h221zm347-149V0H867v173h-17Q767-21 521-21 341-21 243.5 84T146 382v707h215V438q0-133 55.5-196.5T590 178q129 0 199 72.5T859 452v637h215z"/><glyph glyph-name="Udieresismacron" unicode="Ǖ" horiz-adv-x="1539" d="M409 1443V517q0-154 95.5-248T769 175q170 0 265.5 94t95.5 248v926h224V497q0-238-158.5-385T769-35 343 112 185 497v946h224zm146 397q55 0 92.5-38t37.5-94-37.5-93.5T555 1577t-92.5 38-37.5 93q0 56 37.5 94t92.5 38zm-136 267h700v-147H419v147zm564-267q55 0 92.5-38t37.5-94q0-55-37.5-93t-92.5-38-92.5 37.5T853 1708t37.5 94 92.5 38z"/><glyph glyph-name="udieresismacron" unicode="ǖ" horiz-adv-x="1230" d="M1074 1089V0H867v173h-17Q767-21 521-21 341-21 243.5 84T146 382v707h215V438q0-133 55.5-196.5T590 178q129 0 199 72.5T859 452v637h215zm-673 149q-54 0-90.5 37.5T274 1367q0 55 36.5 92.5T401 1497t90.5-37.5T528 1367q0-54-36.5-91.5T401 1238zm418 0q-54 0-90.5 37.5T692 1367q0 55 36.5 92.5T819 1497t90.5-37.5T946 1367q0-54-36.5-91.5T819 1238zm139 562v-155H262v155h696z"/><glyph glyph-name="Udieresisacute" unicode="Ǘ" horiz-adv-x="1539" d="m669 1901 207 231h251l-258-231H669zm-114-324q-56 0-94.5 38.5T422 1711t38.5 96 94.5 39q57 0 95.5-39t38.5-96-38.5-95.5T555 1577zm428 0q-57 0-95.5 38.5T849 1711t38.5 96 95.5 39q56 0 94.5-39t38.5-96-38.5-95.5T983 1577zm-574-134V517q0-154 95.5-248T769 175q170 0 265.5 94t95.5 248v926h224V497q0-238-158.5-385T769-35 343 112 185 497v946h224z"/><glyph glyph-name="udieresisacute" unicode="ǘ" horiz-adv-x="1230" d="m500 1604 196 306h228l-229-306H500zm-103-365q-57 0-95.5 38.5T263 1373t38.5 96 95.5 39q56 0 94.5-39t38.5-96-38.5-95.5T397 1239zm427 0q-56 0-95 38.5t-39 95.5 39 96 95 39 94.5-39 38.5-96-38.5-95.5T824 1239zm250-150V0H867v173h-17Q767-21 521-21 341-21 243.5 84T146 382v707h215V438q0-133 55.5-196.5T590 178q129 0 199 72.5T859 452v637h215z"/><glyph glyph-name="Udieresiscaron" unicode="Ǚ" horiz-adv-x="1539" d="m658 1883-289 262h237l154-148h18l154 148h237l-289-262H658zm-103-55q55 0 92.5-37t37.5-92q0-54-37.5-91.5T555 1570t-92 37.5-37 91.5q0 55 37 92t92 37zm428 0q55 0 92-37t37-92q0-54-37-91.5t-92-37.5-92.5 37.5T853 1699q0 55 37.5 92t92.5 37zm-574-385V517q0-154 95.5-248T769 175q170 0 265.5 94t95.5 248v926h224V497q0-238-158.5-385T769-35 343 112 185 497v946h224z"/><glyph glyph-name="udieresiscaron" unicode="ǚ" horiz-adv-x="1230" d="M401 1238q-54 0-90.5 37.5T274 1367q0 55 36.5 92.5T401 1497t90.5-37.5T528 1367q0-54-36.5-91.5T401 1238zm418 0q-54 0-90.5 37.5T692 1367q0 55 36.5 92.5T819 1497t90.5-37.5T946 1367q0-54-36.5-91.5T819 1238zm-95 358H496l-278 331h219l165-207h16l165 207h219zm350-507V0H867v173h-17Q767-21 521-21 341-21 243.5 84T146 382v707h215V438q0-133 55.5-196.5T590 178q129 0 199 72.5T859 452v637h215z"/><glyph glyph-name="Udieresisgrave" unicode="Ǜ" horiz-adv-x="1539" d="M883 1901H684l-258 231h250zm-328-324q-56 0-94.5 38.5T422 1711t38.5 96 94.5 39q57 0 95.5-39t38.5-96-38.5-95.5T555 1577zm428 0q-57 0-95.5 38.5T849 1711t38.5 96 95.5 39q56 0 94.5-39t38.5-96-38.5-95.5T983 1577zm-574-134V517q0-154 95.5-248T769 175q170 0 265.5 94t95.5 248v926h224V497q0-238-158.5-385T769-35 343 112 185 497v946h224z"/><glyph glyph-name="udieresisgrave" unicode="ǜ" horiz-adv-x="1230" d="M720 1604H525l-229 306h228zm-323-363q-57 0-95.5 38.5T263 1375t38.5 96 95.5 39q56 0 94.5-39t38.5-96-38.5-95.5T397 1241zm427 0q-56 0-95 38.5t-39 95.5 39 96 95 39 94.5-39 38.5-96-38.5-95.5T824 1241zm250-152V0H867v173h-17Q767-21 521-21 341-21 243.5 84T146 382v707h215V438q0-133 55.5-196.5T590 178q129 0 199 72.5T859 452v637h215z"/><glyph glyph-name="Adieresismacron" unicode="Ǟ" horiz-adv-x="1423" d="M1115 0 983 383H433L300 0H70l521 1443h241L1353 0h-238zM700 1181 490 571h436l-209 610h-17zm-202 659q55 0 92.5-38t37.5-94-37.5-93.5T498 1577t-92.5 38-37.5 93q0 56 37.5 94t92.5 38zm-136 267h700v-147H362v147zm564-267q55 0 92.5-38t37.5-94q0-55-37.5-93t-92.5-38-92.5 37.5T796 1708t37.5 94 92.5 38z"/><glyph glyph-name="adieresismacron" unicode="ǟ" horiz-adv-x="1158" d="M512 163q121 0 201.5 68T794 401v91l-266-17q-112-7-165-46t-53-111 56-113.5T512 163zM457-18q-160 0-261.5 89.5T94 308q0 146 105 229.5T499 633l295 17v94q0 87-57 133.5T571 924q-90 0-149.5-31.5T344 803H136q16 140 137.5 223.5T581 1110q204 0 315.5-96.5T1008 744V0H801v153h-17Q735 71 649.5 26.5T457-18zm-85 1256q-54 0-90.5 37.5T245 1367q0 55 36.5 92.5T372 1497t90.5-37.5T499 1367q0-54-36.5-91.5T372 1238zm418 0q-54 0-90.5 37.5T663 1367q0 55 36.5 92.5T790 1497t90.5-37.5T917 1367q0-54-36.5-91.5T790 1238zm139 562v-155H233v155h696z"/><glyph glyph-name="Adotmacron" unicode="Ǡ" horiz-adv-x="1423" d="M1115 0 983 383H433L300 0H70l521 1443h241L1353 0h-238zM700 1181 490 571h436l-209 610h-17zm12 395q-56 0-94 38t-38 94 38 94 94 38 94-38 38-94-38-94-94-38zm350 531v-147H362v147h700z"/><glyph glyph-name="adotmacron" unicode="ǡ" horiz-adv-x="1158" d="M512 163q121 0 201.5 68T794 401v91l-266-17q-112-7-165-46t-53-111 56-113.5T512 163zM457-18q-160 0-261.5 89.5T94 308q0 146 105 229.5T499 633l295 17v94q0 87-57 133.5T571 924q-90 0-149.5-31.5T344 803H136q16 140 137.5 223.5T581 1110q204 0 315.5-96.5T1008 744V0H801v153h-17Q735 71 649.5 26.5T457-18zm124 1256q-56 0-93 38t-37 94q0 57 37 95t93 38 93-38 37-95q0-56-37-94t-93-38zm348 562v-155H233v155h696z"/><glyph glyph-name="AEmacron" unicode="Ǣ" horiz-adv-x="1999" d="M847 1253 559 606h428v647H847zM987 0v417H483L294 0H70l631 1443h1156v-204h-655V824h618V629h-618V204h655V0H987zm832 1781v-156h-700v156h700z"/><glyph glyph-name="aemacron" unicode="ǣ" horiz-adv-x="1868" d="M1297-21q-129 0-235.5 59.5T909 195h-17Q836 94 730.5 36.5T486-21q-177 0-284.5 90T94 308q0 146 105 229.5T499 633l295 17v87q0 91-57.5 139T571 924q-91 0-150-31.5T344 803H136q16 137 136 222t298 85q126 0 215.5-47T921 937h17q52 77 147.5 125t208.5 48q219 0 344-143.5T1763 572v-79h-760v-21q5-141 85.5-225t210.5-84q180 0 245 131h207q-38-149-157.5-232T1297-21zm-15 949q-120 0-195.5-75T1003 652h542q-4 122-77 199t-186 77zM520 161q119 0 196.5 71T794 404v88l-266-17q-112-7-165-46t-53-112 57.5-114.5T520 161zm783 1293v-155H607v155h696z"/><glyph glyph-name="Gcaron" unicode="Ǧ" horiz-adv-x="1539" d="m689 1582-293 306h220l162-175h18l162 175h220l-293-306H689zm723-1011q0-277-169.5-441.5T789-35q-307 0-487 204T122 722q0 345 181 550.5T787 1478q246 0 412-129.5t203-348.5h-225q-42 131-142 200t-248 69q-200 0-318-147.5T351 724q0-255 118.5-402.5T792 174q177 0 288 99t112 259v31H820v188h592V571z"/><glyph glyph-name="gcaron" unicode="ǧ" horiz-adv-x="1274" d="M729 1238H495l-280 346h222l167-219h16l167 219h221zM612 202q137 0 216 96t79 260q0 163-79 259.5T612 914t-213-95.5T323 558t76-260.5T612 202zm3-618q-202 0-328 83.5T144-109h220q14-60 80.5-95T618-239q134 0 209.5 60.5T903-10v209h-16q-49-88-136-135.5T551 16q-207 0-328.5 147.5T101 557q0 250 122 400t330 150q112 0 204-51.5T895 915h17v174h206V-9q0-187-136-297T615-416z"/><glyph glyph-name="Kcaron" unicode="Ǩ" horiz-adv-x="1386" d="M405 0H181v1443h224V767h16l597 676h265L725 816 1331 0h-280L567 655 405 474V0zm167 1582-293 306h220l162-175h18l162 175h220l-293-306H572z"/><glyph glyph-name="kcaron" unicode="ǩ" horiz-adv-x="1155" d="m398 635 432 454h254L636 622 1114 0H850L476 480l-95-90V0H166v1514h215V635h17zM176 1653l-293 306h220l162-175h18l162 175h220l-293-306H176z"/><glyph glyph-name="Oogonek" unicode="Ǫ" horiz-adv-x="1590" d="M1060-447q-112 0-183.5 59T805-237q0 63 35 118t97 92v17q-17-10-58.5-17.5T796-35q-312 0-493 203.5T122 722q0 348 182 552t492 204q311 0 491.5-203.5T1468 722q0-219-80-387T1132 19Q995-95 995-188q0-43 31-71t83-28q47 0 67 7v-148q-52-19-116-19zM796 1269q-204 0-324.5-148T351 722q0-253 120-400.5T796 174q204 0 323.5 148T1239 722t-119 399.5T796 1269z"/><glyph glyph-name="oogonek" unicode="ǫ" horiz-adv-x="1231" d="M815-447q-114 0-184.5 60.5T560-234q0 60 34 114.5T691-26v17q-22-12-75-12-240 0-377 151T102 545q0 262 137.5 413.5T616 1110t376-151 137-414q0-319-244-528-135-118-135-205 0-47 32.5-73t81.5-26q46 0 67 7v-148q-49-19-116-19zM616 170q139 0 215.5 98.5T908 545t-76.5 276T616 919t-215.5-98T324 545q0-179 76.5-277T616 170z"/><glyph glyph-name="Oogonekmacron" unicode="Ǭ" horiz-adv-x="1590" d="M1060-447q-112 0-183.5 59T805-237q0 63 35 118t97 92v17q-17-10-58.5-17.5T796-35q-312 0-493 203.5T122 722q0 348 182 552t492 204q311 0 491.5-203.5T1468 722q0-219-80-387T1132 19Q995-95 995-188q0-43 31-71t83-28q47 0 67 7v-148q-52-19-116-19zM796 1269q-204 0-324.5-148T351 722q0-253 120-400.5T796 174q204 0 323.5 148T1239 722t-119 399.5T796 1269zm350 512v-156H446v156h700z"/><glyph glyph-name="oogonekmacron" unicode="ǭ" horiz-adv-x="1231" d="M815-447q-114 0-184.5 60.5T560-234q0 60 34 114.5T691-26v17q-22-12-75-12-240 0-377 151T102 545q0 262 137.5 413.5T616 1110t376-151 137-414q0-319-244-528-135-118-135-205 0-47 32.5-73t81.5-26q46 0 67 7v-148q-49-19-116-19zM616 170q139 0 215.5 98.5T908 545t-76.5 276T616 919t-215.5-98T324 545q0-179 76.5-277T616 170zm348 1284v-155H268v155h696z"/><glyph glyph-name="uni01F1" unicode="Ǳ" horiz-adv-x="2871" d="M1647 0v161l784 1061v17h-760v204h1041v-161L1932 221v-17h799V0H1647zM181 1443h521q321 0 500-188.5T1381 726q0-346-178-536T702 0H181v1443zm224-204V204h272q227 0 351.5 135.5T1153 723q0 244-125.5 380T677 1239H405z"/><glyph glyph-name="uni01F2" unicode="ǲ" horiz-adv-x="2630" d="M1637 0v146l599 744v17h-595v182h852V932l-586-733v-17h592V0h-862zM181 1443h521q321 0 500-188.5T1381 726q0-346-178-536T702 0H181v1443zm224-204V204h272q227 0 351.5 135.5T1153 723q0 244-125.5 380T677 1239H405z"/><glyph glyph-name="uni01F3" unicode="ǳ" horiz-adv-x="2413" d="M1420 0v146l599 744v17h-595v182h852V932l-586-733v-17h592V0h-862zM554-18q-208 0-330 152T102 545q0 258 122.5 410T554 1107q112 0 201-50.5T888 916h16v598h215V0H913v172h-17Q847 83 756.5 32.5T554-18zm61 932q-136 0-213.5-98.5T324 545q0-173 77.5-271.5T615 175t214.5 99T908 544q0 170-79 270T615 914z"/><glyph glyph-name="Gacute" unicode="Ǵ" horiz-adv-x="1539" d="M899 1582H669l297 306h258zm513-1011q0-277-169.5-441.5T789-35q-307 0-487 204T122 722q0 345 181 550.5T787 1478q246 0 412-129.5t203-348.5h-225q-42 131-142 200t-248 69q-200 0-318-147.5T351 724q0-255 118.5-402.5T792 174q177 0 288 99t112 259v31H820v188h592V571z"/><glyph glyph-name="gacute" unicode="ǵ" horiz-adv-x="1274" d="M705 1271H483l251 344h252zM612 202q137 0 216 96t79 260q0 163-79 259.5T612 914t-213-95.5T323 558t76-260.5T612 202zm3-618q-202 0-328 83.5T144-109h220q14-60 80.5-95T618-239q134 0 209.5 60.5T903-10v209h-16q-49-88-136-135.5T551 16q-207 0-328.5 147.5T101 557q0 250 122 400t330 150q112 0 204-51.5T895 915h17v174h206V-9q0-187-136-297T615-416z"/><glyph glyph-name="Ngrave" unicode="Ǹ" horiz-adv-x="1539" d="m655 1582-326 306h258l298-306H655zM399 0H181v1443h202l741-1025h16v1025h218V0h-202L415 1025h-16V0z"/><glyph glyph-name="ngrave" unicode="ǹ" horiz-adv-x="1227" d="M757 1271H536l-282 344h252zM156 0v1089h207V916h16q85 194 325 194 182 0 279.5-105t97.5-300V0H866v651q0 262-235 262-119 0-189.5-74.5T371 637V0H156z"/><glyph glyph-name="Aringacute" unicode="Ǻ" horiz-adv-x="1423" d="M1115 0 983 383H433L300 0H70l521 1443h241L1353 0h-238zM700 1181 490 571h436l-209 610h-17zm12 351q-87 0-147 58.5T505 1736q0 86 60 144t147 58 147-58 60-144q0-87-60-145.5T712 1532zm0 108q40 0 67.5 27t27.5 67-27.5 67.5T712 1829t-67.5-27.5T617 1734t27.5-67 67.5-27zm42 551h214l-160-186H620z"/><glyph glyph-name="aringacute" unicode="ǻ" horiz-adv-x="1158" d="M512 163q121 0 201.5 68T794 401v91l-266-17q-112-7-165-46t-53-111 56-113.5T512 163zM457-18q-160 0-261.5 89.5T94 308q0 146 105 229.5T499 633l295 17v94q0 87-57 133.5T571 924q-90 0-149.5-31.5T344 803H136q16 140 137.5 223.5T581 1110q204 0 315.5-96.5T1008 744V0H801v153h-17Q735 71 649.5 26.5T457-18zm124 1225q-89 0-150 60t-61 148 61 148.5 150 60.5 150-60.5 61-148.5-61-148-150-60zm-97 208q0-42 28-70t69-28 69 28 28 70q0 41-28 69t-69 28-69-28-28-69zm4 292 164 231h218l-196-231H488z"/><glyph glyph-name="AEacute" unicode="Ǽ" horiz-adv-x="1999" d="M1581 1582h-230l297 306h258zm-734-329L559 606h428v647H847zM987 0v417H483L294 0H70l631 1443h1156v-204h-655V824h618V629h-618V204h655V0H987z"/><glyph glyph-name="aeacute" unicode="ǽ" horiz-adv-x="1868" d="M1048 1271H826l251 344h252zM1297-21q-129 0-235.5 59.5T909 195h-17Q836 94 730.5 36.5T486-21q-177 0-284.5 90T94 308q0 146 105 229.5T499 633l295 17v87q0 91-57.5 139T571 924q-91 0-150-31.5T344 803H136q16 137 136 222t298 85q126 0 215.5-47T921 937h17q52 77 147.5 125t208.5 48q219 0 344-143.5T1763 572v-79h-760v-21q5-141 85.5-225t210.5-84q180 0 245 131h207q-38-149-157.5-232T1297-21zm-15 949q-120 0-195.5-75T1003 652h542q-4 122-77 199t-186 77zM520 161q119 0 196.5 71T794 404v88l-266-17q-112-7-165-46t-53-112 57.5-114.5T520 161z"/><glyph glyph-name="Oslashacute" unicode="Ǿ" horiz-adv-x="1566" d="m1228 1888-325-306H673l297 306h258zm-95-783L524 267q110-93 272-93 205 0 324 148.5T1239 722q0 236-106 383zM442 362l605 830q-105 77-251 77-204 0-324.5-148T351 722q0-217 91-360zm928 1070-100-138q198-204 198-572 0-349-180-553T796-35Q560-35 392 86L289-56 188 15l113 155Q122 372 122 722q0 349 181.5 552.5T796 1478q223 0 382-107l91 125z"/><glyph glyph-name="oslashacute" unicode="ǿ" horiz-adv-x="1231" d="m970 1615-281-344H467l251 344h252zM849 795 466 209q63-39 150-39 139 0 215.5 98.5T908 545q0 156-59 250zM379 300l383 582q-63 37-146 37-140 0-216-98t-76-276q0-152 55-245zm656 780-65-99q159-153 159-436 0-264-137-415T616-21q-147 0-261 60l-60-92-104 67 65 99Q102 264 102 545q0 263 137.5 414T616 1110q147 0 257-59l60 91z"/><glyph glyph-name="Adblgrave" unicode="Ȁ" horiz-adv-x="1423" d="M1115 0 983 383H433L300 0H70l521 1443h241L1353 0h-238zM700 1181 490 571h436l-209 610h-17zm126 401-312 306h242l289-306H826zm-422 0L92 1888h241l289-306H404z"/><glyph glyph-name="adblgrave" unicode="ȁ" horiz-adv-x="1158" d="M512 163q121 0 201.5 68T794 401v91l-266-17q-112-7-165-46t-53-111 56-113.5T512 163zM457-18q-160 0-261.5 89.5T94 308q0 146 105 229.5T499 633l295 17v94q0 87-57 133.5T571 924q-90 0-149.5-31.5T344 803H136q16 140 137.5 223.5T581 1110q204 0 315.5-96.5T1008 744V0H801v153h-17Q735 71 649.5 26.5T457-18zm42 1289H299L33 1615h228zm413 0H712l-266 344h228z"/><glyph glyph-name="Ainvertedbreve" unicode="Ȃ" horiz-adv-x="1423" d="M1115 0 983 383H433L300 0H70l521 1443h241L1353 0h-238zM700 1181 490 571h436l-209 610h-17zm-365 396q0 142 101.5 228t275.5 86 275.5-86 101.5-228H916q-1 78-56 123.5T712 1746t-148-45.5-56-123.5H335z"/><glyph glyph-name="ainvertedbreve" unicode="ȃ" horiz-adv-x="1158" d="M512 163q121 0 201.5 68T794 401v91l-266-17q-112-7-165-46t-53-111 56-113.5T512 163zM457-18q-160 0-261.5 89.5T94 308q0 146 105 229.5T499 633l295 17v94q0 87-57 133.5T571 924q-90 0-149.5-31.5T344 803H136q16 140 137.5 223.5T581 1110q204 0 315.5-96.5T1008 744V0H801v153h-17Q735 71 649.5 26.5T457-18zM204 1238q0 150 102 244t275 94 275-94 102-244H785q-1 85-55 137.5T581 1428t-149-52.5-55-137.5H204z"/><glyph glyph-name="Edblgrave" unicode="Ȅ" horiz-adv-x="1239" d="m753 1582-312 306h242l289-306H753zm-422 0L19 1888h241l289-306H331zm766-1378V0H181v1443h916v-204H405V831h655V637H405V204h692z"/><glyph glyph-name="edblgrave" unicode="ȅ" horiz-adv-x="1192" d="M603 927q-119 0-196-77t-86-205h550q-4 129-76.5 205.5T603 927zm267-633h207q-37-147-161.5-231T605-21q-234 0-368.5 150.5T102 541t136 415 366 154q227 0 356.5-146T1090 561v-75H321v-12q5-144 83-228t207-84q197 0 259 132zm-348 977H322L56 1615h228zm413 0H735l-266 344h228z"/><glyph glyph-name="Einvertedbreve" unicode="Ȇ" horiz-adv-x="1239" d="M1097 204V0H181v1443h916v-204H405V831h655V637H405V204h692zM262 1577q0 142 101.5 228t275.5 86 275.5-86 101.5-228H843q-1 78-56 123.5T639 1746t-148-45.5-56-123.5H262z"/><glyph glyph-name="einvertedbreve" unicode="ȇ" horiz-adv-x="1192" d="M603 927q-119 0-196-77t-86-205h550q-4 129-76.5 205.5T603 927zm267-633h207q-37-147-161.5-231T605-21q-234 0-368.5 150.5T102 541t136 415 366 154q227 0 356.5-146T1090 561v-75H321v-12q5-144 83-228t207-84q197 0 259 132zm-643 944q0 150 102 244t275 94 275-94 102-244H808q-1 85-55 137.5T604 1428t-149-52.5-55-137.5H227z"/><glyph glyph-name="Idblgrave" unicode="Ȉ" horiz-adv-x="585" d="M405 0H181v1443h224V0zm2 1582L95 1888h242l289-306H407zm-422 0-312 306h241l289-306H-15z"/><glyph glyph-name="idblgrave" unicode="ȉ" horiz-adv-x="534" d="M160 0v1089h214V0H160zm25 1271H-15l-266 344h228zm413 0H398l-266 344h228z"/><glyph glyph-name="Iinvertedbreve" unicode="Ȋ" horiz-adv-x="585" d="M405 0H181v1443h224V0zM-84 1577q0 142 101.5 228t275.5 86 275.5-86T670 1577H497q-1 78-56 123.5T293 1746t-148-45.5T89 1577H-84z"/><glyph glyph-name="iinvertedbreve" unicode="ȋ" horiz-adv-x="534" d="M160 0v1089h214V0H160zm-270 1238q0 150 102 244t275 94 275-94 102-244H471q-1 85-55 137.5T267 1428t-149-52.5T63 1238h-173z"/><glyph glyph-name="Odblgrave" unicode="Ȍ" horiz-adv-x="1590" d="m910 1582-312 306h242l289-306H910zm-422 0-312 306h241l289-306H488zm308-104q312 0 492-203.5T1468 722t-180-553T796-35q-313 0-493.5 203.5T122 722q0 349 181.5 552.5T796 1478zm0-209q-204 0-324.5-148T351 722t119-399.5T796 174q205 0 324 148.5T1239 722q0 252-119 399.5T796 1269z"/><glyph glyph-name="odblgrave" unicode="ȍ" horiz-adv-x="1231" d="M616-21q-240 0-377 151T102 545q0 263 137.5 414T616 1110q238 0 375.5-151T1129 545q0-264-137-415T616-21zm0 191q139 0 215.5 98.5T908 545q0 177-76.5 275.5T616 919q-140 0-216-98t-76-276q0-179 76-277t216-98zm-82 1101H334L68 1615h228zm413 0H747l-266 344h228z"/><glyph glyph-name="Oinvertedbreve" unicode="Ȏ" horiz-adv-x="1590" d="M419 1577q0 142 101.5 228t275.5 86 275.5-86 101.5-228h-173q-1 78-56 123.5T796 1746t-148-45.5-56-123.5H419zm377-99q312 0 492-203.5T1468 722t-180-553T796-35q-313 0-493.5 203.5T122 722q0 349 181.5 552.5T796 1478zm0-209q-204 0-324.5-148T351 722t119-399.5T796 174q205 0 324 148.5T1239 722q0 252-119 399.5T796 1269z"/><glyph glyph-name="oinvertedbreve" unicode="ȏ" horiz-adv-x="1231" d="M616-21q-240 0-377 151T102 545q0 263 137.5 414T616 1110q238 0 375.5-151T1129 545q0-264-137-415T616-21zm0 191q139 0 215.5 98.5T908 545q0 177-76.5 275.5T616 919q-140 0-216-98t-76-276q0-179 76-277t216-98zM239 1238q0 150 102 244t275 94 275-94 102-244H820q-1 85-55 137.5T616 1428t-149-52.5-55-137.5H239z"/><glyph glyph-name="Rdblgrave" unicode="Ȑ" horiz-adv-x="1368" d="m738 1582-312 306h242l289-306H738zm-422 0L4 1888h241l289-306H316zm89-336V741h322q130 0 201.5 66t71.5 187q0 118-74.5 185T721 1246H405zm0-696V0H181v1443h571q218 0 348-120.5T1230 999q0-146-74.5-256.5T950 587L1274 0h-259L721 550H405z"/><glyph glyph-name="rdblgrave" unicode="ȑ" horiz-adv-x="820" d="M156 0v1089h207V922h16q23 81 105.5 133t188.5 52q61 0 96-9V886q-39 13-120 13-123 0-200.5-71T371 643V0H156zm165 1271H121l-266 344H83zm413 0H534l-266 344h228z"/><glyph glyph-name="Rinvertedbreve" unicode="Ȓ" horiz-adv-x="1368" d="M405 1246V741h322q130 0 201.5 66t71.5 187q0 118-74.5 185T721 1246H405zm0-696V0H181v1443h571q218 0 348-120.5T1230 999q0-146-74.5-256.5T950 587L1274 0h-259L721 550H405zM247 1577q0 142 101.5 228t275.5 86 275.5-86 101.5-228H828q-1 78-56 123.5T624 1746t-148-45.5-56-123.5H247z"/><glyph glyph-name="rinvertedbreve" unicode="ȓ" horiz-adv-x="820" d="M156 0v1089h207V922h16q23 81 105.5 133t188.5 52q61 0 96-9V886q-39 13-120 13-123 0-200.5-71T371 643V0H156zM26 1238q0 150 102 244t275 94 275-94 102-244H607q-1 85-55 137.5T403 1428t-149-52.5-55-137.5H26z"/><glyph glyph-name="Udblgrave" unicode="Ȕ" horiz-adv-x="1539" d="m883 1582-312 306h242l289-306H883zm-422 0-312 306h241l289-306H461zm-52-139V517q0-154 95.5-248T769 175q170 0 265.5 94t95.5 248v926h224V497q0-238-158.5-385T769-35 343 112 185 497v946h224z"/><glyph glyph-name="udblgrave" unicode="ȕ" horiz-adv-x="1230" d="M1074 1089V0H867v173h-17Q767-21 521-21 341-21 243.5 84T146 382v707h215V438q0-133 55.5-196.5T590 178q129 0 199 72.5T859 452v637h215zm-546 182H328L62 1615h228zm413 0H741l-266 344h228z"/><glyph glyph-name="Uinvertedbreve" unicode="Ȗ" horiz-adv-x="1539" d="M409 1443V517q0-154 95.5-248T769 175q170 0 265.5 94t95.5 248v926h224V497q0-238-158.5-385T769-35 343 112 185 497v946h224zm-17 134q0 142 101.5 228t275.5 86 275.5-86 101.5-228H973q-1 78-56 123.5T769 1746t-148-45.5-56-123.5H392z"/><glyph glyph-name="uinvertedbreve" unicode="ȗ" horiz-adv-x="1230" d="M1074 1089V0H867v173h-17Q767-21 521-21 341-21 243.5 84T146 382v707h215V438q0-133 55.5-196.5T590 178q129 0 199 72.5T859 452v637h215zm-841 149q0 150 102 244t275 94 275-94 102-244H814q-1 85-55 137.5T610 1428t-149-52.5-55-137.5H233z"/><glyph glyph-name="Scommaaccent" unicode="Ș" horiz-adv-x="1333" d="M113 388h222q14-103 107.5-163.5T681 164q135 0 223.5 62.5T993 385q0 82-65.5 134.5T718 606l-186 45q-196 46-288 143t-92 256q0 193 144.5 310.5T677 1478q220 0 365-116t155-298H979q-16 100-97.5 158T674 1280q-133 0-214-59t-81-156q0-77 61.5-125T643 859l159-39q222-52 320-147.5t98-258.5q0-207-150-328T664-35Q424-35 274.5 80T113 388zm551-902H464l113 368h222z"/><glyph glyph-name="scommaaccent" unicode="ș" horiz-adv-x="1104" d="M131 781q0 144 119 236.5t304 92.5q184 0 297-81t129-225H774q-15 61-72.5 96T554 935q-91 0-151-39.5T343 793q0-49 42-81t131-52l181-42q157-36 230.5-107t73.5-190q0-152-127-247T550-21q-194 0-313.5 82.5T103 289h215q21-64 81-100t156-36q101 0 165 41t64 106q0 95-160 133l-190 44q-156 37-229.5 110T131 781zM550-514H350l113 368h222z"/><glyph glyph-name="Tcommaaccent" unicode="Ț" horiz-adv-x="1317" d="M658-514H458l113 368h222zM771 0H547v1239H93v204h1131v-204H771V0z"/><glyph glyph-name="tcommaaccent" unicode="ț" horiz-adv-x="780" d="M440-514H240l113 368h222zM232 1360h215v-276h236V903H447V343q0-85 37-124.5T601 179q32 0 82 5V5Q619-6 566-6 387-6 309.5 62T232 288v615H59v181h173v276z"/><glyph glyph-name="Hcaron" unicode="Ȟ" horiz-adv-x="1550" d="M1369 0h-223v633H405V0H181v1443h224V837h741v606h223V0zM677 1582l-293 306h220l162-175h18l162 175h220l-293-306H677z"/><glyph glyph-name="hcaron" unicode="ȟ" horiz-adv-x="1249" d="M166 0v1514h213V914h17q40 93 125.5 144t206.5 51q175 0 275-106.5T1103 703V0H888v650q0 130-59 196t-174 66q-130 0-202-75t-72-201V0H166zm9 1653-293 306h220l162-175h18l162 175h220l-293-306H175z"/><glyph glyph-name="Adotaccent" unicode="Ȧ" horiz-adv-x="1423" d="M1115 0 983 383H433L300 0H70l521 1443h241L1353 0h-238zM700 1181 490 571h436l-209 610h-17zm12 396q-57 0-95.5 39.5T578 1714t38.5 97.5T712 1851t95.5-39.5T846 1714t-38.5-97.5T712 1577z"/><glyph glyph-name="adotaccent" unicode="ȧ" horiz-adv-x="1158" d="M512 163q121 0 201.5 68T794 401v91l-266-17q-112-7-165-46t-53-111 56-113.5T512 163zM457-18q-160 0-261.5 89.5T94 308q0 146 105 229.5T499 633l295 17v94q0 87-57 133.5T571 924q-90 0-149.5-31.5T344 803H136q16 140 137.5 223.5T581 1110q204 0 315.5-96.5T1008 744V0H801v153h-17Q735 71 649.5 26.5T457-18zm124 1301q-59 0-99.5 41.5T441 1425t40.5 100.5T581 1567q58 0 99-41.5t41-100.5-41-100.5-99-41.5z"/><glyph glyph-name="Ecedilla" unicode="Ȩ" horiz-adv-x="1239" d="M1097 1239H405V831h655V637H405V204h692V0H721l-48-122q99-2 153.5-46T881-291q0-89-67-142t-185-53q-85 0-147 17v120q46-14 120-14 116 0 116 67 0 32-33 46.5T576-235h-59v97L575 0H181v1443h916v-204z"/><glyph glyph-name="ecedilla" unicode="ȩ" horiz-adv-x="1192" d="M321 645h550q-4 129-76.5 205.5T603 927t-196-77-86-205zm769-159H321v-12q5-144 83-228t207-84q197 0 259 132h207q-33-131-137-213T681-17l-41-105q99-2 153.5-46T848-291q0-89-67-142t-185-53q-85 0-147 17v120q46-14 120-14 116 0 116 67 0 32-33 46.5T543-235h-59v97l51 121Q332 6 217 153.5T102 541q0 261 136 415t366 154q227 0 356.5-146T1090 561v-75z"/><glyph glyph-name="Odieresismacron" unicode="Ȫ" horiz-adv-x="1590" d="M796 1478q312 0 492-203.5T1468 722t-180-553T796-35q-313 0-493.5 203.5T122 722q0 349 181.5 552.5T796 1478zm0-209q-204 0-324.5-148T351 722t119-399.5T796 174q205 0 324 148.5T1239 722q0 252-119 399.5T796 1269zm-214 571q55 0 92.5-38t37.5-94-37.5-93.5T582 1577t-92.5 38-37.5 93q0 56 37.5 94t92.5 38zm-136 267h700v-147H446v147zm564-267q55 0 92.5-38t37.5-94q0-55-37.5-93t-92.5-38-92.5 37.5T880 1708t37.5 94 92.5 38z"/><glyph glyph-name="odieresismacron" unicode="ȫ" horiz-adv-x="1231" d="M407 1238q-54 0-90.5 37.5T280 1367q0 55 36.5 92.5T407 1497t90.5-37.5T534 1367q0-54-36.5-91.5T407 1238zm418 0q-54 0-90.5 37.5T698 1367q0 55 36.5 92.5T825 1497t90.5-37.5T952 1367q0-54-36.5-91.5T825 1238zm139 562v-155H268v155h696zM616-21q-240 0-377 151T102 545q0 263 137.5 414T616 1110q238 0 375.5-151T1129 545q0-264-137-415T616-21zm0 191q139 0 215.5 98.5T908 545q0 177-76.5 275.5T616 919q-140 0-216-98t-76-276q0-179 76-277t216-98z"/><glyph glyph-name="Otildemacron" unicode="Ȭ" horiz-adv-x="1590" d="M941 1577q-46 0-82.5 13t-59 31.5-42 36.5-43.5 31-52 13q-86 0-91-111H418q0 118 64.5 189t168.5 71q46 0 82.5-13t59-31.5 42-36.5 43.5-31 52-13q38 0 63 27t29 82h152q0-113-65-185.5T941 1577zm205 530v-151H446v151h700zm-350-629q312 0 492-203.5T1468 722t-180-553T796-35q-313 0-493.5 203.5T122 722q0 349 181.5 552.5T796 1478zm0-209q-204 0-324.5-148T351 722t119-399.5T796 174q205 0 324 148.5T1239 722q0 252-119 399.5T796 1269z"/><glyph glyph-name="otildemacron" unicode="ȭ" horiz-adv-x="1231" d="M760 1241q-44 0-81.5 15.5T615 1294t-48 44.5-45 38-44 15.5q-49 0-71.5-36T384 1242H226q0 140 65 222t177 82q44 0 81.5-15.5t63.5-38 48-44.5 45-37.5 44-15.5q49 0 71.5 35t22.5 113h158q0-140-65-221t-177-81zm204 564v-155H268v155h696zM616-21q-240 0-377 151T102 545q0 263 137.5 414T616 1110q238 0 375.5-151T1129 545q0-264-137-415T616-21zm0 191q139 0 215.5 98.5T908 545q0 177-76.5 275.5T616 919q-140 0-216-98t-76-276q0-179 76-277t216-98z"/><glyph glyph-name="Odotaccent" unicode="Ȯ" horiz-adv-x="1590" d="M796 1577q-57 0-95.5 39.5T662 1714t38.5 97.5T796 1851t95.5-39.5T930 1714t-38.5-97.5T796 1577zm0-99q312 0 492-203.5T1468 722t-180-553T796-35q-313 0-493.5 203.5T122 722q0 349 181.5 552.5T796 1478zm0-209q-204 0-324.5-148T351 722t119-399.5T796 174q205 0 324 148.5T1239 722q0 252-119 399.5T796 1269z"/><glyph glyph-name="odotaccent" unicode="ȯ" horiz-adv-x="1231" d="M616 1283q-59 0-99.5 41.5T476 1425t40.5 100.5T616 1567q58 0 99-41.5t41-100.5-41-100.5-99-41.5zm0-1304q-240 0-377 151T102 545q0 263 137.5 414T616 1110q238 0 375.5-151T1129 545q0-264-137-415T616-21zm0 191q139 0 215.5 98.5T908 545q0 177-76.5 275.5T616 919q-140 0-216-98t-76-276q0-179 76-277t216-98z"/><glyph glyph-name="Odotaccentmacron" unicode="Ȱ" horiz-adv-x="1590" d="M796 1576q-56 0-94 38t-38 94 38 94 94 38 94-38 38-94-38-94-94-38zm350 531v-147H446v147h700zm-350-629q312 0 492-203.5T1468 722t-180-553T796-35q-313 0-493.5 203.5T122 722q0 349 181.5 552.5T796 1478zm0-209q-204 0-324.5-148T351 722t119-399.5T796 174q205 0 324 148.5T1239 722q0 252-119 399.5T796 1269z"/><glyph glyph-name="odotaccentmacron" unicode="ȱ" horiz-adv-x="1231" d="M616-21q-240 0-377 151T102 545q0 263 137.5 414T616 1110q238 0 375.5-151T1129 545q0-264-137-415T616-21zm0 191q139 0 215.5 98.5T908 545q0 177-76.5 275.5T616 919q-140 0-216-98t-76-276q0-179 76-277t216-98zm0 1068q-56 0-93 38t-37 94q0 57 37 95t93 38 93-38 37-95q0-56-37-94t-93-38zm348 562v-155H268v155h696z"/><glyph glyph-name="Ymacron" unicode="Ȳ" horiz-adv-x="1383" d="M803 0H579v582L71 1443h249l363-625h17l363 625h249L803 582V0zm238 1781v-156H341v156h700z"/><glyph glyph-name="ymacron" unicode="ȳ" horiz-adv-x="1152" d="M264-395q-56 0-89 5v185q23-4 70-4 77 0 123 35t74 117l16 53L64 1089h234l273-865h17l272 865h228L682-45q-70-198-160.5-274T264-395zm658 1849v-155H226v155h696z"/><glyph glyph-name="dotlessj" unicode="ȷ" horiz-adv-x="534" d="M374 1089V-45q0-167-86.5-247T23-372q-43 0-48 1v180H5q85 0 120 34t35 114v1132h214z"/><glyph glyph-name="quoteright" unicode="’" horiz-adv-x="621" d="M321 872H136l127 571h222z"/><glyph glyph-name="quoteright" unicode="ʼ" horiz-adv-x="621" d="M321 872H136l127 571h222z"/><glyph glyph-name="circumflex" unicode="ˆ" horiz-adv-x="1096" d="m665 1584 279-346H723l-167 219h-16l-167-219H151l280 346h234z"/><glyph glyph-name="caron" unicode="ˇ" horiz-adv-x="1096" d="M665 1238H431l-280 346h222l167-219h16l167 219h221z"/><glyph glyph-name="breve" unicode="˘" horiz-adv-x="1048" d="M147 1576h173q1-85 55-137.5t149-52.5 149 52.5 55 137.5h173q0-150-102-244t-275-94-275 94-102 244z"/><glyph glyph-name="dotaccent" unicode="˙" horiz-adv-x="1048" d="M524 1283q-59 0-99.5 41.5T384 1425t40.5 100.5T524 1567q58 0 99-41.5t41-100.5-41-100.5-99-41.5z"/><glyph glyph-name="ring" unicode="˚" horiz-adv-x="1096" d="M548 1238q-99 0-168 67.5T311 1472t68.5 166 168.5 67 168.5-67 68.5-166-69-166.5-168-67.5zm0 119q50 0 83 32.5t33 82.5q0 49-33 81.5t-83 32.5-83-32.5-33-81.5q0-50 33-82.5t83-32.5z"/><glyph glyph-name="ogonek" unicode="˛" horiz-adv-x="1048" d="M712-285v-141q-52-21-123-21-110 0-175.5 53.5T348-249q0 68 42.5 129.5T535 16h177Q606-61 564-109.5T522-206q0-41 31-64.5t86-23.5q46 0 73 9z"/><glyph glyph-name="tilde" unicode="˜" horiz-adv-x="1095" d="M693 1265q-44 0-81.5 15.5T548 1318t-48 44.5-45 38-44 15.5q-49 0-71.5-36T317 1266H159q0 140 65 222t177 82q44 0 81.5-15.5t63.5-38 48-44.5 45-37.5 44-15.5q49 0 71.5 35t22.5 113h158q0-140-65-221t-177-81z"/><glyph glyph-name="hungarumlaut" unicode="˝" horiz-adv-x="1048" d="m491 1271 238 344h228l-267-344H491zm-413 0 238 344h228l-267-344H78z"/><glyph glyph-name="gravecmb" unicode="̀" horiz-adv-x="0" d="M135 1271H-86l-282 344h252z"/><glyph glyph-name="acutecmb" unicode="́" horiz-adv-x="0" d="M93 1271h-222l251 344h252z"/><glyph glyph-name="circumflexcmb" unicode="̂" horiz-adv-x="0" d="m117 1584 279-346H175L8 1457H-8l-167-219h-222l280 346h234z"/><glyph glyph-name="tildecmb" unicode="̃" horiz-adv-x="0" d="M148 1241q-44 0-81.5 15.5T3 1294t-48 44.5-45 38-44 15.5q-49 0-71.5-36t-22.5-114h-158q0 140 65 222t177 82q44 0 81.5-15.5t63.5-38 48-44.5 45-37.5 44-15.5q49 0 71.5 35t22.5 113h158q0-140-65-221t-177-81z"/><glyph glyph-name="macroncmb" unicode="̄" horiz-adv-x="0" d="M348 1454v-155h-696v155h696z"/><glyph glyph-name="brevecmb" unicode="̆" horiz-adv-x="0" d="M-379 1576h173q1-85 55-137.5T-2 1386t149 52.5 55 137.5h173q0-150-102-244t-275-94-275 94-102 244z"/><glyph glyph-name="dotaccentcmb" unicode="̇" horiz-adv-x="0" d="M0 1283q-59 0-99.5 41.5T-140 1425t40.5 100.5T0 1567q58 0 99-41.5t41-100.5-41-100.5T0 1283z"/><glyph glyph-name="dieresiscmb" unicode="̈" horiz-adv-x="0" d="M-213 1238q-57 0-95.5 38.5T-347 1372t38.5 96 95.5 39q56 0 94.5-39t38.5-96-38.5-95.5-94.5-38.5zm427 0q-56 0-95 38.5T80 1372t39 96 95 39 94.5-39 38.5-96-38.5-95.5T214 1238z"/><glyph glyph-name="hookabovecmb" unicode="̉" horiz-adv-x="0" d="M-156 1471v137q58 23 142 23 108 0 172-53t64-143q0-75-52.5-138T31 1203l-82 106q49 16 80 45.5t31 61.5q0 33-29 54.5t-75 21.5q-70 0-112-21z"/><glyph glyph-name="ringcmb" unicode="̊" horiz-adv-x="0" d="M0 1238q-99 0-168 67.5t-69 166.5 68.5 166T0 1705t168.5-67 68.5-166-69-166.5T0 1238zm0 119q50 0 83 32.5t33 82.5q0 49-33 81.5T0 1586t-83-32.5-33-81.5q0-50 33-82.5T0 1357z"/><glyph glyph-name="hungarumlautcmb" unicode="̋" horiz-adv-x="0" d="m69 1271 238 344h228l-267-344H69zm-413 0 238 344h228l-267-344h-199z"/><glyph glyph-name="caroncmb" unicode="̌" horiz-adv-x="0" d="M117 1238h-234l-280 346h222l167-219H8l167 219h221z"/><glyph glyph-name="dblgravecmb" unicode="̏" horiz-adv-x="0" d="M-82 1271h-200l-266 344h228zm413 0H131l-266 344H93z"/><glyph glyph-name="invertedbrevecmb" unicode="̑" horiz-adv-x="0" d="M-377 1238q0 150 102 244t275 94 275-94 102-244H204q-1 85-55 137.5T0 1428t-149-52.5-55-137.5h-173z"/><glyph glyph-name="horncmb" unicode="̛" horiz-adv-x="0" d="M0 945v169q36-33 92-33 57 2 82 37.5t25 114.5v157h185v-209q0-123-68.5-198T135 908q-84 0-135 37z"/><glyph glyph-name="dotbelowcmb" unicode="̣" horiz-adv-x="0" d="M0-416q-57 0-95.5 39.5T-134-279t38.5 97.5T0-142t95.5-39.5T134-279t-38.5-97.5T0-416z"/><glyph glyph-name="dieresisbelowcmb" unicode="̤" horiz-adv-x="0" d="M-213-438q-57 0-95.5 38.5T-347-304t38.5 96 95.5 39q56 0 94.5-39t38.5-96-38.5-95.5T-213-438zm427 0q-56 0-95 38.5T80-304t39 96 95 39 94.5-39 38.5-96-38.5-95.5T214-438z"/><glyph glyph-name="ringbelowcmb" unicode="̥" horiz-adv-x="0" d="M0-572q-99 0-168 67.5T-237-338t68.5 166T0-105t168.5-67T237-338t-69-166.5T0-572zm0 119q50 0 83 32.5t33 82.5q0 49-33 81.5T0-224t-83-32.5-33-81.5q0-50 33-82.5T0-453z"/><glyph glyph-name="commabelowcmb" unicode="̦" horiz-adv-x="0" d="M0-514h-200l113 368h222z"/><glyph glyph-name="cedillacmb" unicode="̧" horiz-adv-x="0" d="M-122-235v97l68 162H82V0L34-122q99-2 153.5-46T242-291q0-89-67-142t-185-53q-85 0-147 17v120q46-14 120-14 116 0 116 67 0 32-33 46.5T-63-235h-59z"/><glyph glyph-name="ogonekcmb" unicode="̨" horiz-adv-x="0" d="M134-286v-141q-52-21-123-21-110 0-175.5 53.5T-230-250q0 68 42.5 129.5T-43 15h177Q28-62-14-110.5T-56-207q0-41 31-64.5T61-295q46 0 73 9z"/><glyph glyph-name="circumflexbelowcmb" unicode="̭" horiz-adv-x="0" d="M-101-136h202l295-314H171L8-269H-8l-163-181h-225z"/><glyph glyph-name="brevebelowcmb" unicode="̮" horiz-adv-x="0" d="M-377-121h173q1-78 56-123.5T0-290t148 45.5T204-121h173q0-142-101.5-228T0-435t-275.5 86T-377-121z"/><glyph glyph-name="tildebelowcmb" unicode="̰" horiz-adv-x="0" d="M146-425q-44 0-81.5 15.5T1-372t-48 44.5-45 38-44 15.5q-49 0-71.5-36T-230-424h-158q0 140 65 222t177 82q44 0 81.5-15.5T-1-173t48-44.5 45-38 44-15.5q49 0 71.5 35T230-123h158q0-140-65-221t-177-81z"/><glyph glyph-name="macronbelowcmb" unicode="̱" horiz-adv-x="0" d="M350-216v-156h-700v156h700z"/><glyph glyph-name="greekquestionmark" unicode=";" horiz-adv-x="645" d="M323 738q-63 0-105 43t-42 106q0 64 42 106.5t105 42.5q64 0 105.5-42.5T470 887q0-63-42-106t-105-43zM300-376H120l90 598h233z"/><glyph glyph-name="tonosgreek" unicode="΄" horiz-adv-x="918" d="m276 1265 87 355h239l-138-355H276z"/><glyph glyph-name="dieresistonosgreek" unicode="΅" horiz-adv-x="1384" d="M344 1265q-55 0-92.5 37.5T214 1395t37.5 92 92.5 37 92.5-37 37.5-92-37.5-92.5T344 1265zm696 0q-55 0-92 37.5t-37 92.5 37 92 92 37 92.5-37 37.5-92-37-92.5-93-37.5zm-464 0 33 355h224l-84-355H576z"/><glyph glyph-name="Alphatonosgreek" unicode="Ά" horiz-adv-x="1447" d="m1139 0-132 383H457L324 0H94l521 1443h241L1377 0h-238zM724 1181 514 571h436l-209 610h-17zm-641-94 87 356h239l-138-356H83z"/><glyph glyph-name="anoteleia" unicode="·" horiz-adv-x="645" d="M323 396q-63 0-105 43t-42 106 42 106 105 43 105-43 42-106-42-106-105-43z"/><glyph glyph-name="Epsilontonosgreek" unicode="Έ" horiz-adv-x="1652" d="m94 1087 87 356h239l-138-356H94zm1416-883V0H594v1443h916v-204H818V831h655V637H818V204h692z"/><glyph glyph-name="Etatonosgreek" unicode="Ή" horiz-adv-x="1963" d="m94 1087 87 356h239l-138-356H94zM1782 0h-223v633H818V0H594v1443h224V837h741v606h223V0z"/><glyph glyph-name="Iotatonosgreek" unicode="Ί" horiz-adv-x="998" d="M818 0H594v1443h224V0zM94 1087l87 356h239l-138-356H94z"/><glyph glyph-name="Omicrontonosgreek" unicode="Ό" horiz-adv-x="1873" d="M1078 1478q312 0 492-203.5T1750 722t-180-553-492-204q-313 0-493.5 203.5T404 722q0 349 181.5 552.5T1078 1478zm0-209q-204 0-324.5-148T633 722t119-399.5T1078 174q205 0 324 148.5T1521 722q0 252-119 399.5T1078 1269zM94 1087l87 356h239l-138-356H94z"/><glyph glyph-name="Upsilontonosgreek" unicode="Ύ" horiz-adv-x="1805" d="m94 1087 87 356h239l-138-356H94zM1225 0h-224v582l-508 861h249l363-625h17l363 625h249l-509-861V0z"/><glyph glyph-name="Omegatonosgreek" unicode="Ώ" horiz-adv-x="1893" d="M1538 790q0 222-119.5 350.5T1091 1269q-207 0-326.5-128.5T645 790q0-179 77.5-310.5T962 252V0H418v199h300v17q-142 87-221 242.5T418 803q0 199 84 352.5t237.5 238T1091 1478q301 0 487.5-186.5T1765 803q0-189-79-344.5T1465 216v-17h300V0h-544v252q162 96 239.5 227.5T1538 790zM94 1087l87 356h239l-138-356H94z"/><glyph glyph-name="iotadieresistonosgreek" unicode="ΐ" horiz-adv-x="646" d="M156 1089h215V343q0-85 35.5-124.5T523 179q16 0 64 5V5Q534-6 479-6 304-6 230 63.5T156 289v800zm-221 176q-55 0-92.5 37.5T-195 1395t37.5 92 92.5 37 92.5-37 37.5-92-37.5-92.5T-65 1265zm696 0q-55 0-92 37.5t-37 92.5 37 92 92 37 92.5-37 37.5-92-37.5-92.5T631 1265zm-464 0 33 355h224l-84-355H167z"/><glyph glyph-name="Alphagreek" unicode="Α" horiz-adv-x="1423" d="M1115 0 983 383H433L300 0H70l521 1443h241L1353 0h-238zM700 1181 490 571h436l-209 610h-17z"/><glyph glyph-name="Betagreek" unicode="Β" horiz-adv-x="1373" d="M774 0H181v1443h580q203 0 318.5-96.5T1195 1083q0-113-73-202.5T942 773v-17q146-15 235.5-110.5T1267 409q0-191-131-300T774 0zM405 1253V832h266q148 0 224.5 53.5T972 1042q0 100-69.5 155.5T709 1253H405zm0-1063h324q151 0 230 60t79 175q0 113-82 171.5T716 655H405V190z"/><glyph glyph-name="Gammagreek" unicode="Γ" horiz-adv-x="1171" d="M405 0H181v1443h881v-204H405V0z"/><glyph glyph-name="Deltagreek" unicode="∆" horiz-adv-x="1434" d="M1328 0H107v149l489 1294h242l490-1294V0zM351 221v-17h724v17l-353 970h-16z"/><glyph glyph-name="Deltagreek" unicode="Δ" horiz-adv-x="1434" d="M1328 0H107v149l489 1294h242l490-1294V0zM351 221v-17h724v17l-353 970h-16z"/><glyph glyph-name="Epsilongreek" unicode="Ε" horiz-adv-x="1239" d="M1097 204V0H181v1443h916v-204H405V831h655V637H405V204h692z"/><glyph glyph-name="Zetagreek" unicode="Ζ" horiz-adv-x="1365" d="M141 0v161l784 1061v17H165v204h1041v-161L426 221v-17h799V0H141z"/><glyph glyph-name="Etagreek" unicode="Η" horiz-adv-x="1550" d="M1369 0h-223v633H405V0H181v1443h224V837h741v606h223V0z"/><glyph glyph-name="Thetagreek" unicode="Θ" horiz-adv-x="1625" d="M1098 617H526v202h572V617zm-284 861q322 0 505.5-198.5T1503 722q0-358-184-557.5T814-35q-323 0-507.5 199.5T122 722q0 359 185.5 557.5T814 1478zm0-207q-213 0-337.5-144T352 722t123-405.5T814 172q213 0 336 144.5T1273 722t-123 405-336 144z"/><glyph glyph-name="Iotagreek" unicode="Ι" horiz-adv-x="585" d="M405 0H181v1443h224V0z"/><glyph glyph-name="Kappagreek" unicode="Κ" horiz-adv-x="1386" d="M405 0H181v1443h224V767h16l597 676h265L725 816 1331 0h-280L567 655 405 474V0z"/><glyph glyph-name="Lambdagreek" unicode="Λ" horiz-adv-x="1406" d="M1084 0 709 1169h-17L313 0H81l501 1443h242L1325 0h-241z"/><glyph glyph-name="Mugreek" unicode="Μ" horiz-adv-x="1822" d="M1641 0h-208v1042h-14L996 42H826L403 1042h-14V0H181v1443h262L902 347h17l460 1096h262V0z"/><glyph glyph-name="Nugreek" unicode="Ν" horiz-adv-x="1539" d="M399 0H181v1443h202l741-1025h16v1025h218V0h-202L415 1025h-16V0z"/><glyph glyph-name="Xigreek" unicode="Ξ" horiz-adv-x="1354" d="M142 1443h1069v-210H142v210zm982-812H229v201h895V631zM142 210h1069V0H142v210z"/><glyph glyph-name="Omicrongreek" unicode="Ο" horiz-adv-x="1590" d="M796 1478q312 0 492-203.5T1468 722t-180-553T796-35q-313 0-493.5 203.5T122 722q0 349 181.5 552.5T796 1478zm0-209q-204 0-324.5-148T351 722t119-399.5T796 174q205 0 324 148.5T1239 722q0 252-119 399.5T796 1269z"/><glyph glyph-name="Pigreek" unicode="Π" horiz-adv-x="1530" d="M1349 0h-223v1239H405V0H181v1443h1168V0z"/><glyph glyph-name="Rhogreek" unicode="Ρ" horiz-adv-x="1329" d="M181 1443h565q212 0 344-133.5T1222 962q0-211-135-343.5T739 486H405V0H181v1443zm224-198V683h282q145 0 225.5 72.5T993 962q0 137-79 210t-227 73H405z"/><glyph glyph-name="Sigmagreek" unicode="Σ" horiz-adv-x="1345" d="M424 221v-17h781V0H141v158l404 566-386 535v184h1027v-204H446v-17l334-469v-34z"/><glyph glyph-name="Taugreek" unicode="Τ" horiz-adv-x="1317" d="M771 0H547v1239H93v204h1131v-204H771V0z"/><glyph glyph-name="Upsilongreek" unicode="Υ" horiz-adv-x="1383" d="M803 0H579v582L71 1443h249l363-625h17l363 625h249L803 582V0z"/><glyph glyph-name="Phigreek" unicode="Φ" horiz-adv-x="1770" d="M1433 716q0 206-119 323.5T992 1168V264q203 12 322 129t119 323zm-1097 0q0-206 119-323t322-129v904q-202-11-321.5-128.5T336 716zM992-81H777V66q-197 9-347.5 90.5t-234 226T112 716t83.5 333.5 234 226T777 1366v149h215v-149q300-14 483-190t183-460-183-460T992 66V-81z"/><glyph glyph-name="Chigreek" unicode="Χ" horiz-adv-x="1427" d="m89 0 482 726-477 717h267l351-544h17l357 544h252L848 720 1329 0h-262L713 534h-17L337 0H89z"/><glyph glyph-name="Psigreek" unicode="Ψ" horiz-adv-x="1713" d="M966 0H747v325q-266 2-426 159T161 900v543h219V902q0-175 94.5-270.5T747 529v914h219V529q178 7 272.5 102.5T1333 902v541h219V900q0-260-160-417T966 325V0z"/><glyph glyph-name="Omegagreek" unicode="Ω" horiz-adv-x="1603" d="M1248 790q0 222-119.5 350.5T801 1269q-207 0-326.5-128.5T355 790q0-179 77.5-310.5T672 252V0H128v199h300v17q-142 87-221 242.5T128 803q0 199 84 352.5t237.5 238T801 1478q301 0 487.5-186.5T1475 803q0-189-79-344.5T1175 216v-17h300V0H931v252q162 96 239.5 227.5T1248 790z"/><glyph glyph-name="Omegagreek" unicode="Ω" horiz-adv-x="1603" d="M1248 790q0 222-119.5 350.5T801 1269q-207 0-326.5-128.5T355 790q0-179 77.5-310.5T672 252V0H128v199h300v17q-142 87-221 242.5T128 803q0 199 84 352.5t237.5 238T801 1478q301 0 487.5-186.5T1475 803q0-189-79-344.5T1175 216v-17h300V0H931v252q162 96 239.5 227.5T1248 790z"/><glyph glyph-name="Iotadieresisgreek" unicode="Ϊ" horiz-adv-x="585" d="M405 0H181v1443h224V0zM80 1577q-57 0-95.5 38.5T-54 1711t38.5 96 95.5 39q56 0 94.5-39t38.5-96-38.5-95.5T80 1577zm427 0q-56 0-95 38.5t-39 95.5 39 96 95 39 94.5-39 38.5-96-38.5-95.5T507 1577z"/><glyph glyph-name="Upsilondieresisgreek" unicode="Ϋ" horiz-adv-x="1383" d="M803 0H579v582L71 1443h249l363-625h17l363 625h249L803 582V0zM478 1577q-57 0-95.5 38.5T344 1711t38.5 96 95.5 39q56 0 94.5-39t38.5-96-38.5-95.5T478 1577zm427 0q-56 0-95 38.5t-39 95.5 39 96 95 39 94.5-39 38.5-96-38.5-95.5T905 1577z"/><glyph glyph-name="alphatonosgreek" unicode="ά" horiz-adv-x="1301" d="M579 175q138 0 219 100.5T879 544q0 166-76.5 268T598 914q-130 0-206.5-99T315 545q0-170 72-270t192-100zM545-18q-206 0-328.5 152T94 545q0 258 122 410t326 152q240 0 324-218h17v200h208V301q0-70 21.5-97.5T1181 176q23 0 50 5V3q-42-13-107-13-205 0-233 183l-4 17h-17Q829 90 745.5 36T545-18zm-64 1283 87 355h239l-138-355H481z"/><glyph glyph-name="epsilontonosgreek" unicode="έ" horiz-adv-x="1102" d="m478 1265 87 355h239l-138-355H478zM564-23q-213 0-336.5 86.5T104 292q0 183 188 246v17q-167 67-167 234 0 146 121.5 232.5T567 1108q206 0 328.5-86.5T1042 770H828q-20 74-87 112t-172 38q-106 0-170.5-39T334 774q0-63 56.5-99.5T555 638h147V457H555q-111 0-170.5-39T325 313q0-69 63-108t178-39q109 0 184 46t97 129h219q-25-161-166.5-262.5T564-23z"/><glyph glyph-name="etatonosgreek" unicode="ή" horiz-adv-x="1294" d="M1147-362H933V650q0 263-230 263-118 0-185.5-74T450 636V0H235v788q0 69-23 97t-75 28q-30 0-51-5v178q46 13 110 13 202 0 239-173l3-18h17q39 94 124 148t197 54q178 0 274.5-105.5T1147 703V-362zM482 1265l87 355h239l-138-355H482z"/><glyph glyph-name="iotatonosgreek" unicode="ί" horiz-adv-x="646" d="M156 1089h215V343q0-85 35.5-124.5T523 179q16 0 64 5V5Q534-6 479-6 304-6 230 63.5T156 289v800zm5 176 87 355h239l-138-355H161z"/><glyph glyph-name="upsilondieresistonosgreek" unicode="ΰ" horiz-adv-x="1162" d="M225 1265q-55 0-92.5 37.5T95 1395t37.5 92 92.5 37 92.5-37 37.5-92-37.5-92.5T225 1265zm696 0q-55 0-92 37.5t-37 92.5 37 92 92 37 92.5-37 37.5-92-37.5-92.5T921 1265zm-464 0 33 355h224l-84-355H457zM585-21Q374-21 257 94T140 432v657h210V453q0-275 233-275 117 0 183 94.5T832 549q0 173-21 286t-80 254h215q47-99 74.5-238t27.5-277q0-291-121-443T585-21z"/><glyph glyph-name="alphagreek" unicode="α" horiz-adv-x="1301" d="M579 175q138 0 219 100.5T879 544q0 166-76.5 268T598 914q-130 0-206.5-99T315 545q0-170 72-270t192-100zM545-18q-206 0-328.5 152T94 545q0 258 122 410t326 152q240 0 324-218h17v200h208V301q0-70 21.5-97.5T1181 176q23 0 50 5V3q-42-13-107-13-205 0-233 183l-4 17h-17Q829 90 745.5 36T545-18z"/><glyph glyph-name="betagreek" unicode="β" horiz-adv-x="1265" d="M523 718v184h81q119 0 184 57.5t65 162.5q0 102-62.5 162T623 1344q-252 0-252-320V520q0-162 84.5-253.5T682 175q112 0 186 75t74 190q0 137-86 207.5T605 718h-82zm-367 298q0 250 120.5 384.5T618 1535q198 0 320-105t122-285q0-101-54.5-183.5T857 839v-17q151-38 228.5-137t77.5-255q0-200-124.5-324T716-18q-116 0-202 49T388 165h-17v-527H156v1378z"/><glyph glyph-name="gammagreek" unicode="γ" horiz-adv-x="1143" d="M637-355H424v316L63 1089h227l258-884h17q131 185 189.5 349T813 889q0 114-20 200h213q21-100 21-200 0-203-93.5-427.5T637-32v-323z"/><glyph glyph-name="deltagreek" unicode="δ" horiz-adv-x="1196" d="M596-21q-233 0-371 141T87 495q0 189 108 321.5T470 985v19q-106 55-151.5 115.5T273 1264q0 124 105.5 197.5T649 1535q216 0 348-82v-182q-169 83-340 83-79 0-121.5-27.5T493 1251q0-45 38-79t153-88q219-113 318.5-250t99.5-330q0-234-141-379.5T596-21zm0 180q127 0 206 93.5T881 505q0 155-82 252t-208 97q-122 0-203.5-94.5T306 505q0-159 80-252.5T596 159z"/><glyph glyph-name="epsilongreek" unicode="ε" horiz-adv-x="1102" d="M564-21q-213 0-336.5 86.5T104 294q0 183 188 246v17q-167 67-167 234 0 146 121.5 232.5T567 1110q206 0 328.5-86.5T1042 772H828q-20 74-87 112t-172 38q-106 0-170.5-39T334 776q0-63 56.5-99.5T555 640h147V459H555q-111 0-170.5-39T325 315q0-69 63-108t178-39q109 0 184 46t97 129h219q-25-161-166.5-262.5T564-21z"/><glyph glyph-name="zetagreek" unicode="ζ" horiz-adv-x="953" d="m832-364-168 61q72 115 72 191 0 65-40.5 98.5T528 62q-243 82-342.5 199T86 574q0 371 493 729v17H173v194h742v-173q-324-213-466.5-388.5T306 588q0-127 65.5-199T617 257q190-66 258-134.5T943-69q0-135-111-295z"/><glyph glyph-name="etagreek" unicode="η" horiz-adv-x="1294" d="M1147-362H933V650q0 263-230 263-118 0-185.5-74T450 636V0H235v788q0 69-23 97t-75 28q-30 0-51-5v178q46 13 110 13 202 0 239-173l3-18h17q39 94 124 148t197 54q178 0 274.5-105.5T1147 703V-362z"/><glyph glyph-name="thetagreek" unicode="θ" horiz-adv-x="1225" d="M612-21q-250 0-381 198.5T100 758q0 381 132 579t380 198 380-197.5T1124 756q0-380-131.5-578.5T612-21zm0 185q142 0 214.5 120T906 670H319q7-266 79-386t214-120zM319 859h586q-10 255-83.5 373T612 1350q-137 0-210-118.5T319 859z"/><glyph glyph-name="iotagreek" unicode="ι" horiz-adv-x="646" d="M156 1089h215V343q0-85 35.5-124.5T523 179q16 0 64 5V5Q534-6 479-6 304-6 230 63.5T156 289v800z"/><glyph glyph-name="kappagreek" unicode="κ" horiz-adv-x="1209" d="M156 0v1089h210V581h17l294 336q90 105 154 143.5t151 38.5q53 0 98-13V908q-22 5-61 5-55 0-94.5-24.5T820 790L694 642 1118 0H882L558 493 366 291V0H156z"/><glyph glyph-name="lambdagreek" unicode="λ" horiz-adv-x="1168" d="m25 0 433 1027-34 92q-58 150-97.5 190T195 1349q-19 0-51-5v178q50 13 97 13 97 0 159.5-33T515 1385.5 622 1142l300-855q21-62 52.5-86.5T1059 176q20 0 48 5V3q-44-13-96-13-116 0-175 47T734 212L555 742h-17L249 0H25z"/><glyph glyph-name="nugreek" unicode="ν" horiz-adv-x="1143" d="M413 0 63 1089h227l257-885h17q132 189 190.5 353T813 890q0 108-20 199h213q21-100 21-197 0-196-87.5-414T660 0H413z"/><glyph glyph-name="xigreek" unicode="ξ" horiz-adv-x="985" d="m832-364-168 62q40 67 56 107.5t16 82.5q0 44-15.5 70t-63 52T512 68q-234 79-330 168.5T86 459q0 117 71.5 198T364 775v16q-113 45-164.5 109T148 1062q0 91 59 156t157 86v16H152v194h761v-169l-110-13q-243-28-345.5-87.5T355 1082q0-90 78-133.5T687 905h152V716H677q-181 0-276.5-57.5T305 500q0-54 24-91t93-74 202-80q184-63 251-133t67-187q0-76-24-141t-86-158z"/><glyph glyph-name="omicrongreek" unicode="ο" horiz-adv-x="1190" d="M595-21q-230 0-365.5 151.5T94 545q0 262 136.5 413.5T595 1110t364.5-151T1096 545 960.5 130.5 595-21zm0 191q130 0 205 99t75 276q0 176-75.5 275T595 919t-204.5-99.5T315 545q0-177 75-276t205-99z"/><glyph glyph-name="pigreek" unicode="π" horiz-adv-x="1422" d="M302 0v895H75v194h1240V895h-215V301q0-72 24-98.5t87-26.5q29 0 52 5V3q-46-13-106-13-138 0-200.5 69.5T894 278v617H507V0H302z"/><glyph glyph-name="rhogreek" unicode="ρ" horiz-adv-x="1245" d="M638 175q136 0 214 100.5T930 559q0 173-76.5 266.5T643 919 431 817t-78-283q0-161 80.5-260T638 175zM144-362v902q0 268 135 419t365 151q237 0 372-150.5T1151 556q0-267-123.5-420.5T696-18q-106 0-191.5 48.5T376 165h-17v-527H144z"/><glyph glyph-name="sigmafinalgreek" unicode="ς" horiz-adv-x="1130" d="M951-68q0-137-111-295l-168 61q72 114 72 191 0 61-40 95T534 63q-246 86-343 198.5T94 576q0 243 138.5 388.5T589 1110q192 0 311-99.5T1042 733H833q-24 94-83 139.5T588 918q-117 0-195.5-89T314 589q0-137 63-202.5T625 257q190-67 258-135t68-190z"/><glyph glyph-name="sigmagreek" unicode="σ" horiz-adv-x="1329" d="M592-21q-227 0-362.5 150T94 532q0 254 149.5 405.5T644 1089h591V895H946v-17q67-53 105-145.5t38-201.5q0-249-137.5-400.5T592-21zm2 189q131 0 208 98t77 269q0 162-80 260t-196 98q-130 0-209-97.5T315 535q0-173 76-270t203-97z"/><glyph glyph-name="taugreek" unicode="τ" horiz-adv-x="1073" d="M732-6Q550-6 472.5 62T395 289v606H57v194h919V895H610V343q0-86 37-125t120-39q33 0 80 5V5Q788-6 732-6z"/><glyph glyph-name="upsilongreek" unicode="υ" horiz-adv-x="1162" d="M585-21Q374-21 257 94T140 432v657h210V453q0-275 233-275 117 0 183 94.5T832 549q0 173-21 286t-80 254h215q47-99 74.5-238t27.5-277q0-291-121-443T585-21z"/><glyph glyph-name="phigreek" unicode="φ" horiz-adv-x="1516" d="M657-362v341Q390-5 241 147.5T92 545q0 131 43.5 236t120 174.5 178.5 109 223 45.5v250h202v-250q121-6 223-45.5t178.5-109 120-174.5 43.5-236q0-245-149-397.5T859-21v-341H657zm200 523q175 19 265 120t90 264q0 170-95 267.5T857 927V161zm-198 0v766q-165-17-260-114.5T304 545q0-163 90-264t265-120z"/><glyph glyph-name="chigreek" unicode="χ" horiz-adv-x="1140" d="m65-362 396 723-224 438q-33 64-66 89t-85 25q-23 0-42-5v178q44 13 94 13 100 0 158-43t115-155l168-328h17l267 516h219L684 356 906-75q31-61 64-86.5t86-25.5q16 0 42 6v-178q-45-13-99-13-92 0-150 38.5T743-198L565 147h-17L284-362H65z"/><glyph glyph-name="psigreek" unicode="ψ" horiz-adv-x="1446" d="M619-362v341q-229 5-354 126.5T140 432v657h210V472q0-288 269-294v1182h207V179q139 4 214.5 99.5T1116 553q0 161-23.5 287t-77.5 249h215q45-90 73.5-232t28.5-277q0-281-135-437.5T826-21v-341H619z"/><glyph glyph-name="omegagreek" unicode="ω" horiz-adv-x="1600" d="M1105-21q-206 0-297 222h-16Q701-21 495-21q-180 0-280.5 138T114 509q0 167 47 321.5T290 1089h226q-96-134-141-274t-45-304q0-333 188-333 78 0 128.5 67.5T697 426v351h206V426q0-113 50.5-180.5T1081 178q189 0 189 333 0 316-186 578h226q82-104 129-259t47-321q0-254-99.5-392T1105-21z"/><glyph glyph-name="iotadieresisgreek" unicode="ϊ" horiz-adv-x="646" d="M45 1238q-57 0-95.5 38.5T-89 1372t38.5 96 95.5 39q56 0 94.5-39t38.5-96-38.5-95.5T45 1238zm427 0q-56 0-95 38.5t-39 95.5 39 96 95 39 94.5-39 38.5-96-38.5-95.5T472 1238zm-316-149h215V343q0-85 35.5-124.5T523 179q16 0 64 5V5Q534-6 479-6 304-6 230 63.5T156 289v800z"/><glyph glyph-name="upsilondieresisgreek" unicode="ϋ" horiz-adv-x="1162" d="M351 1238q-57 0-95.5 38.5T217 1372t38.5 96 95.5 39q56 0 94.5-39t38.5-96-38.5-95.5T351 1238zm427 0q-56 0-95 38.5t-39 95.5 39 96 95 39 94.5-39 38.5-96-38.5-95.5T778 1238zM585-21Q374-21 257 94T140 432v657h210V453q0-275 233-275 117 0 183 94.5T832 549q0 173-21 286t-80 254h215q47-99 74.5-238t27.5-277q0-291-121-443T585-21z"/><glyph glyph-name="omicrontonosgreek" unicode="ό" horiz-adv-x="1190" d="M595-21q-230 0-365.5 151.5T94 545q0 262 136.5 413.5T595 1110t364.5-151T1096 545 960.5 130.5 595-21zm0 191q130 0 205 99t75 276q0 176-75.5 275T595 919t-204.5-99.5T315 545q0-177 75-276t205-99zM481 1265l87 355h239l-138-355H481z"/><glyph glyph-name="upsilontonosgreek" unicode="ύ" horiz-adv-x="1162" d="m449 1265 87 355h239l-138-355H449zM585-21Q374-21 257 94T140 432v657h210V453q0-275 233-275 117 0 183 94.5T832 549q0 173-21 286t-80 254h215q47-99 74.5-238t27.5-277q0-291-121-443T585-21z"/><glyph glyph-name="omegatonosgreek" unicode="ώ" horiz-adv-x="1600" d="M1105-21q-206 0-297 222h-16Q701-21 495-21q-180 0-280.5 138T114 509q0 167 47 321.5T290 1089h226q-96-134-141-274t-45-304q0-333 188-333 78 0 128.5 67.5T697 426v351h206V426q0-113 50.5-180.5T1081 178q189 0 189 333 0 316-186 578h226q82-104 129-259t47-321q0-254-99.5-392T1105-21zM698 1265l87 355h239l-138-355H698z"/><glyph glyph-name="uni0400" unicode="Ѐ" horiz-adv-x="1259" d="m536 1582-326 306h258l298-306H536zm571-1378V0H191v1443h916v-204H415V831h655V637H415V204h692z"/><glyph glyph-name="Iocyrillic" unicode="Ё" horiz-adv-x="1259" d="M436 1577q-57 0-95.5 38.5T302 1711t38.5 96 95.5 39q56 0 94.5-39t38.5-96-38.5-95.5T436 1577zm427 0q-56 0-95 38.5t-39 95.5 39 96 95 39 94.5-39 38.5-96-38.5-95.5T863 1577zm244-1373V0H191v1443h916v-204H415V831h655V637H415V204h692z"/><glyph glyph-name="Djecyrillic" unicode="Ђ" horiz-adv-x="1749" d="M1168-40q-87 0-136 17v198q43-15 124-15 118 0 186 71t68 195-79 198.5-211 74.5q-109 0-204.5-53T781 512V0H557v1239H103v204h1131v-204H781V773h16q63 63 155.5 98.5T1148 907q221 0 353.5-130.5T1634 436q0-217-126.5-346.5T1168-40z"/><glyph glyph-name="Gjecyrillic" unicode="Ѓ" horiz-adv-x="1183" d="M708 1575H478l297 306h258zM416 0H191v1443h882v-205H416V0z"/><glyph glyph-name="Ecyrillic" unicode="Є" horiz-adv-x="1525" d="M1400 436q-29-212-195.5-341.5T793-35q-305 0-483 203T132 721q0 351 177.5 554T792 1478q242 0 412-138.5T1400 983h-223q-31 130-135.5 208T792 1269q-177 0-291-117T367 833h614V637H364q14-213 129.5-338T793 174q147 0 250.5 71T1177 436h223z"/><glyph glyph-name="Dzecyrillic" unicode="Ѕ" horiz-adv-x="1353" d="M123 388h222q14-103 107.5-163.5T691 164q135 0 223.5 62.5T1003 385q0 82-65.5 134.5T728 606l-186 45q-196 46-288 143t-92 256q0 193 144.5 310.5T687 1478q220 0 365-116t155-298H989q-16 100-97.5 158T684 1280q-133 0-214-59t-81-156q0-77 61.5-125T653 859l159-39q222-52 320-147.5t98-258.5q0-207-150-328T674-35Q434-35 284.5 80T123 388z"/><glyph glyph-name="Icyrillic" unicode="І" horiz-adv-x="605" d="M415 0H191v1443h224V0z"/><glyph glyph-name="Yicyrillic" unicode="Ї" horiz-adv-x="605" d="M415 0H191v1443h224V0zM90 1577q-57 0-95.5 38.5T-44 1711t38.5 96 95.5 39q56 0 94.5-39t38.5-96-38.5-95.5T90 1577zm427 0q-56 0-95 38.5t-39 95.5 39 96 95 39 94.5-39 38.5-96-38.5-95.5T517 1577z"/><glyph glyph-name="Jecyrillic" unicode="Ј" horiz-adv-x="1168" d="M92 375h220q2-89 62-144t156-55q108 0 166 63.5T754 423v1020h224V422q0-217-118.5-337T532-35Q335-35 213.5 77.5T92 375z"/><glyph glyph-name="Ljecyrillic" unicode="Љ" horiz-adv-x="2200" d="M527 554q-8-136-32-236.5T426 141 309 27 137-11Q88-11 54 1v210q28-7 58-7 46 0 81 18.5t56.5 49 36 79 21.5 99T318 568l49 875h915V932h326q213 0 347.5-129.5T2090 466t-132.5-336.5T1615 0h-557v1239H569zm755-354h274q146 0 225.5 69t79.5 197q0 129-80 198.5T1555 734h-273V200z"/><glyph glyph-name="Njecyrillic" unicode="Њ" horiz-adv-x="2269" d="M415 641V0H191v1443h224V842h704v601h224V842h327q213 0 347.5-115T2152 428q0-190-133-309T1676 0h-557v641H415zm928-441h280q144 0 222.5 59.5T1924 429q0 103-79 159t-223 56h-279V200z"/><glyph glyph-name="Tshecyrillic" unicode="Ћ" horiz-adv-x="1790" d="M1109 699q-76 0-138-21t-100-55-58-59.5-32-51.5V0H557v1239H103v204h1131v-204H781V774h16q131 133 346 133 157 0 268.5-68.5t164.5-182 53-259.5V0h-224v382q0 145-74.5 231T1109 699z"/><glyph glyph-name="Kjecyrillic" unicode="Ќ" horiz-adv-x="1406" d="M774 1575H544l297 306h258zM423 818h43l570 625h265L657 743 1353 0h-284L467 633h-44V0H199v1443h224V818z"/><glyph glyph-name="uni040D" unicode="Ѝ" horiz-adv-x="1572" d="m722 1582-326 306h258l298-306H722zM1159 0v1064h-17L409 0H191v1443h222V376h17l733 1067h218V0h-222z"/><glyph glyph-name="Ushortcyrillic" unicode="Ў" horiz-adv-x="1355" d="M321 1892h179q1-76 50.5-122.5T676 1723q77 0 127 46.5t51 122.5h179q0-142-97.5-225T676 1584t-258.5 83-96.5 225zM355-11q-63 0-96 13v203q30-9 83-9 77 0 130.5 30t93.5 99L78 1443h239l359-871h17l349 871h234L834 413q-47-111-89-182.5t-98-130-127.5-85T355-11z"/><glyph glyph-name="Dzhecyrillic" unicode="Џ" horiz-adv-x="1551" d="M671 0H191v1443h224V204h722v1239h223V0H880v-285H671V0z"/><glyph glyph-name="Acyrillic" unicode="А" horiz-adv-x="1443" d="M1125 0 993 383H443L310 0H80l521 1443h241L1363 0h-238zM710 1181 500 571h436l-209 610h-17z"/><glyph glyph-name="Becyrillic" unicode="Б" horiz-adv-x="1334" d="M1215 443q0-197-132.5-320T740 0H191v1443h884v-204H415V884h320q212 0 346-122.5T1215 443zM415 200h268q145 0 224 63t79 181-79.5 181.5T682 689H415V200z"/><glyph glyph-name="Vecyrillic" unicode="В" horiz-adv-x="1393" d="M784 0H191v1443h580q203 0 318.5-96.5T1205 1083q0-113-73-202.5T952 773v-17q146-15 235.5-110.5T1277 409q0-191-131-300T784 0zM415 1253V832h266q148 0 224.5 53.5T982 1042q0 100-69.5 155.5T719 1253H415zm0-1063h324q151 0 230 60t79 175q0 113-82 171.5T726 655H415V190z"/><glyph glyph-name="Gecyrillic" unicode="Г" horiz-adv-x="1183" d="M416 0H191v1443h882v-205H416V0z"/><glyph glyph-name="Decyrillic" unicode="Д" horiz-adv-x="1538" d="M503 567q-8-131-29-211.5T406 218v-14h658v1035H547zM245 0v-285H40v489h105q74 45 107.5 134.5T295 579l53 864h940V204h180v-489h-205V0H245z"/><glyph glyph-name="Iecyrillic" unicode="Е" horiz-adv-x="1259" d="M1107 204V0H191v1443h916v-204H415V831h655V637H415V204h692z"/><glyph glyph-name="Zhecyrillic" unicode="Ж" horiz-adv-x="2115" d="M1167 816h44l526 627h260l-601-701L2049 0h-279l-558 635h-45V0H945v635h-45L341 0H66l649 737-603 706h262l526-627h45v627h222V816z"/><glyph glyph-name="Zecyrillic" unicode="З" horiz-adv-x="1294" d="M439 637v196h193q120 0 196 64t76 166q0 101-72 160t-198 59-203.5-60-87.5-166H131q11 195 148 308.5T641 1478q213 0 348.5-108t135.5-280q0-120-72.5-211.5T863 760v-17q143-15 232-108t89-241q0-121-71-219.5t-194-154T645-35Q410-35 261.5 82T103 392h215q10-104 98.5-165.5T645 165q139 0 224 67t85 174q0 108-83 169.5T638 637H439z"/><glyph glyph-name="Iicyrillic" unicode="И" horiz-adv-x="1572" d="M1159 0v1064h-17L409 0H191v1443h222V376h17l733 1067h218V0h-222z"/><glyph glyph-name="Iishortcyrillic" unicode="Й" horiz-adv-x="1572" d="M440 1892h179q1-76 50.5-122.5T795 1723q77 0 127 46.5t51 122.5h179q0-142-97.5-225T795 1584t-258.5 83-96.5 225zM1159 0v1064h-17L409 0H191v1443h222V376h17l733 1067h218V0h-222z"/><glyph glyph-name="Kacyrillic" unicode="К" horiz-adv-x="1410" d="M415 818h43l570 625h265L649 743 1345 0h-284L459 633h-44V0H191v1443h224V818z"/><glyph glyph-name="Elcyrillic" unicode="Л" horiz-adv-x="1462" d="M1272 0h-224v1239H559l-42-685q-8-136-32-236.5T416 141 299 27 127-11Q78-11 44 1v210q28-7 58-7 46 0 81 18.5t56.5 49 36 79 21.5 99T308 568l49 875h915V0z"/><glyph glyph-name="Emcyrillic" unicode="М" horiz-adv-x="1842" d="M1651 0h-208v1042h-14L1006 42H836L413 1042h-14V0H191v1443h262L912 347h17l460 1096h262V0z"/><glyph glyph-name="Encyrillic" unicode="Н" horiz-adv-x="1570" d="M1379 0h-223v633H415V0H191v1443h224V837h741v606h223V0z"/><glyph glyph-name="Ocyrillic" unicode="О" horiz-adv-x="1610" d="M806 1478q312 0 492-203.5T1478 722t-180-553T806-35q-313 0-493.5 203.5T132 722q0 349 181.5 552.5T806 1478zm0-209q-204 0-324.5-148T361 722t119-399.5T806 174q205 0 324 148.5T1249 722q0 252-119 399.5T806 1269z"/><glyph glyph-name="Pecyrillic" unicode="П" horiz-adv-x="1551" d="M1360 0h-222v1238H416V0H191v1443h1169V0z"/><glyph glyph-name="Ercyrillic" unicode="Р" horiz-adv-x="1349" d="M191 1443h565q212 0 344-133.5T1232 962q0-211-135-343.5T749 486H415V0H191v1443zm224-198V683h282q145 0 225.5 72.5T1003 962q0 137-79 210t-227 73H415z"/><glyph glyph-name="Escyrillic" unicode="С" horiz-adv-x="1505" d="M783-35q-301 0-476 203T132 721q0 351 174.5 554T782 1478q238 0 405.5-139.5T1382 978h-223q-32 133-133.5 212T782 1269q-194 0-307.5-147.5T361 721q0-252 113.5-399.5T783 174q143 0 244.5 72T1159 440h223q-30-214-194-344.5T783-35z"/><glyph glyph-name="Tecyrillic" unicode="Т" horiz-adv-x="1337" d="M781 0H557v1239H103v204h1131v-204H781V0z"/><glyph glyph-name="Ucyrillic" unicode="У" horiz-adv-x="1355" d="M355-11q-63 0-96 13v203q30-9 83-9 77 0 130.5 30t93.5 99L78 1443h239l359-871h17l349 871h234L834 413q-47-111-89-182.5t-98-130-127.5-85T355-11z"/><glyph glyph-name="Efcyrillic" unicode="Ф" horiz-adv-x="1759" d="M770 328v795q-194-8-308-113.5T348 726t114-284.5T770 328zm640 397q0 178-113.5 284.5T989 1123V328q193 8 307 113.5T1410 725zM769 128q-295 8-471.5 167T121 726q0 181 82 314.5t227.5 205T769 1323v145h221v-145q294-8 470-167t176-431q0-181-81.5-314.5t-226.5-205T990 128V-25H769v153z"/><glyph glyph-name="Xacyrillic" unicode="Х" horiz-adv-x="1447" d="m99 0 482 726-477 717h267l351-544h17l357 544h252L858 720 1339 0h-262L723 534h-17L347 0H99z"/><glyph glyph-name="Tsecyrillic" unicode="Ц" horiz-adv-x="1611" d="M1541-285h-205V0H191v1443h224V204h722v1239h224V204h180v-489z"/><glyph glyph-name="Checyrillic" unicode="Ч" horiz-adv-x="1457" d="M1267 0h-224v623h-17Q891 518 684 518q-259 0-403.5 148.5T136 1050v393h224v-383q0-156 90-244t256-88q105 0 192.5 34.5T1043 852v591h224V0z"/><glyph glyph-name="Shacyrillic" unicode="Ш" horiz-adv-x="2017" d="M191 0v1443h224V204h481v1239h224V204h482v1239h224V0H191z"/><glyph glyph-name="Shchacyrillic" unicode="Щ" horiz-adv-x="2076" d="M2006-285h-205V0H191v1443h224V204h481v1239h224V204h482v1239h224V204h180v-489z"/><glyph glyph-name="Hardsigncyrillic" unicode="Ъ" horiz-adv-x="1580" d="M995 0H438v1239H106v204h556V932h326q213 0 347.5-129.5T1470 466t-132.5-336.5T995 0zM662 200h274q146 0 225.5 69t79.5 197q0 129-80 198.5T936 734H662V200z"/><glyph glyph-name="Yericyrillic" unicode="Ы" horiz-adv-x="1827" d="M1637 0h-224v1443h224V0zM191 0v1443h224V932h326q213 0 348-129.5T1224 466t-132.5-336.5T748 0H191zm224 200h274q146 0 225.5 69T994 466q0 129-80 198.5T689 734H415V200z"/><glyph glyph-name="Softsigncyrillic" unicode="Ь" horiz-adv-x="1341" d="M191 0v1443h224V932h326q213 0 348-129.5T1224 466t-132.5-336.5T748 0H191zm224 200h274q146 0 225.5 69T994 466q0 129-80 198.5T689 734H415V200z"/><glyph glyph-name="Ereversedcyrillic" unicode="Э" horiz-adv-x="1502" d="M716-35Q468-35 299.5 94.5T101 436h223q30-120 136-191t256-71q181 0 294.5 124T1138 637H521v196h616q-20 204-132 320t-288 116q-148 0-254.5-78T325 983H102q17 143 101 256t218.5 176 295.5 63q302 0 477.5-202.5T1370 724q0-352-176-555.5T716-35z"/><glyph glyph-name="IUcyrillic" unicode="Ю" horiz-adv-x="2115" d="M1322-35q-289 0-464.5 178.5T661 633H415V0H191v1443h224V837h248q29 299 204 470t455 171q306 0 483.5-203.5T1983 722t-177-553-484-204zm-1 1304q-200 0-317.5-148T886 722t116.5-399.5T1321 174q200 0 316.5 148.5T1754 722q0 252-116.5 399.5T1321 1269z"/><glyph glyph-name="IAcyrillic" unicode="Я" horiz-adv-x="1403" d="M989 731v514H704q-143 0-221.5-67.5T404 988t78.5-189.5T704 731h285zM737 539 359 0H102l401 570q-150 40-239.5 151.5T174 989q0 202 134.5 328T659 1443h553V0H989v539H737z"/><glyph glyph-name="acyrillic" unicode="а" horiz-adv-x="1178" d="M522 163q121 0 201.5 68T804 401v91l-266-17q-112-7-165-46t-53-111 56-113.5T522 163zM467-18q-160 0-261.5 89.5T104 308q0 146 105 229.5T509 633l295 17v94q0 87-57 133.5T581 924q-90 0-149.5-31.5T354 803H146q16 140 137.5 223.5T591 1110q204 0 315.5-96.5T1018 744V0H811v153h-17Q745 71 659.5 26.5T467-18z"/><glyph glyph-name="becyrillic" unicode="б" horiz-adv-x="1265" d="M632 170q142 0 219.5 94T929 530q0 164-77.5 254T632 874t-219.5-90T335 530q0-172 77.5-266T632 170zM289 855h17q51 95 143 149.5t223 54.5q216 0 347.5-141.5T1151 533q0-258-138.5-406T634-21q-251 0-385.5 164T114 633q0 203 28.5 349.5t94 253.5 174 162 265.5 61l119 5q76 4 147 17t103 23.5 34 12.5v-190q-7-5-24-13.5t-86.5-24T807 1270l-119-4q-104-4-176.5-32T394 1151t-68.5-125T289 855z"/><glyph glyph-name="vecyrillic" unicode="в" horiz-adv-x="1161" d="M615 924H378V642h213q192 0 192 142 0 66-42.5 103T615 924zm-9-440H378V165h255q95 0 145 41t50 118q0 160-222 160zM165 0v1089h491q159 0 248.5-74.5T994 812q0-83-52.5-149T810 582v-17q105-12 169-81.5t64-169.5q0-144-102-229T661 0H165z"/><glyph glyph-name="gecyrillic" unicode="г" horiz-adv-x="972" d="M882 908H380V0H165v1089h717V908z"/><glyph glyph-name="decyrillic" unicode="д" horiz-adv-x="1296" d="M859 181v727H476l-30-410q-17-205-85-300v-17h498zM235-285H35v466h88q108 66 126 328l40 580h784V181h170v-466h-199V0H235v-285z"/><glyph glyph-name="iecyrillic" unicode="е" horiz-adv-x="1212" d="M613 927q-119 0-196-77t-86-205h550q-4 129-76.5 205.5T613 927zm267-633h207q-37-147-161.5-231T615-21q-234 0-368.5 150.5T112 541t136 415 366 154q227 0 356.5-146T1100 561v-75H331v-12q5-144 83-228t207-84q197 0 259 132z"/><glyph glyph-name="zhecyrillic" unicode="ж" horiz-adv-x="1695" d="M323 0H64l450 581-433 508h251l355-446h55v446h209V643h55l355 446h248l-430-505L1632 0h-262l-363 480h-56V0H742v480h-56z"/><glyph glyph-name="zecyrillic" unicode="з" horiz-adv-x="1115" d="M556-20q-121 0-218 35.5t-160 111T105 309h214q16-71 78.5-108.5T556 163q107 0 169 43.5T787 324q0 155-231 155H393v167h160q97 0 146.5 36T749 787q0 63-50.5 102T553 928q-91 0-151.5-36.5T331 791H124q17 147 131.5 233t297.5 86q192 0 299.5-81T960 809q0-82-47.5-143T788 586v-17q104-24 158.5-88.5T1001 324q0-155-121.5-249.5T556-20z"/><glyph glyph-name="iicyrillic" unicode="и" horiz-adv-x="1276" d="M378 0H165v1089h213V340h17l502 749h213V0H897v753h-16z"/><glyph glyph-name="iishortcyrillic" unicode="й" horiz-adv-x="1276" d="M274 1582h179q0-83 49-141t128-58q81 0 129.5 58t49.5 141h178q0-147-99-242.5T630 1244t-257.5 95.5T274 1582zM378 0H165v1089h213V340h17l502 749h213V0H897v753h-16z"/><glyph glyph-name="kacyrillic" unicode="к" horiz-adv-x="1158" d="M429 476h-49V0H165v1089h215V647h48l393 442h253L605 583 1094 0H826z"/><glyph glyph-name="elcyrillic" unicode="л" horiz-adv-x="1215" d="M460 498q-8-123-28-211.5t-58.5-158T272 24 121-11Q78-11 47 1v201q27-8 58-8 75 0 110.5 81T262 509l38 580h750V0H835v908H490z"/><glyph glyph-name="emcyrillic" unicode="м" horiz-adv-x="1583" d="M374 0H165v1089h270l351-779h17l352 779h263V0h-210v751h-19L870 44H712L393 751h-19V0z"/><glyph glyph-name="encyrillic" unicode="н" horiz-adv-x="1262" d="M882 0v472H380V0H165v1089h215V653h502v436h214V0H882z"/><glyph glyph-name="ocyrillic" unicode="о" horiz-adv-x="1251" d="M626-21q-240 0-377 151T112 545q0 263 137.5 414T626 1110q238 0 375.5-151T1139 545q0-264-137-415T626-21zm0 191q139 0 215.5 98.5T918 545q0 177-76.5 275.5T626 919q-140 0-216-98t-76-276q0-179 76-277t216-98z"/><glyph glyph-name="pecyrillic" unicode="п" horiz-adv-x="1252" d="M872 0v908H380V0H165v1089h921V0H872z"/><glyph glyph-name="ercyrillic" unicode="р" horiz-adv-x="1295" d="M730 1107q208 0 330-151.5T1182 545t-121.5-411T732-18q-116 0-204 48.5T397 165h-17v-527H165v1451h207V909h16q49 93 140 145.5t202 52.5zm-61-932q137 0 214.5 98.5T961 545t-77.5 271T670 914t-215-99.5T376 544q0-170 79-269.5T669 175z"/><glyph glyph-name="escyrillic" unicode="с" horiz-adv-x="1187" d="M1088 733H879q-20 83-86.5 134T622 918q-135 0-212.5-98T332 548q0-176 77.5-276.5T622 171q103 0 169.5 46T879 350h209q-21-168-144-269.5T623-21q-238 0-374.5 151.5T112 548q0 262 136 412t374 150q199 0 321.5-104T1088 733z"/><glyph glyph-name="tecyrillic" unicode="т" horiz-adv-x="1053" d="M977 1089V908H634V0H419v908H76v181h901z"/><glyph glyph-name="ucyrillic" unicode="у" horiz-adv-x="1172" d="M274-395q-56 0-89 5v185q23-4 70-4 77 0 123 35t74 117l16 53L74 1089h234l273-865h17l272 865h228L692-45q-70-198-160.5-274T274-395z"/></font>
</defs>
</svg>
